<?xml version="1.0" standalone="no"?>
<!DOCTYPE svg PUBLIC "-//W3C//DTD SVG 20010904//EN"
 "http://www.w3.org/TR/2001/REC-SVG-20010904/DTD/svg10.dtd">
<svg version="1.0" xmlns="http://www.w3.org/2000/svg"
 width="1164.000000pt" height="1164.000000pt" viewBox="0 0 1164.000000 1164.000000"
 preserveAspectRatio="xMidYMid meet">
<metadata>
Created by potrace 1.11, written by Peter Selinger 2001-2013
</metadata>
<g transform="translate(0.000000,1164.000000) scale(0.100000,-0.100000)"
fill="#000000" stroke="none">
<path d="M3200 8540 c-19 -4 -69 -15 -110 -25 -41 -9 -85 -18 -97 -20 -12 -2
-27 -6 -33 -10 -6 -4 -21 -8 -33 -9 -46 -5 -264 -59 -299 -74 -48 -20 -66 -63
-94 -222 -4 -22 -17 -84 -20 -95 -1 -5 -7 -34 -13 -64 -6 -30 -14 -57 -17 -60
-3 -3 -47 -6 -97 -7 -127 -2 -122 -1 -155 -29 -28 -23 -35 -43 -77 -218 -45
-185 -46 -195 -32 -229 24 -57 57 -73 155 -74 45 -1 85 -3 87 -5 3 -4 -4 -48
-20 -119 -10 -47 -17 -85 -20 -105 -2 -11 -4 -20 -5 -20 -1 0 -3 -9 -5 -20 -5
-26 -18 -88 -20 -95 -1 -3 -5 -23 -10 -45 -8 -44 -12 -60 -26 -120 -5 -22 -11
-51 -13 -65 -2 -14 -7 -41 -11 -60 -5 -19 -10 -42 -11 -50 -1 -8 -7 -33 -13
-55 -10 -41 -21 -95 -26 -130 -2 -11 -4 -20 -5 -20 -1 0 -3 -9 -5 -20 -2 -11
-7 -36 -11 -55 -5 -19 -8 -39 -9 -45 -1 -5 -6 -32 -13 -60 -6 -27 -14 -61 -16
-75 -3 -14 -21 -101 -41 -195 -60 -282 -155 -726 -159 -749 -13 -62 -26 -124
-31 -146 -3 -14 -7 -34 -9 -45 -3 -17 -38 -178 -52 -240 -3 -11 -7 -31 -10
-45 -3 -14 -19 -90 -35 -170 -17 -80 -35 -165 -39 -190 -5 -25 -14 -67 -20
-95 -6 -27 -14 -61 -16 -74 -3 -13 -12 -54 -20 -90 -8 -36 -17 -77 -20 -91 -4
-22 -68 -329 -80 -385 -2 -11 -6 -31 -9 -45 -3 -14 -7 -34 -9 -45 -2 -11 -11
-50 -20 -88 -9 -37 -18 -81 -21 -97 -7 -39 -35 -169 -42 -195 -10 -38 -7 -104
7 -130 31 -57 39 -59 360 -60 162 0 310 3 329 8 58 15 91 75 107 192 1 11 10
54 19 95 9 41 18 85 21 96 2 12 13 66 25 120 11 55 23 110 25 124 7 37 12 62
19 90 3 14 8 39 11 55 3 17 10 48 15 70 5 22 11 49 13 60 3 17 22 114 40 200
3 11 14 64 25 119 12 54 23 108 26 120 2 11 7 32 10 46 3 14 8 41 11 60 3 19
8 38 10 41 2 4 6 24 10 45 3 22 10 57 16 79 6 22 11 49 13 60 1 11 11 56 20
100 10 44 19 90 20 102 2 12 5 26 8 30 3 5 8 29 12 53 4 25 13 72 20 105 15
63 24 106 29 140 2 11 8 40 14 65 6 25 13 59 16 75 3 17 15 73 26 125 12 52
23 106 25 120 2 14 18 90 35 170 17 80 33 156 36 170 2 14 7 36 10 50 3 14 8
36 11 50 2 14 9 45 14 70 6 25 13 56 15 70 2 14 7 36 10 50 3 14 8 36 11 50 2
14 9 43 14 65 5 22 12 56 15 75 2 19 10 53 15 75 6 22 13 50 15 63 8 48 13 69
23 112 5 25 13 61 16 80 3 19 12 64 20 100 8 36 17 76 19 90 3 14 10 43 15 65
5 22 12 54 15 70 15 86 50 242 56 254 6 11 45 14 186 16 99 1 185 2 191 3 7 1
25 15 41 31 25 26 45 84 68 196 1 6 11 48 23 94 26 103 26 127 1 168 -31 52
-50 57 -222 58 -86 0 -159 3 -162 5 -3 3 6 56 19 118 13 62 26 129 30 149 3
19 7 39 10 43 3 4 7 23 10 41 2 19 9 50 13 69 17 69 -1 120 -51 150 -33 21
-58 23 -117 10z"/>
<path d="M4657 8003 c-1 -1 -33 -4 -70 -7 -59 -5 -113 -13 -206 -31 -25 -5
-84 -22 -111 -32 -8 -3 -21 -7 -28 -9 -15 -3 -58 -22 -137 -61 -203 -100 -401
-306 -504 -526 -77 -165 -122 -367 -122 -552 -1 -91 24 -238 51 -310 6 -16 11
-30 10 -30 -5 0 50 -96 77 -136 27 -38 50 -63 144 -151 11 -10 22 -18 25 -18
3 0 22 -12 41 -27 20 -16 37 -26 37 -24 1 2 21 -6 46 -17 56 -25 140 -52 183
-59 18 -2 50 -9 72 -14 42 -9 386 -5 445 5 19 4 58 11 85 16 28 5 61 11 75 14
86 14 299 85 320 106 31 31 48 79 65 190 3 19 11 53 17 75 6 22 10 58 9 79 -2
58 -52 105 -116 111 -5 1 -39 -7 -75 -18 -36 -10 -78 -20 -94 -22 -15 -2 -36
-7 -46 -10 -108 -34 -341 -40 -432 -11 -32 10 -58 23 -58 27 0 5 -6 9 -14 9
-18 0 -84 74 -91 102 -3 13 -7 38 -9 56 -3 29 -1 32 23 31 26 -1 210 9 266 15
91 10 162 20 215 31 13 2 42 7 64 11 22 3 43 7 47 9 3 2 19 6 35 9 85 15 301
103 338 137 11 11 23 19 27 19 8 0 104 93 126 122 45 60 83 173 90 268 6 94 6
86 -2 140 -38 251 -213 405 -527 465 -41 8 -286 23 -291 18z m33 -476 c49 -25
67 -108 37 -178 -44 -104 -165 -158 -389 -173 -47 -4 -48 -3 -42 23 3 14 11
42 17 61 6 19 11 37 12 40 0 3 11 26 24 53 39 80 122 154 201 178 40 12 113
10 140 -4z"/>
<path d="M6819 8006 c-2 -2 -60 -6 -129 -10 -69 -3 -136 -8 -150 -11 -13 -2
-40 -7 -60 -10 -198 -30 -410 -117 -578 -239 -55 -39 -145 -126 -198 -191 -36
-44 -127 -188 -130 -204 0 -3 -12 -31 -26 -61 -25 -53 -57 -140 -63 -170 -2
-8 -10 -42 -19 -75 -23 -90 -28 -145 -29 -300 -1 -179 8 -244 56 -379 105
-297 405 -436 726 -335 83 26 121 46 200 104 73 54 149 128 211 206 l43 54 -8
-75 c-19 -191 -11 -227 54 -259 32 -15 68 -17 337 -17 l301 1 36 28 c21 15 37
33 38 40 0 7 2 20 4 30 2 9 6 52 10 95 3 42 8 95 11 117 2 22 7 63 9 90 7 70
17 139 20 145 2 3 6 26 10 50 6 45 57 288 75 365 6 22 12 51 14 65 3 14 12 59
21 100 9 41 18 84 20 95 2 11 6 31 9 45 7 31 6 26 56 260 23 107 43 206 44
220 3 29 -12 80 -29 96 -13 13 -75 46 -75 40 0 -2 -19 1 -42 6 -66 15 -77 17
-198 33 -19 3 -46 7 -60 10 -14 3 -50 7 -80 10 -31 3 -71 8 -90 10 -19 3 -100
7 -180 11 -80 3 -148 8 -151 10 -3 2 -8 2 -10 0z m24 -517 c36 -3 38 -5 32
-28 -4 -15 -8 -33 -10 -41 -2 -8 -13 -54 -24 -102 -11 -47 -23 -101 -26 -119
-3 -18 -8 -35 -10 -39 -2 -4 -7 -22 -10 -41 -5 -30 -37 -140 -52 -179 -31 -79
-43 -104 -72 -159 -89 -162 -230 -241 -338 -190 -90 43 -119 136 -99 310 8 67
10 76 32 154 10 33 22 63 28 67 6 4 7 8 3 8 -4 0 -2 10 5 23 6 12 13 27 14 33
7 39 159 223 186 224 4 0 13 6 20 13 38 35 182 76 252 70 17 -1 48 -3 69 -4z"/>
<path d="M9305 8003 c-236 -24 -452 -126 -633 -299 -42 -41 -78 -74 -80 -74
-3 0 5 57 14 105 3 11 5 48 6 81 1 46 -4 68 -18 87 -38 51 -55 53 -384 52
-271 -1 -308 -3 -331 -18 -32 -21 -59 -73 -61 -117 0 -8 -5 -37 -10 -65 -5
-27 -11 -63 -13 -80 -3 -16 -7 -41 -10 -55 -3 -14 -7 -39 -9 -57 -3 -18 -7
-40 -10 -50 -3 -10 -8 -31 -10 -48 -8 -45 -49 -242 -102 -490 -2 -11 -7 -33
-10 -50 -2 -16 -9 -46 -14 -65 -5 -19 -11 -46 -14 -60 -3 -14 -7 -36 -10 -50
-3 -14 -9 -41 -13 -60 -9 -46 -10 -50 -12 -52 -2 -2 -4 -14 -6 -28 -3 -25 -9
-52 -20 -100 -3 -14 -8 -41 -11 -60 -3 -19 -8 -38 -10 -41 -2 -3 -6 -20 -9
-37 -3 -17 -12 -62 -21 -99 -22 -98 -24 -144 -6 -173 21 -33 32 -43 62 -56 29
-12 612 -12 647 0 45 15 80 94 99 226 3 19 9 49 14 65 4 17 12 48 16 70 4 22
8 47 10 55 2 8 6 30 8 48 3 19 8 37 11 42 3 4 7 25 11 45 5 36 8 48 19 98 3
12 8 37 11 56 3 19 10 45 15 58 5 13 7 23 4 23 -2 0 0 14 5 32 5 17 12 50 15
72 20 132 95 279 196 378 77 76 123 100 192 101 54 0 90 -15 107 -48 21 -39
16 -145 -12 -250 -5 -22 -12 -49 -14 -60 -10 -52 -33 -162 -49 -232 -14 -63
-34 -161 -41 -199 -3 -16 -8 -38 -11 -49 -4 -11 -7 -27 -9 -35 -1 -8 -9 -47
-17 -85 -9 -39 -18 -82 -21 -95 -2 -14 -12 -59 -21 -100 -9 -41 -17 -87 -17
-102 -2 -42 20 -82 55 -103 30 -18 55 -19 332 -20 165 -1 313 3 328 8 50 16
75 63 93 172 2 11 10 50 18 86 8 36 17 79 20 95 2 16 7 40 10 54 15 67 20 91
31 150 3 14 7 36 10 50 6 25 11 51 19 93 7 34 25 119 31 147 3 14 8 36 10 50
10 61 17 86 40 141 76 188 234 341 345 334 118 -8 142 -76 100 -280 -11 -53
-22 -100 -25 -105 -3 -4 -7 -23 -10 -41 -2 -19 -6 -43 -9 -54 -2 -11 -23 -108
-46 -215 -23 -107 -44 -204 -46 -215 -3 -11 -6 -31 -8 -45 -2 -14 -9 -43 -15
-65 -5 -22 -13 -56 -16 -75 -3 -19 -8 -43 -11 -53 -7 -22 -13 -58 -18 -103 -5
-40 18 -88 53 -111 23 -15 58 -17 331 -18 402 -2 384 -10 426 200 3 19 6 29
20 95 3 14 7 36 10 50 3 14 10 45 15 70 6 25 12 56 15 70 5 33 12 65 14 65 2
0 8 30 14 65 4 22 15 75 31 150 3 14 8 39 10 55 3 17 8 38 11 47 3 9 7 27 9
40 4 18 43 210 71 343 14 68 19 136 18 255 -1 151 -17 215 -75 300 -49 71
-143 131 -229 146 -14 3 -36 7 -50 10 -83 16 -246 -1 -358 -37 -66 -22 -205
-91 -233 -115 -8 -8 -21 -14 -28 -14 -6 0 -14 -7 -17 -15 -4 -8 -10 -15 -15
-15 -17 0 -137 -112 -192 -179 -15 -18 -30 -32 -32 -29 -3 2 -7 23 -10 46 -26
205 -160 336 -365 357 -30 4 -59 7 -65 8 -5 2 -23 1 -40 0z"/>
<path d="M7018 5876 c-1 -2 -30 -6 -63 -9 -120 -11 -217 -48 -273 -103 -7 -8
-19 -17 -26 -21 -27 -16 -84 -114 -96 -164 -43 -180 23 -325 183 -404 99 -48
219 -62 350 -41 55 9 156 53 203 89 49 38 114 122 114 148 0 11 4 19 8 19 14
0 27 113 20 175 -19 160 -157 284 -337 301 -31 3 -61 7 -68 9 -6 2 -13 2 -15
1z"/>
<path d="M1268 5035 c-2 -1 -46 -5 -98 -8 -52 -3 -108 -9 -125 -12 -16 -3 -54
-10 -82 -16 -29 -6 -55 -10 -58 -9 -3 0 -19 -7 -35 -15 -16 -8 -32 -15 -35
-15 -10 2 -116 -40 -168 -66 -250 -127 -442 -335 -558 -604 -34 -80 -48 -125
-73 -238 -34 -152 -20 -473 23 -544 6 -10 11 -23 11 -30 0 -15 36 -90 64 -133
85 -131 221 -233 377 -284 35 -11 52 -15 114 -27 103 -19 299 -18 395 1 14 3
40 8 59 11 116 19 274 76 314 112 20 18 34 47 41 86 2 12 14 72 27 132 28 136
28 173 0 212 -23 33 -75 54 -114 46 -12 -2 -46 -9 -75 -15 -124 -25 -290 -11
-334 28 -10 9 -18 12 -18 8 0 -23 -72 73 -89 118 -23 63 -26 195 -5 277 50
193 198 340 389 387 48 11 203 9 259 -5 117 -27 181 -12 205 48 10 25 34 118
46 175 8 40 13 60 15 60 1 0 3 9 4 20 2 11 6 34 10 50 20 88 12 128 -30 167
-18 15 -101 44 -156 53 -13 2 -36 7 -53 10 -16 3 -64 8 -105 11 -41 3 -90 7
-107 8 -18 2 -34 2 -35 1z"/>
<path d="M5638 5035 c-1 -1 -48 -5 -103 -9 -106 -6 -139 -10 -241 -31 -52 -11
-180 -58 -229 -83 -74 -39 -157 -105 -208 -164 -95 -111 -139 -230 -142 -381
-4 -192 63 -335 210 -443 46 -35 203 -112 242 -120 7 -1 27 -9 44 -18 18 -9
38 -16 45 -16 12 0 52 -20 102 -51 29 -18 48 -70 43 -115 -3 -30 -61 -71 -116
-81 -98 -19 -295 -3 -410 32 -27 8 -68 21 -90 27 -22 6 -45 15 -50 19 -6 4
-29 10 -52 12 -69 8 -125 -38 -137 -113 -3 -19 -8 -46 -11 -60 -3 -14 -8 -41
-11 -60 -3 -19 -7 -42 -9 -50 -2 -8 -7 -31 -10 -50 -3 -19 -8 -48 -11 -65 -11
-66 43 -128 124 -141 15 -2 38 -7 52 -10 37 -9 136 -24 210 -32 84 -9 463 -8
515 1 22 4 56 10 75 13 226 40 401 127 527 263 45 48 111 157 114 186 0 6 5
16 11 23 6 6 8 12 5 12 -3 0 1 23 8 50 16 60 13 225 -4 290 -30 110 -95 202
-191 267 -47 32 -211 116 -252 128 -51 16 -164 77 -180 98 -41 52 -11 135 57
157 69 23 234 7 385 -36 89 -25 161 -25 190 1 23 20 42 57 45 86 1 9 5 29 10
45 4 16 9 45 11 64 3 19 7 42 9 50 24 84 24 167 0 203 -20 31 -43 43 -102 52
-21 3 -50 8 -63 11 -14 3 -43 7 -65 9 -22 3 -53 7 -70 10 -16 2 -79 7 -140 10
-60 4 -115 8 -122 10 -6 2 -13 2 -15 0z"/>
<path d="M8330 5033 c-97 -5 -258 -26 -310 -40 -30 -8 -64 -16 -75 -18 -11 -1
-21 -4 -22 -5 -2 -1 -6 -3 -10 -5 -5 -1 -21 -7 -38 -14 -16 -6 -50 -19 -75
-29 -48 -17 -161 -84 -196 -114 -11 -10 -23 -18 -27 -18 -8 0 -117 -108 -157
-155 -46 -55 -160 -254 -160 -280 0 -4 -6 -21 -14 -38 -8 -18 -20 -52 -27 -77
-7 -25 -14 -49 -15 -55 -8 -24 -25 -114 -31 -160 -8 -57 -7 -275 1 -320 55
-324 225 -528 529 -631 37 -12 67 -21 67 -19 0 3 11 0 24 -5 13 -5 50 -12 83
-15 32 -4 72 -9 88 -11 45 -6 217 -5 288 1 122 12 290 51 382 90 52 21 175 84
189 96 6 6 26 21 45 34 168 120 315 344 380 578 40 142 50 226 46 392 -5 298
-100 502 -305 652 -89 65 -230 124 -330 139 -19 3 -41 7 -49 10 -8 2 -60 7
-115 10 -56 3 -105 6 -111 7 -5 1 -30 1 -55 0z m66 -609 c68 -36 106 -120 107
-244 1 -58 -12 -183 -22 -218 -5 -18 -10 -36 -11 -40 -16 -106 -119 -258 -201
-295 -82 -37 -184 -25 -241 30 -38 36 -71 117 -70 168 8 257 66 442 173 546
78 76 180 96 265 53z"/>
<path d="M10880 5014 c-30 -8 -62 -16 -71 -18 -27 -7 -142 -57 -186 -81 -105
-59 -201 -133 -278 -213 -34 -36 -66 -57 -52 -34 10 15 28 151 28 204 0 31
-25 72 -57 93 -29 20 -43 21 -341 20 -276 0 -312 -2 -336 -18 -24 -16 -48 -48
-53 -72 -8 -37 -16 -84 -19 -110 -4 -30 -20 -127 -30 -175 -2 -13 -7 -42 -11
-64 -3 -22 -7 -43 -9 -46 -2 -4 -7 -29 -11 -56 -3 -27 -8 -52 -10 -55 -2 -3
-6 -19 -8 -35 -3 -16 -8 -39 -11 -51 -8 -34 -14 -63 -25 -118 -16 -77 -27
-127 -44 -202 -7 -31 -35 -167 -40 -195 -2 -15 -7 -31 -9 -35 -3 -5 -8 -24
-11 -44 -3 -20 -17 -92 -32 -160 -27 -130 -29 -137 -45 -209 -30 -137 -33
-167 -19 -199 7 -17 27 -41 44 -53 30 -22 38 -22 336 -23 389 -1 390 -1 420
155 6 36 14 74 16 85 4 23 12 60 20 95 6 26 21 100 28 135 13 63 58 282 61
295 2 8 13 60 24 115 29 137 47 189 95 268 81 133 202 230 291 232 102 3 147
-73 120 -205 -3 -14 -7 -35 -9 -48 -3 -13 -7 -31 -10 -40 -3 -9 -7 -28 -10
-42 -4 -20 -57 -272 -81 -387 -4 -15 -8 -37 -10 -48 -2 -11 -13 -60 -24 -110
-11 -49 -22 -101 -25 -115 -2 -14 -10 -47 -16 -75 -6 -27 -13 -59 -15 -70 -2
-11 -6 -31 -10 -45 -15 -64 -14 -101 5 -133 36 -61 41 -61 378 -61 286 0 309
1 339 19 32 19 57 65 67 125 2 14 9 45 15 70 5 25 12 59 15 75 3 17 8 39 10
50 7 31 57 267 62 295 3 14 10 45 16 70 5 25 12 59 15 75 2 17 9 48 15 70 5
22 12 51 14 65 5 25 32 161 39 190 42 184 48 228 48 385 0 157 -3 176 -42 260
-50 108 -140 176 -269 204 -71 15 -224 12 -292 -5z"/>
<path d="M2769 4968 c-41 -25 -53 -56 -88 -224 -17 -84 -34 -161 -36 -173 -10
-42 -15 -67 -25 -116 -6 -27 -12 -60 -15 -72 -17 -77 -25 -116 -29 -138 -3
-11 -9 -40 -15 -65 -5 -25 -12 -58 -15 -75 -3 -16 -19 -91 -35 -166 -17 -74
-32 -149 -35 -165 -3 -16 -8 -40 -11 -54 -19 -83 -24 -276 -11 -359 21 -130
101 -243 207 -293 67 -32 97 -38 212 -45 242 -15 485 87 705 294 37 35 68 63
70 63 1 0 0 -12 -3 -27 -3 -16 -8 -69 -11 -119 l-6 -90 35 -37 c23 -25 44 -37
63 -38 141 -6 605 -3 627 4 46 15 76 65 82 137 3 34 8 67 11 71 3 5 0 9 -6 9
-6 0 -9 4 -6 9 7 10 10 35 32 216 3 28 7 61 10 75 2 14 7 41 10 60 3 19 12 65
20 102 7 37 16 82 19 100 3 18 10 49 15 68 5 19 11 46 14 60 12 64 27 136 56
270 17 80 33 154 36 165 3 19 8 43 19 93 3 12 7 30 9 40 3 9 14 64 26 122 11
58 23 114 26 125 14 61 13 92 -3 124 -34 65 -43 67 -378 66 -325 0 -348 -4
-377 -53 -14 -24 -30 -81 -42 -152 -3 -14 -12 -61 -22 -105 -9 -44 -18 -87
-19 -95 -2 -8 -4 -15 -5 -15 -1 0 -3 -11 -5 -25 -2 -14 -20 -101 -40 -195 -21
-93 -39 -179 -41 -190 -2 -11 -6 -36 -10 -55 -3 -19 -10 -43 -15 -52 -5 -10
-8 -18 -5 -18 11 0 -73 -183 -86 -188 -4 -2 -8 -9 -8 -16 0 -19 -110 -130
-152 -154 -51 -29 -116 -40 -164 -29 -31 8 -64 30 -69 47 -13 41 -4 146 20
238 7 28 11 52 8 52 -3 0 0 6 6 13 6 8 9 16 6 19 -3 2 0 20 5 39 6 19 13 49
16 68 7 43 8 48 34 161 12 52 24 106 26 120 2 14 9 45 14 70 6 25 13 56 16 70
7 33 11 52 29 135 9 39 18 81 20 95 3 14 8 36 12 50 17 67 -19 144 -72 157
-16 4 -164 7 -329 8 -265 0 -302 -2 -327 -17z"/>
<path d="M6559 4975 c-18 -6 -41 -22 -51 -36 -15 -20 -43 -125 -62 -232 -2
-15 -7 -35 -10 -45 -3 -9 -7 -28 -10 -42 -2 -14 -9 -45 -15 -70 -5 -25 -13
-61 -16 -80 -3 -19 -8 -43 -11 -52 -5 -17 -11 -43 -20 -93 -3 -16 -18 -88 -34
-160 -16 -71 -31 -143 -33 -160 -3 -16 -9 -48 -15 -70 -6 -22 -13 -57 -16 -79
-4 -21 -8 -42 -11 -46 -3 -5 -7 -21 -9 -37 -2 -15 -13 -73 -25 -128 -12 -55
-31 -140 -41 -190 -11 -49 -21 -101 -24 -115 -2 -14 -9 -44 -15 -66 -15 -56
-16 -115 -3 -139 5 -11 22 -31 36 -44 l26 -25 303 -1 c176 0 316 3 336 9 34
10 73 52 77 83 2 10 12 63 24 118 12 55 23 109 26 120 2 11 6 31 9 45 4 14 8
36 11 50 4 21 72 341 90 421 3 13 7 34 10 47 18 93 22 110 40 197 9 38 17 78
19 88 2 10 6 26 9 35 3 9 8 33 10 52 3 19 10 53 15 75 5 22 12 51 15 65 3 14
14 68 26 120 27 126 27 125 42 205 8 39 14 75 13 80 -1 29 -30 74 -58 90 -30
18 -54 20 -329 20 -191 0 -308 -3 -329 -10z"/>
</g>
</svg>
