<svg xmlns="http://www.w3.org/2000/svg" xmlns:xlink="http://www.w3.org/1999/xlink" width="100%" height="100%" viewBox="0 0 1222 327" fill-rule="evenodd" stroke-linecap="round" stroke-miterlimit="1.5"><style><![CDATA[.B{fill:#1b57a6}.C{font-family:SegoeUIBlack-Italic, Segoe UI, sans-serif}.D{font-weight:900}.E{font-style:italic}.F{font-size:22px}.G{fill:none}.H{stroke-width:16.74}.I{fill-rule:nonzero}.J{fill:#ffb400}.K{stroke:#ffb400}.L{fill:#1d57a6}.M{fill:#fbb409}.N{stroke:#1b57a6}]]></style><path d="M1116.65 2.027l-26.206 32.964 42.095 1.187c-12.5-4.566-20.455-21.64-15.89-34.15z" class="J"/><path d="M1117.77 22.28c33.508-15.59 73.368-1.043 88.958 32.465s1.043 73.368-32.464 88.958-73.37 1.043-88.96-32.465c-4.256-9.15-6.266-18.773-6.257-28.246" class="G H K"/><text x="46.608" y="398.285" transform="translate(1044.08 -183)" class="B C D E F">I<tspan x="53.526 73.645 86.783 92.82 104 124.12 135.303 148.333" y="398.285 398.285 398.285 398.285 398.285 398.285 398.285 398.285">mplemen-</tspan></text><text x="72.378" y="423.585" transform="translate(1044.08 -183)" class="B C D E F">t<tspan x="80.68 86.718 97.9 106.568 117.75" y="423.585 423.585 423.585 423.585 423.585">ieren</tspan></text><g class="I L"><path d="M1166.66 82.782c-5.388.01-9.794 4.396-9.824 9.784s4.326 9.835 9.706 9.906c5.502.074 10.03-4.438 9.982-9.943-.05-5.38-4.475-9.755-9.864-9.747m12.34 12.3l-.964 2.243c-2.396 5.495-8.172 8.587-13.764 7.37-5.846-1.272-9.9-6.22-9.9-12.084s4.07-10.824 9.904-12.08c5.606-1.207 11.38 1.887 13.763 7.378l.96 2.245v4.928zm-39.43 7.5c.054-5.387-4.286-9.853-9.665-9.945-5.393-.093-9.892 4.2-10.022 9.585-.135 5.5 4.313 10.1 9.815 10.105 5.377.014 9.818-4.37 9.872-9.745m-22.16-2.564l.95-2.236c2.3-5.26 7.614-8.32 13.075-7.52 5.517.8 9.9 5.306 10.545 10.816.642 5.5-2.55 10.745-7.836 12.908l-1.95.814h-4.928c-4.978-1.593-8.276-4.865-9.855-9.855v-4.928z"/><path d="M1150.67 53.207l1.647 1.296c2.563 2.263 2.718 5.83.372 8.15-2.183 2.158-5.56 2.157-7.733-.001-2.35-2.336-2.198-5.88.37-8.15.523-.463 1.098-.866 1.65-1.296h3.696zm-13.63 28.447c9.3.907 11.82 7.522 13.983 14.463.487 1.562 1.097 3.085 1.644 4.63.578 1.63.528 3.136-1.32 3.837-1.8.677-2.663-.692-3.314-1.977-1.758-3.47-3.5-6.956-5.06-10.52-.726-1.656-1.767-2.6-3.47-3.095-2.746-.816-5.504-1.65-8.142-2.753-4.48-1.875-5.476-5.32-2.5-9.063 3-3.774 6.275-7.313 9.44-10.947 1.7-1.953 3.647-2.28 6.065-1.238l17.868 7.426c.753.314 1.5.672 2.186 1.107.854.54 1.25 1.36.968 2.377-.296 1.06-1.138 1.452-2.128 1.38-1.113-.08-2.246-.213-3.315-.515l-12.076-3.578c-1.808-.578-3.13-.234-4.352 1.214-1.844 2.2-3.803 4.28-6.465 7.25m.628-18.495c-4.306 4.93-8.6 9.198-11.905 14.26-.685 1.046-1.218.714-1.943.242-2.745-1.785-3.574-5.615-1.6-8.386 3.672-5.18 8.807-6.93 15.458-6.116"/></g><path d="M996.15 130.55l-42.098-1.07 24.403 34.32c-3.89-12.737 4.958-29.362 17.695-33.25z" class="B"/><use xlink:href="#B" class="G H N"/><text x="68.71" y="398.285" transform="translate(910.146 -183)" class="B C D E F">T<tspan x="81.04 92.223 101.934 110.237 121.42" y="398.285 398.285 398.285 398.285 398.285">esten</tspan></text><text x="39.713" y="423.585" transform="translate(910.146 -183)" class="B C D E F">&amp;<tspan x="55.62 60.927 75 88.136 94.173 100.2 113.347 119.383 130.565 139.234 150.416" y="423.585 423.585 423.585 423.585 423.585 423.585 423.585 423.585 423.585 423.585 423.585"> Validieren</tspan></text><path d="M1033 72.92h-1.842c-5.453 0-5.38-.002-5.25 5.345.04 1.606.488 2.137 2.1 2.077l8.9.018c2.264.154 2.687-.73 2.644-2.782-.097-4.656.01-4.658-4.708-4.658H1033zm11.43-.616c-1.968 1.027-2.536 2.666-2.5 4.835l.07 18.774c.03 2.065-.55 2.895-2.77 2.926-7.5.105-7.067-.195-11.953-5.85-4.404-5.095-3.792-10.715-3.77-16.463.025-6.974-.943-6 5.986-6.064l11.697-.006c1.118.001 2.27-.155 3.243.615v1.232zm-44.27 10.302c-2.6-1.766-4.53-3.534-3.8-7 .35-1.7.016-2.794-2.305-2.777-2.258.017-2.907.777-2.598 2.83.4 2.655-.06 4.882-2.997 5.862-.345.116-.73.397-.584 1.086h12.295zm-17.333 2.634c1.358-2.5 2.65-5 5.267-6.55 1.792-1.062.923-3.025.816-4.495-.215-2.96.802-4.227 3.784-3.74.1.016.204.002.306.002 5.723-.007 5.787-.007 5.8 5.6.004 1.52.42 2.434 1.78 3.136 1.377.7 2.355 1.926 3.192 3.247 1.038 1.637 1.113 3.054-.165 4.73-2.48 3.25-4.8 6.63-7.045 10.05-.856 1.304-1.836 1.702-3.302 1.58-5.5-.45-8.577-3.786-10.433-8.623V85.24zm34.753-22.037h-8.182c1.016 4.5.578 8.9.474 13.283-.117 4.958 1.58 10.292-3.06 14.75h13.114c-.404-2.12-2.596-3.188-2.577-5.26.07-7.553-.285-15.112.23-22.772m-4.114 44.2c-4.92.001-9.843-.01-14.764.008-1.263.005-2.537.004-3.263-1.234-.813-1.386-.055-2.533.725-3.662l9.45-13.644c1.4-1.934 1.975-3.88 1.898-6.25-.145-4.507-.076-9.022-.027-13.533.025-2.282.057-4.45-1.82-6.24-1.207-1.15-.573-2.176.947-2.205 4.714-.1 9.434-.117 14.146.02 1.554.045 2.03 1.183.713 2.23-1.6 1.273-1.712 2.88-1.693 4.673.063 6.15-1.237 12.7.48 18.335 1.68 5.52 6.413 10.108 9.807 15.105.402.593.832 1.17 1.2 1.78 1.717 2.76.8 4.554-2.43 4.596l-15.38.02" class="I M"/><path d="M848.83 2.027L822.625 34.99l42.094 1.187c-12.5-4.566-20.454-21.64-15.89-34.15z" class="J"/><use xlink:href="#C" class="G H K"/><text x="833.137" y="215.285" class="B C D E F">P<tspan x="847.048 855.716 868.262 876.566 889.112 897.415 909.306" y="215.285 215.285 215.285 215.285 215.285 215.285 215.285">rototyp</tspan></text><path d="M887.69 76.534L870.05 90.8c-.472.382-.926.778-.992 1.44l-1.006 10.216c8.142-8.012 13.683-17.11 19.64-25.922m-35.486 10.16V85.66l50.11-27.38c2.075-.48 1.505 1.024 1.55 2.066-.188.463-.433.91-.554 1.4l-7.2 28.625c-1.695 6.532-2.92 13.19-5.15 19.58h-1.033L877.525 97.6c-.982-1-1.52-.882-2.372.13-2.268 2.69-4.632 5.298-6.984 7.916-.487.54-.932 1.427-1.86 1-.893-.4-.65-1.31-.58-2.06.33-3.502.516-7.03 1.085-10.493.34-2.062-.51-2.673-2.21-3.208-4.16-1.31-8.387-2.436-12.397-4.192" class="I L"/><path d="M1212.98 306c0-3.863-3.137-7-7-7h-386c-3.864 0-7 3.137-7 7v14c0 3.863 3.136 7 7 7h386c3.863 0 7-3.137 7-7v-14z" class="M"/><text x="834.637" y="319.977" fill="#fff" class="C D E F">R<tspan x="848.903 860.085 876.434 887.616 897.326 903.363 916.5 929.53 934.836 947.597 960.144 973.173 981.95 987.255 998.416 1004.45 1013.2 1024.38" y="319.977 319.977 319.977 319.977 319.977 319.977 319.977 319.977 319.977 319.977 319.977 319.977 319.977 319.977 319.977 319.977 319.977 319.977">eDesign Your Life!</tspan></text><path d="M728.327 130.55l-42.098-1.07 24.403 34.32c-3.89-12.737 4.96-29.362 17.695-33.25z" class="B"/><use xlink:href="#D" class="G H N"/><text x="46.302" y="398.285" transform="translate(642.276 -183)" class="B C D E F">I<tspan x="53.22 66.25 79.28 91.826 103.803 116.94 125.243 131.28 143.826" y="398.285 398.285 398.285 398.285 398.285 398.285 398.285 398.285 398.285">nnovation</tspan></text><text x="37.365" y="423.585" transform="translate(642.276 -183)" class="B C D E F">&amp;<tspan x="53.274 58.58 73.92 85.102 94.812 104.5 117.53 130.668 139.562 147.865 157.576" y="423.585 423.585 423.585 423.585 423.585 423.585 423.585 423.585 423.585 423.585 423.585"> Geschäfts-</tspan></text><text x="67.05" y="448.885" transform="translate(642.276 -183)" class="B C D E F">m<tspan x="87.17 99.716 112.853 124.035 130.072" y="448.885 448.885 448.885 448.885 448.885">odell</tspan></text><g class="I M"><path d="M771.224 84.052c-.074 16.037-13.317 28.765-29.414 28.267-15.722-.488-28.078-14.172-27.197-30.123.86-15.538 14.823-27.66 30.518-26.435 3.923.306 7.64 1.43 11.124 3.293 1.16.62 2.253 1.08.715 2.6-1.303 1.28.116 3.55-1.764 4.98-1.498 1.14-2.327 1.816-4.387.823-12.3-5.926-26.368 2.973-26.396 16.52A18.56 18.56 0 0 0 735.85 101.1a18.52 18.52 0 0 0 20.394-4.323c5.2-5.472 6.565-13.384 3.498-20.275-1.47-3.3-.028-5.67 3.67-6.033.306-.03.724.1.907-.044 3.33-2.816 3.64.494 4.484 2.295 1.672 3.572 2.42 7.384 2.42 11.334M742.97 72.9c.6.058 1.246.033 1.83.195.76.212 1.833.374 2.136.914.487.87-.666 1.336-1.2 1.886l-5.195 5.246c-1.676 1.734-1.967 3.68-.194 5.434 1.78 1.762 3.718 1.407 5.44-.26l5.03-4.976c.62-.582 1.14-1.898 2.106-1.34.593.342.786 1.588.927 2.465.903 5.6-2.934 11.054-8.65 12.38-5.53 1.284-11.244-2.15-12.92-7.767-1.652-5.53 1.322-11.474 6.767-13.456 1.253-.456 2.55-.8 3.915-.72"/><path d="M764.857 57.393c-.576 3.786.795 5.292 4.66 4.564-2.756 2.344-3.88 6.36-8.303 6.095-1.038-.063-1.54.936-2.175 1.567l-14.18 14.12c-.7.7-1.454 2.257-2.702 1.027-1.257-1.238.297-2 .997-2.7L757.3 67.915c.98-.97 1.557-1.924 1.673-3.418.268-3.474 3.826-4.5 5.883-7.104"/></g><path d="M580.83 2.027L554.625 34.99l42.094 1.187c-12.5-4.566-20.454-21.64-15.89-34.15z" class="J"/><use xlink:href="#C" x="-268" class="G H K"/><text x="546.963" y="215.285" class="B C D E F">I<tspan x="553.88 567.018 578.2 589.382 602.412 607.718 616.46 622.498 635.528 648.665 659.847" y="215.285 215.285 215.285 215.285 215.285 215.285 215.285 215.285 215.285 215.285 215.285">deen finden</tspan></text><path d="M611.265 89.58c0-1.23.126-2.476-.024-3.688-.433-3.505.425-6.385 3.423-8.545.77-.554 2.26-1.432 1.053-2.68-1.23-1.27-1.972.294-2.703.974-3 2.8-2.957 2.8-5.96.002-.732-.68-1.474-2.245-2.704-.977-1.214 1.252.3 2.12 1.057 2.674 2.994 2.162 3.708 5.035 3.448 8.548-.25 3.365-.226 6.775.004 10.143.166 2.43-.75 3.13-2.946 2.767-.1-.016-.204-.002-.306-.002-5.302.016-5.437.014-5.38-5.137.033-3.113-2.088-4.786-3.8-6.73-4.427-4.998-5.77-10.733-4.285-17.152 1.73-7.466 8.08-13.047 15.762-13.994 7.52-.927 15.06 3.127 18.585 9.993 3.55 6.916 2.632 14.77-2.872 20.45-2.88 2.97-4.272 6.15-3.712 10.195.26 1.878-.44 2.423-2.356 2.428-6.275.02-6.275.106-6.275-6.192V89.58zm-1.285 11.68c2.148-.001 4.314-.173 6.434.066 1.2.135 3.333-1.312 3.47 1.47.118 2.434.123 5-2.863 5.648-1.54.33-2.407.94-3.35 2.133-1.952 2.473-5.368 2.313-7.455-.114-.624-.728-.858-1.643-2.16-1.884-3.367-.623-4.647-3.026-3.898-6.298.3-1.258 1.104-.996 1.85-1.006l7.974-.014" class="I L"/><path d="M460.327 130.55l-42.098-1.07 24.403 34.32c-3.89-12.737 4.96-29.362 17.695-33.25z" class="B"/><use xlink:href="#D" x="-268" class="G H N"/><text x="430.902" y="215.285" class="B C D E F">S<tspan x="442.74 454.63 467.66 475.963 488.993 500.175 509.886" y="215.285 215.285 215.285 215.285 215.285 215.285 215.285">ynthese</tspan></text><path d="M477.345 60.8l23.063.037c1.3.013 3.3-.845 3.8.958.518 1.872.737 3.958-.976 5.732-5.055 5.234-10.217 10.392-14.902 15.948-2.922 3.464-6.106 4.483-10.545 4.614-5.193.154-8.804-1.356-12.095-5.325-4.3-5.198-9.147-9.963-13.848-14.827-1.25-1.293-1.617-2.644-1.665-4.38-.06-2.197.78-2.818 2.886-2.794l24.292.037m7.36 42.977l.005 11.388c.01 2.276-.896 2.77-2.834 1.592l-10.3-6.157c-1.175-.7-1.7-1.556-1.7-2.978l-.01-15.08c-.04-1.787.56-2.278 2.276-2.22 3.484.117 6.977.104 10.463.005 1.582-.046 2.163.4 2.115 2.064-.1 3.792-.035 7.6-.035 11.387" class="I M"/><path d="M313.01 2.027L286.803 34.99l42.095 1.187c-12.5-4.566-20.454-21.64-15.89-34.15z" class="J"/><path d="M314.123 22.28c33.508-15.59 73.368-1.043 88.958 32.465s1.043 73.368-32.464 88.958-73.37 1.043-88.958-32.465c-4.257-9.15-6.267-18.773-6.258-28.246" class="G H K"/><text x="53.408" y="398.285" transform="translate(240.47 -183)" class="B C D E F">E<tspan x="64.805 84.924 98.062 111.2 119.502 132.532 138.568" y="398.285 398.285 398.285 398.285 398.285 398.285 398.285">mpathie</tspan></text><text x="59.214" y="423.585" transform="translate(240.47 -183)" class="B C D E F">f<tspan x="67.958 80.987 89.763 95.07 115.19 121.226 130.915" y="423.585 423.585 423.585 423.585 423.585 423.585 423.585">ür mich</tspan></text><path d="M372.184 74.754c-.2 7.808-3.025 13.365-7.474 18.192-5.767 6.258-13.237 10.315-19.94 15.365-.875.66-1.46.32-2.165-.213-5.316-4.014-11.126-7.353-16.156-11.76-6.14-5.378-10.7-11.666-10.915-20.202-.173-6.92 2.94-12.134 9.16-15.1 6.248-2.98 12.237-1.992 17.432 2.564 1.42 1.244 2.035 1.186 3.414-.02 5.21-4.553 11.178-5.493 17.437-2.537 6.147 2.903 8.98 8.104 9.207 13.71" class="I L"/><path d="M192.506 130.55l-42.098-1.07 24.403 34.32c-3.89-12.737 4.958-29.362 17.695-33.25z" class="B"/><use xlink:href="#B" x="-803.642" class="G H N"/><text x="58.779" y="398.285" transform="translate(106.535 -183)" class="B C D E F">P<tspan x="72.69 81.358 93.904 107.04 113.078 124.26" y="398.285 398.285 398.285 398.285 398.285 398.285">roblem</tspan></text><text x="52.361" y="423.585" transform="translate(106.535 -183)" class="B C D E F">v<tspan x="64.338 75.52 84.36 94.07 102.374 113.556 126.586 137.768" y="423.585 423.585 423.585 423.585 423.585 423.585 423.585 423.585">erstehen</tspan></text><path d="M211.757 85.34c-.132-1.7-1.005-2.896-2.612-3.414-1.64-.53-3.042.026-4.037 1.403-1.016 1.406-1.057 2.982.113 4.227 1.013 1.08 1.923 2.008 1.675 3.645-.114.757.283 1.46 1.173 1.47s1.304-.684 1.2-1.442c-.222-1.62.528-2.65 1.67-3.645.6-.522.877-1.37.817-2.245m-14.583-14.937c7.44-4.653 14.584-4.5 21.813-.058.608-5.635.16-10.586-4.816-13.844-3.852-2.524-7.908-2.608-11.85-.205-5.24 3.19-5.755 8.25-5.146 14.107m29.374 13.52c.025 9.36-5.017 16.392-12.57 18.962-7.415 2.523-15.648.067-20.424-6.092-4.923-6.35-5.373-14.95-.807-21.506 1.39-1.996 1.897-3.916 1.82-6.236-.08-2.342-.187-4.695.494-7.02 1.87-6.38 7.987-10.55 14.536-9.806 6.412.728 11.518 6.03 11.996 12.478.06.816.085 1.643.033 2.46-.2 3.318.17 6.33 2.392 9.16 1.98 2.523 2.507 5.785 2.53 7.602" class="I M"/><path d="M8.133 29.702L2.3 71.407 39.164 51.05c-13.095 2.42-28.61-8.254-31.03-21.35z" class="J"/><path d="M19.378 46.583c20.947-30.448 62.673-38.16 93.12-17.214s38.16 62.673 17.213 93.12-62.672 38.16-93.12 17.213C22 129.663 12.63 114.852 9.133 98.797" class="G H K"/><text x="73.194" y="398.285" transform="translate(-27.4 -183)" class="B C D E F">T<tspan x="85.525 96.708 109.845" y="398.285 398.285 398.285">eam</tspan></text><text x="59.939" y="423.585" transform="translate(-27.4 -183)" class="B C D E F">&amp;<tspan x="75.848 81.154 95.86 101.896 111.606 117.643 130.19" y="423.585 423.585 423.585 423.585 423.585 423.585 423.585"> Vision</tspan></text><g class="L"><path d="M73.728 104.916l16.914-.017c.878-.005 2.118.46 2.564-.37.56-1.044-.24-2.15-.824-3.112-.886-1.458-2.276-2.352-3.735-3.11l-5.256-2.53c-4.544-2.272-5.487-5.283-3.123-9.736.992-1.872 1.844-3.82 2.798-5.708 1.393-2.755-.284-5.743-.497-8.634-.234-3.178-1.398-6.067-5.31-6.468-.646-.066-1.17-.48-1.416-1.067-.54-1.284-1.515-1.137-2.568-.91-3.003.648-5.777 1.762-7.173 4.715-1.87 3.954-2.14 8.343-1.434 12.446.32 1.858 1.747 4.022 2.866 5.953 2.07 3.575 1.16 7.015-2.43 9.118-2.116 1.24-4.36 2.258-6.53 3.41-1.463.78-2.785 1.764-3.637 3.223-1.034 1.768-1.22 2.915 1.572 2.84 5.736-.154 11.48-.046 17.22-.046M43 99.988c2.02-3.44 5.256-5.206 8.823-6.647 3.478-1.407 4.106-2.88 2.218-6.147-1.968-3.41-2.486-6.98-2.567-10.78-.124-5.834 4.806-10.494 10.588-9.518 1.33.224 1.75-.002 2.362-.934 2.19-3.347 5.537-4.74 9.322-5.276 1.52-.215 2.624.08 3.987 1.358 1.91 1.79 4.912 2.354 6.267 5.013.08.156.63.243.85.134 3.3-1.637 5.47.794 7.87 2.197 2.315 1.355 3.237 3.6 3.327 6.22.138 4.008-.347 7.796-2.39 11.44-2.04 3.638-1.428 4.96 2.498 6.523 3.623 1.443 6.82 3.255 8.442 7.034v2.464c-1.794 1.136-3.786.463-5.685.6-1.54.11-3.386-.503-2.985 2.306.203 1.422-1.17 1.4-2.203 1.4-13.285.005-26.57-.004-39.857.014-1.434.002-2.512-.327-2.242-2.04.285-1.817-.878-1.592-2.027-1.688-2.2-.184-4.494.632-6.597-.593v-3.08z" class="I"/><path d="M806.6 306c0-3.863-3.137-7-7-7h-785c-3.863 0-7 3.137-7 7v14c0 3.863 3.137 7 7 7h785c3.863 0 7-3.137 7-7v-14z"/></g><text x="30" y="319.977" fill="#fff" class="C D E F">D<tspan x="46.35 57.53 67.242 73.278 86.415 99.445 104.75 117.513 130.06 143.09 151.865 157.17 168.33 174.368 183.112 194.294" y="319.977 319.977 319.977 319.977 319.977 319.977 319.977 319.977 319.977 319.977 319.977 319.977 319.977 319.977 319.977 319.977">esign Your Life!</tspan></text><defs ><path id="B" d="M980.65 143.637c32.625 17.362 73.207 4.97 90.57-27.654s4.97-73.207-27.653-90.57-73.208-4.97-90.57 27.653c-5.084 9.554-7.616 19.79-7.837 29.925"/><path id="C" d="M849.945 22.28c33.507-15.59 73.368-1.043 88.958 32.465s1.043 73.368-32.465 88.958-73.368 1.043-88.958-32.465c-4.257-9.15-6.267-18.773-6.257-28.246"/><path id="D" d="M712.83 143.637c32.624 17.362 73.207 4.97 90.57-27.654s4.97-73.207-27.654-90.57-73.207-4.97-90.57 27.653c-5.084 9.554-7.617 19.79-7.837 29.925"/></defs></svg>