<svg xmlns="http://www.w3.org/2000/svg" xmlns:xlink="http://www.w3.org/1999/xlink" width="100%" height="100%" viewBox="0 0 1312 365" fill-rule="evenodd" stroke-linecap="round" stroke-miterlimit="1.5"><style><![CDATA[.B{fill-rule:nonzero}.C{fill:#1b57a6}.D{fill:none}.E{stroke-width:16.74}.F{fill:#ffb400}.G{stroke:#ffb400}.H{fill:#1d57a6}.I{fill:#fbb409}.J{stroke:#1b57a6}]]></style><path d="M1161.65 40.027l-26.206 32.964 42.095 1.187c-12.5-4.566-20.455-21.64-15.89-34.15z" class="F"/><path d="M1162.77 60.28c33.508-15.59 73.368-1.043 88.958 32.465s1.043 73.368-32.464 88.958-73.37 1.043-88.96-32.465c-4.256-9.15-6.266-18.773-6.257-28.246" class="D E G"/><g class="B C"><path d="M1140.638 253.285h-4.642l3.256-15.4h4.642l-3.256 15.4z"/><use xlink:href="#B"/><use xlink:href="#C"/><use xlink:href="#D"/><use xlink:href="#E"/><use xlink:href="#B" x="50.476"/><use xlink:href="#E" x="31.3"/><use xlink:href="#F"/><path d="M1244.497 249.06h-5.874l.66-3.08h5.874l-.66 3.08z"/><use xlink:href="#G"/><use xlink:href="#H"/><use xlink:href="#E" x="-6.102" y="25.3"/><use xlink:href="#I"/><use xlink:href="#E" x="13.748" y="25.3"/><use xlink:href="#F" x="-17.553" y="25.3"/></g><g class="H B"><path d="M1211.66 120.782c-5.388.01-9.794 4.396-9.824 9.784s4.326 9.835 9.706 9.906c5.502.074 10.03-4.438 9.982-9.943-.05-5.38-4.475-9.755-9.864-9.747m12.34 12.3l-.964 2.243c-2.396 5.495-8.172 8.587-13.764 7.37-5.846-1.272-9.9-6.22-9.9-12.084s4.07-10.824 9.904-12.08c5.606-1.207 11.38 1.887 13.763 7.378l.96 2.245v4.928zm-39.43 7.5c.054-5.387-4.286-9.853-9.665-9.945-5.393-.093-9.892 4.2-10.022 9.585-.135 5.5 4.313 10.1 9.815 10.105 5.377.014 9.818-4.37 9.872-9.745m-22.16-2.564l.95-2.236c2.3-5.26 7.614-8.32 13.075-7.52 5.517.8 9.9 5.306 10.545 10.816.642 5.5-2.55 10.745-7.836 12.908l-1.95.814h-4.928c-4.978-1.593-8.276-4.865-9.855-9.855v-4.928z"/><path d="M1195.67 91.207l1.647 1.296c2.563 2.263 2.718 5.83.372 8.15-2.183 2.158-5.56 2.157-7.733-.001-2.35-2.336-2.198-5.88.37-8.15.523-.463 1.098-.866 1.65-1.296h3.696zm-13.63 28.447c9.3.907 11.82 7.522 13.983 14.463.487 1.562 1.097 3.085 1.644 4.63.578 1.63.528 3.136-1.32 3.837-1.8.677-2.663-.692-3.314-1.977-1.758-3.47-3.5-6.956-5.06-10.52-.726-1.656-1.767-2.6-3.47-3.095-2.746-.816-5.504-1.65-8.142-2.753-4.48-1.875-5.476-5.32-2.5-9.063 3-3.774 6.275-7.313 9.44-10.947 1.7-1.953 3.647-2.28 6.065-1.238l17.868 7.426c.753.314 1.5.672 2.186 1.107.854.54 1.25 1.36.968 2.377-.296 1.06-1.138 1.452-2.128 1.38-1.113-.08-2.246-.213-3.315-.515l-12.076-3.578c-1.808-.578-3.13-.234-4.352 1.214-1.844 2.2-3.803 4.28-6.465 7.25m.628-18.495c-4.306 4.93-8.6 9.198-11.905 14.26-.685 1.046-1.218.714-1.943.242-2.745-1.785-3.574-5.615-1.6-8.386 3.672-5.18 8.807-6.93 15.458-6.116"/></g><path d="M1041.15 168.55l-42.098-1.07 24.403 34.32c-3.89-12.737 4.958-29.362 17.695-33.25z" class="C"/><use xlink:href="#J" class="D E J"/><g class="B C"><path d="M1038.816 241.515h-4.356l-2.486 11.77h-4.664l2.486-11.77h-4.312l.77-3.63h13.332l-.77 3.63z"/><use xlink:href="#E" x="-145.713"/><use xlink:href="#K"/><use xlink:href="#G" x="-104.378" y="-25.3"/><use xlink:href="#E" x="-116.517"/><use xlink:href="#F" x="-147.817"/><use xlink:href="#L"/><use xlink:href="#M"/><use xlink:href="#N"/><use xlink:href="#D" x="-132.58" y="25.3"/><use xlink:href="#H" x="-120.44"/><use xlink:href="#O"/><use xlink:href="#H" x="-101.267"/><use xlink:href="#E" x="-107.37" y="25.3"/><use xlink:href="#I" x="-101.269"/><use xlink:href="#E" x="-87.52" y="25.3"/><use xlink:href="#F" x="-118.821" y="25.3"/></g><path d="M1078 110.92h-1.842c-5.453 0-5.38-.002-5.25 5.345.04 1.606.488 2.137 2.1 2.077l8.9.018c2.264.154 2.687-.73 2.644-2.782-.097-4.656.01-4.658-4.708-4.658H1078zm11.43-.616c-1.968 1.027-2.536 2.666-2.5 4.835l.07 18.774c.03 2.065-.55 2.895-2.77 2.926-7.5.105-7.067-.195-11.953-5.85-4.404-5.095-3.792-10.715-3.77-16.463.025-6.974-.943-6 5.986-6.064l11.697-.006c1.118.001 2.27-.155 3.243.615v1.232zm-44.27 10.302c-2.6-1.766-4.53-3.534-3.8-7 .35-1.7.016-2.794-2.305-2.777-2.258.017-2.907.777-2.598 2.83.4 2.655-.06 4.882-2.997 5.862-.345.116-.73.397-.584 1.086h12.295zm-17.333 2.634c1.358-2.5 2.65-5 5.267-6.55 1.792-1.062.923-3.025.816-4.495-.215-2.96.802-4.227 3.784-3.74.1.016.204.002.306.002 5.723-.007 5.787-.007 5.8 5.6.004 1.52.42 2.434 1.78 3.136 1.377.7 2.355 1.926 3.192 3.247 1.038 1.637 1.113 3.054-.165 4.73-2.48 3.25-4.8 6.63-7.045 10.05-.856 1.304-1.836 1.702-3.302 1.58-5.5-.45-8.577-3.786-10.433-8.623v-4.927zm34.753-22.037h-8.182c1.016 4.5.578 8.9.474 13.283-.117 4.958 1.58 10.292-3.06 14.75h13.114c-.404-2.12-2.596-3.188-2.577-5.26.07-7.553-.285-15.112.23-22.772m-4.114 44.2c-4.92.001-9.843-.01-14.764.008-1.263.005-2.537.004-3.263-1.234-.813-1.386-.055-2.533.725-3.662l9.45-13.644c1.4-1.934 1.975-3.88 1.898-6.25-.145-4.507-.076-9.022-.027-13.533.025-2.282.057-4.45-1.82-6.24-1.207-1.15-.573-2.176.947-2.205 4.714-.1 9.434-.117 14.146.02 1.554.045 2.03 1.183.713 2.23-1.6 1.273-1.712 2.88-1.693 4.673.063 6.15-1.237 12.7.48 18.335 1.68 5.52 6.413 10.108 9.807 15.105.402.593.832 1.17 1.2 1.78 1.717 2.76.8 4.554-2.43 4.596l-15.38.02" class="I B"/><path d="M893.83 40.027L867.625 72.99l42.094 1.187c-12.5-4.566-20.454-21.64-15.89-34.15z" class="F"/><use xlink:href="#P" class="D E G"/><g class="B C"><path d="M893.316 242.532c0 1.16-.292 2.192-.876 3.094s-1.394 1.58-2.433 2.03-2.26.677-3.663.677h-2.202l-1.03 4.952h-4.64l3.255-15.404h6.22c1.733 0 3.06.4 3.985 1.198s1.386 1.95 1.386 3.453zm-4.93.322c0-.53-.165-.936-.494-1.22s-.802-.424-1.418-.424h-.816l-.785 3.803h1.3c.666 0 1.202-.203 1.606-.607s.607-.922.607-1.553zm13.136 3.352h-.02c-.358-.18-.75-.268-1.17-.268-.745 0-1.348.214-1.8.644s-.8 1.167-1.048 2.213l-.945 4.5h-4.576l1.493-7.014.688-3.986h4.5l-.28 2.116h.043c.423-.816.88-1.418 1.37-1.804a2.69 2.69 0 0 1 1.713-.58c.272 0 .595.046.967.14l-.924 4.05z"/><path d="M913.49 246.86c0 1.282-.29 2.455-.865 3.518s-1.38 1.86-2.412 2.385-2.24.8-3.63.8c-1.697 0-3.01-.426-3.937-1.28s-1.39-2.048-1.39-3.587c0-.903.165-1.787.494-2.654s.788-1.595 1.375-2.186 1.31-1.044 2.165-1.36 1.835-.472 2.938-.472c1.676 0 2.972.42 3.89 1.262s1.375 2.035 1.375 3.582zm-4.555 0c0-.487-.104-.857-.312-1.11s-.487-.382-.838-.382c-.393 0-.737.152-1.03.457s-.524.723-.693 1.257-.252 1.083-.252 1.648c0 .487.106.854.317 1.102s.496.37.854.37c.587 0 1.06-.315 1.418-.945s.537-1.43.537-2.396z"/><path d="M922.264 245.454h-2.47l-.634 2.986c-.1.466-.15.835-.15 1.107 0 .437.254.655.762.655.43 0 .92-.1 1.472-.3l-.655 3.17c-.337.13-.815.242-1.434.34s-1.177.145-1.67.145c-2.112 0-3.17-1-3.17-2.997 0-.258.05-.64.145-1.15l.822-3.953h-1.665l.763-3.17h1.568l.526-2.535 4.77-1.096-.763 3.63h2.546l-.763 3.17zm12.074 1.406c0 1.282-.288 2.455-.865 3.518s-1.38 1.86-2.4 2.385-2.242.8-3.63.8c-1.697 0-3-.426-3.937-1.28s-1.4-2.048-1.4-3.587a7.4 7.4 0 0 1 .494-2.654c.33-.866.788-1.595 1.375-2.186s1.3-1.044 2.164-1.36 1.836-.472 2.938-.472c1.676 0 2.972.42 3.9 1.262s1.375 2.035 1.375 3.582zm-4.555 0c0-.487-.103-.857-.3-1.1s-.487-.382-.838-.382a1.38 1.38 0 0 0-1.03.457c-.292.305-.525.723-.693 1.257a5.46 5.46 0 0 0-.253 1.648c0 .487.106.854.317 1.102s.496.37.854.37c.588 0 1.06-.315 1.418-.945s.537-1.43.537-2.396z"/><path d="M943.114 245.454h-2.47L940 248.44c-.1.466-.15.835-.15 1.107 0 .437.254.655.763.655.43 0 .92-.1 1.47-.3l-.655 3.17c-.336.13-.814.242-1.434.34s-1.176.145-1.67.145c-2.113 0-3.17-1-3.17-2.997 0-.258.048-.64.145-1.15l.822-3.953h-1.665l.762-3.17h1.57l.526-2.535 4.77-1.096-.762 3.63h2.546l-.763 3.17z"/><path d="M943.2 258.452c-.96 0-1.805-.147-2.535-.44l.75-3.363c.373.308.863.462 1.472.462.86 0 1.497-.343 1.912-1.03l.548-.902-2.245-10.893h4.802l.44 5.307.065 1.58-.022.42h.043l.392-1.058 2.648-6.247h4.705l-6.38 11.312c-.76 1.34-1.443 2.325-2.05 2.96a6.11 6.11 0 0 1-2.015 1.423c-.735.315-1.577.473-2.53.473zm24.47-12.45c0 1.482-.312 2.805-.935 3.97s-1.495 2.052-2.615 2.664-2.423.92-3.905.92a18.04 18.04 0 0 1-.731-.033l-.633-.064-1.075 4.888h-4.597l2.6-12.193.44-2.245.226-1.622h4.393c-.036.602-.114 1.253-.236 1.955h.043c1-1.482 2.277-2.223 3.802-2.223.974 0 1.757.368 2.348 1.106s.886 1.697.886 2.88zm-4.555.7c0-.895-.344-1.343-1.03-1.343-.466 0-.9.288-1.3.865s-.73 1.416-.988 2.52l-.42 1.826c.258.043.487.065.687.065.853 0 1.574-.384 2.165-1.15s.886-1.694.886-2.782z"/></g><path d="M932.69 114.534L915.05 128.8c-.472.382-.926.778-.992 1.44l-1.006 10.216c8.142-8.012 13.683-17.11 19.64-25.922m-35.486 10.16v-1.033l50.11-27.38c2.075-.48 1.505 1.024 1.55 2.066-.188.463-.433.91-.554 1.4l-7.2 28.625c-1.695 6.532-2.92 13.19-5.15 19.58h-1.033l-12.393-12.35c-.982-1-1.52-.882-2.372.13-2.268 2.69-4.632 5.298-6.984 7.916-.487.54-.932 1.427-1.86 1-.893-.4-.65-1.31-.58-2.06.33-3.502.516-7.03 1.085-10.493.34-2.062-.51-2.673-2.21-3.208-4.16-1.31-8.387-2.436-12.397-4.192" class="B H"/><path d="M1257.98 344c0-3.863-3.137-7-7-7h-386c-3.864 0-7 3.137-7 7v14c0 3.863 3.136 7 7 7h386c3.863 0 7-3.137 7-7v-14z" class="I"/><g fill="#fff" class="B"><path d="M894.687 346.558a4.15 4.15 0 0 1-1.208 2.997c-.806.83-1.878 1.364-3.218 1.6v.043c1.125.415 1.837 1.332 2.138 2.75l.86 4.028h-4.93l-.57-3.427c-.115-.644-.325-1.137-.63-1.477s-.75-.5-1.337-.5h-.043l-1.14 5.414h-4.64l3.255-15.404h6.048c1.705 0 3.033.347 3.986 1.042s1.428 1.676 1.428 2.943zm-4.952.86c0-.515-.14-.916-.424-1.203s-.707-.43-1.273-.43h-.827l-.795 3.523h1.03c.695 0 1.25-.183 1.665-.548a1.72 1.72 0 0 0 .623-1.343zm16.155 2.578c0 1.26-.578 2.198-1.735 2.814s-2.938.96-5.344 1.03v.086a1.1 1.1 0 0 0 .526.972c.35.233.82.35 1.407.35.523 0 1.152-.1 1.886-.27s1.337-.4 1.8-.634l-.634 2.997c-.56.265-1.237.482-2.036.65s-1.595.253-2.4.253c-1.54 0-2.75-.4-3.63-1.225s-1.32-1.934-1.32-3.352c0-1.3.302-2.477.908-3.566a6.32 6.32 0 0 1 2.503-2.514c1.063-.588 2.3-.88 3.68-.88s2.465.283 3.228.85 1.144 1.38 1.144 2.44zm-4.222-.022a.7.7 0 0 0-.145-.43c-.097-.128-.267-.193-.5-.193a1.65 1.65 0 0 0-1.24.548c-.346.365-.582.88-.703 1.547.8 0 1.444-.122 1.906-.365s.693-.613.693-1.107zm20.185-1.15c0 1.826-.38 3.444-1.144 4.855s-1.833 2.48-3.212 3.207-3 1.1-4.893 1.1h-7.186l3.255-15.404h6.133c2.32 0 4.075.548 5.264 1.643s1.783 2.632 1.783 4.6zm-4.93.354c0-.995-.262-1.74-.785-2.234s-1.325-.74-2.406-.74h-1.192l-1.708 8.142h1.557c1.418 0 2.528-.464 3.33-1.4s1.204-2.186 1.204-3.776zm16.5.817c0 1.26-.578 2.198-1.735 2.814s-2.938.96-5.344 1.03v.086a1.1 1.1 0 0 0 .526.972c.35.233.82.35 1.408.35.522 0 1.15-.1 1.885-.27s1.337-.4 1.8-.634l-.634 2.997c-.56.265-1.237.482-2.036.65s-1.595.253-2.4.253c-1.54 0-2.75-.4-3.63-1.225s-1.32-1.934-1.32-3.352c0-1.3.303-2.477.908-3.566s1.44-1.926 2.503-2.514 2.3-.88 3.68-.88 2.465.283 3.228.85 1.144 1.38 1.144 2.44zm-4.222-.022a.7.7 0 0 0-.145-.43c-.096-.128-.266-.193-.5-.193-.48 0-.893.183-1.24.548s-.582.88-.703 1.547c.8 0 1.445-.122 1.906-.365s.693-.613.693-1.107zm13 .258c-.373-.158-.83-.306-1.37-.446s-1.03-.2-1.466-.2c-.66 0-1 .204-1 .612a.54.54 0 0 0 .247.49c.164.105.384.213.656.327.852.344 1.46.654 1.82.93s.628.6.8.977.258.847.258 1.413a3.28 3.28 0 0 1-.677 2.046c-.45.6-1.107 1.05-1.966 1.38s-1.9.495-3.126.495c-.723 0-1.423-.052-2.1-.156s-1.25-.23-1.724-.382l.6-3.158c1.274.58 2.406.87 3.394.87.895 0 1.343-.232 1.343-.698 0-.208-.098-.378-.295-.5s-.446-.25-.747-.35c-1.074-.35-1.83-.784-2.267-1.3s-.655-1.182-.655-1.998a3.32 3.32 0 0 1 .682-2.052c.455-.6 1.082-1.053 1.88-1.353s1.742-.452 2.83-.452c.515 0 1.128.05 1.837.145l1.632.296-.6 3.083z"/><use xlink:href="#Q"/><path d="M951.768 363.144a9.75 9.75 0 0 1-3.695-.741l.752-3.48a6.24 6.24 0 0 0 1.622.779c.58.183 1.13.274 1.654.274 1.024 0 1.812-.243 2.363-.73s.93-1.225 1.14-2.213l.172-.838h-.043c-.43.666-.943 1.174-1.54 1.525s-1.245.527-1.94.527c-1.046 0-1.868-.373-2.466-1.118s-.897-1.75-.897-3.018c0-1.468.33-2.78.994-3.932s1.574-2.02 2.734-2.6 2.506-.87 4.04-.87a23.11 23.11 0 0 1 2.75.178c.98.118 1.92.28 2.814.488l-1.87 8.84c-.372 1.762-.9 3.12-1.584 4.077s-1.595 1.67-2.734 2.143-2.56.7-4.265.7zm5.414-13.46c-.172-.043-.42-.064-.74-.064-.544 0-1.046.177-1.504.53s-.822.842-1.1 1.46a4.87 4.87 0 0 0-.403 1.961c0 .43.093.757.28.983a.86.86 0 0 0 .688.338c.494 0 .947-.288 1.36-.865s.743-1.416.993-2.52l.42-1.826zm17.563-.268c0 .5-.082 1.124-.247 1.87l-1.407 6.692h-4.576l1.3-6.1c.12-.487.182-.856.182-1.106 0-.48-.243-.72-.73-.72-.387 0-.806.256-1.257.768a3.8 3.8 0 0 0-.88 1.735l-1.117 5.414h-4.62l1.557-7.305.645-3.695h4.5c-.05.86-.122 1.5-.215 1.9h.043a6.74 6.74 0 0 1 2.025-1.579c.763-.387 1.48-.58 2.154-.58 1.76 0 2.642.903 2.642 2.708zm13.298 8.56h-4.662l1.117-5.285-2.6-10.12h5.038l.634 4.844c.072.552.108 1.096.108 1.633h.043l.644-1.547 2.632-4.93h5.2l-7.047 10.054-1.117 5.35zm17.327-6.424c0 1.282-.3 2.455-.865 3.518s-1.38 1.86-2.412 2.385-2.24.8-3.63.8c-1.697 0-3-.427-3.937-1.28s-1.4-2.048-1.4-3.588a7.42 7.42 0 0 1 .494-2.653c.33-.866.788-1.595 1.375-2.186s1.3-1.044 2.165-1.36 1.835-.473 2.938-.473c1.676 0 2.972.42 3.9 1.263s1.375 2.035 1.375 3.582zm-4.555 0c0-.487-.104-.857-.312-1.112s-.487-.38-.837-.38c-.394 0-.738.152-1.032.457s-.524.723-.693 1.256a5.43 5.43 0 0 0-.252 1.65c0 .487.106.854.317 1.1s.496.37.854.37c.587 0 1.06-.315 1.418-.945s.537-1.43.537-2.396zm16.145 6.424h-4.64l.172-1.805h-.043c-.644.695-1.325 1.214-2.04 1.558s-1.428.516-2.137.516c-1.8 0-2.686-.903-2.686-2.707 0-.538.08-1.16.236-1.87l1.418-6.692h4.576l-1.278 5.962c-.122.487-.182.892-.182 1.214a.54.54 0 0 0 .155.381c.104.1.267.167.5.167.523 0 .996-.267 1.418-.8s.713-1.2.87-1.97l1.03-4.952h4.577l-1.472 6.907a22.16 22.16 0 0 0-.333 2.138l-.13 1.955zm10.7-7.08h-.022a2.58 2.58 0 0 0-1.17-.269c-.745 0-1.35.215-1.8.645s-.8 1.167-1.048 2.213l-.945 4.5h-4.576l1.493-7.015.687-3.985h4.5l-.28 2.116h.043c.423-.816.88-1.418 1.37-1.804s1.06-.58 1.713-.58c.272 0 .594.047.967.14l-.924 4.05zm14.88 7.08h-9.937l3.255-15.404h4.64l-2.482 11.773h5.296l-.773 3.63zm8.47-14.083c0 .68-.25 1.232-.747 1.654s-1.15.634-1.96.634c-.716 0-1.3-.188-1.75-.564s-.677-.847-.677-1.412a2.08 2.08 0 0 1 .752-1.67c.502-.425 1.16-.64 1.976-.64.702 0 1.28.184 1.73.553a1.78 1.78 0 0 1 .677 1.445zm-3.126 14.083h-4.576l2.33-11h4.576l-2.33 11zm12.626-12.87c-.595-.222-1.057-.333-1.386-.333-.938 0-1.5.483-1.72 1.45l-.15.752h2.578l-.666 3.17h-2.6l-2.47 11.483h-4.533l2.428-11.483h-1.88l.666-3.17h1.87l.27-1.17c.644-2.915 2.57-4.372 5.78-4.372.938 0 1.776.1 2.514.333l-.7 3.34z"/><path d="M1070.18 349.996c0 1.26-.58 2.198-1.735 2.814s-2.938.96-5.345 1.03v.086a1.1 1.1 0 0 0 .527.972c.35.233.82.35 1.407.35.523 0 1.15-.1 1.885-.27s1.338-.4 1.8-.634l-.633 2.997c-.56.265-1.238.482-2.036.65a11.6 11.6 0 0 1-2.4.253c-1.54 0-2.75-.4-3.63-1.225s-1.32-1.934-1.32-3.352c0-1.3.302-2.477.907-3.566s1.44-1.926 2.503-2.514 2.3-.88 3.68-.88 2.466.283 3.228.85 1.145 1.38 1.145 2.44zm-4.222-.022a.7.7 0 0 0-.145-.43c-.097-.128-.267-.193-.5-.193a1.65 1.65 0 0 0-1.24.548c-.346.365-.582.88-.704 1.547.8 0 1.445-.122 1.907-.365s.693-.613.693-1.107zm8.922 2.816h-3.673l1.6-10.216h4.823l-2.75 10.216zm.15 3.168c0 .695-.25 1.25-.747 1.666s-1.15.623-1.96.623c-.7 0-1.3-.185-1.74-.554a1.76 1.76 0 0 1-.676-1.434c0-.687.25-1.244.752-1.67s1.16-.64 1.976-.64c.716 0 1.295.2 1.735.57a1.82 1.82 0 0 1 .66 1.44z"/></g><path d="M773.327 168.55l-42.098-1.07 24.403 34.32c-3.89-12.737 4.96-29.362 17.695-33.25z" class="C"/><use xlink:href="#R" class="D E J"/><g class="B C"><path d="M738.528 253.285h-4.642l3.256-15.4h4.642l-3.256 15.4z"/><use xlink:href="#F" x="-483.887"/><use xlink:href="#F" x="-470.857"/><use xlink:href="#S"/><path d="M786.978 253.285H781.4l-1.276-11h4.554l.154 7.04c0 .44-.022.814-.066 1.144h.066l.352-1.034.418-1.078 2.486-6.072h4.972l-6.072 11z"/><use xlink:href="#N" x="-239.067" y="-25.3"/><use xlink:href="#G" x="-357.242" y="-25.3"/><use xlink:href="#H" x="-357.24" y="-25.3"/><use xlink:href="#S" x="52.001"/><use xlink:href="#F" x="-393.281"/><use xlink:href="#L" x="-270.22"/><path d="M760.794 267.695c-.528-.308-1.122-.55-1.826-.748-.682-.176-1.342-.264-1.98-.264-1.628 0-2.904.462-3.828 1.386s-1.386 2.222-1.386 3.85c0 1.034.264 1.826.77 2.398.506.55 1.232.836 2.156.836.33 0 .638-.044.968-.1l.484-2.244h-2.838l.748-3.52h7.48l-1.76 8.294c-1.76.858-3.674 1.276-5.764 1.276-2.266 0-4.026-.594-5.28-1.782-1.276-1.2-1.892-2.904-1.892-5.082 0-1.738.418-3.3 1.276-4.708.836-1.386 2.024-2.464 3.564-3.234 1.518-.748 3.322-1.122 5.4-1.122 1.43 0 2.97.264 4.62.77l-.902 4.004z"/><use xlink:href="#E" x="-420.704" y="25.3"/><use xlink:href="#K" x="-274.99" y="25.3"/><use xlink:href="#T"/><use xlink:href="#U"/><path d="M816.82 278.585h-4.532c0-.22.044-.88.154-1.958h-.044c-1.078 1.496-2.3 2.222-3.674 2.222-1.078 0-1.914-.374-2.508-1.122s-.88-1.804-.88-3.168a7.4 7.4 0 0 1 .572-2.882c.374-.946.88-1.738 1.54-2.354.66-.638 1.474-1.122 2.442-1.474s2.1-.528 3.344-.528c1.716 0 3.542.22 5.434.66l-1.43 6.732-.286 1.936-.132 1.936zm-3.2-8.294c-.176-.044-.396-.066-.66-.066-.572 0-1.078.176-1.54.506s-.836.814-1.122 1.474-.418 1.32-.418 1.98c0 .418.088.748.286.968.176.242.418.352.682.352.506 0 .968-.286 1.386-.88.396-.572.726-1.408.968-2.508l.418-1.826zm4.312-5.764a1.62 1.62 0 0 1-.572 1.276c-.374.33-.858.484-1.496.484-.594 0-1.1-.176-1.496-.506a1.61 1.61 0 0 1-.572-1.254c0-.506.176-.924.572-1.232.374-.33.88-.484 1.496-.484s1.122.154 1.496.484c.374.308.572.726.572 1.232zm-5.4 0c0 .506-.176.924-.55 1.254s-.88.506-1.518.506c-.616 0-1.1-.176-1.496-.506-.374-.352-.572-.77-.572-1.254 0-.506.198-.924.572-1.232.374-.33.88-.484 1.496-.484s1.122.154 1.496.462c.374.33.572.726.572 1.254zm16.456 1.188c-.594-.22-1.056-.33-1.386-.33-.946 0-1.518.484-1.716 1.452l-.154.748h2.574l-.66 3.168h-2.596l-2.464 11.484h-4.532l2.42-11.484h-1.87l.66-3.168h1.87l.264-1.166c.66-2.926 2.574-4.378 5.786-4.378.946 0 1.782.1 2.508.33l-.704 3.344z"/><path d="M835.836 270.753h-2.464l-.638 2.992-.154 1.1c0 .44.264.66.77.66.418 0 .924-.1 1.474-.308l-.66 3.168c-.33.132-.814.242-1.43.352-.616.088-1.188.132-1.672.132-2.112 0-3.168-1-3.168-2.992 0-.264.044-.638.132-1.144l.836-3.96H827.2l.77-3.168h1.562l.528-2.53 4.774-1.1-.77 3.63h2.552l-.77 3.168z"/><use xlink:href="#K" x="-212.227" y="25.3"/><path d="M851.936 274.36h-5.874l.66-3.08h5.874l-.66 3.08z"/><use xlink:href="#B" x="-388.28" y="50.6"/><use xlink:href="#S" x="7.891" y="50.6"/><use xlink:href="#O" x="-268.364" y="25.3"/><use xlink:href="#E" x="-381.77" y="50.6"/><path d="M815.777 303.885H811.2l3.454-16.28h4.576l-3.454 16.28z"/><use xlink:href="#D" x="-358.514" y="50.6"/></g><g class="I B"><path d="M816.224 122.052c-.074 16.037-13.317 28.765-29.414 28.267-15.722-.488-28.078-14.172-27.197-30.123.86-15.538 14.823-27.66 30.518-26.435 3.923.306 7.64 1.43 11.124 3.293 1.16.62 2.253 1.08.715 2.6-1.303 1.28.116 3.55-1.764 4.98-1.498 1.14-2.327 1.816-4.387.823-12.3-5.926-26.368 2.973-26.396 16.52A18.56 18.56 0 0 0 780.85 139.1a18.52 18.52 0 0 0 20.394-4.323c5.2-5.472 6.565-13.384 3.498-20.275-1.47-3.3-.028-5.67 3.67-6.033.306-.03.724.1.907-.044 3.33-2.816 3.64.494 4.484 2.295 1.672 3.572 2.42 7.384 2.42 11.334M787.97 110.9c.6.058 1.246.033 1.83.195.76.212 1.833.374 2.136.914.487.87-.666 1.336-1.2 1.886l-5.195 5.246c-1.676 1.734-1.967 3.68-.194 5.434 1.78 1.762 3.718 1.407 5.44-.26l5.03-4.976c.62-.582 1.14-1.898 2.106-1.34.593.342.786 1.588.927 2.465.903 5.6-2.934 11.054-8.65 12.38-5.53 1.284-11.244-2.15-12.92-7.767-1.652-5.53 1.322-11.474 6.767-13.456 1.253-.456 2.55-.8 3.915-.72"/><path d="M809.857 95.393c-.576 3.786.795 5.292 4.66 4.564-2.756 2.344-3.88 6.36-8.303 6.095-1.038-.063-1.54.936-2.175 1.567l-14.18 14.12c-.7.7-1.454 2.257-2.702 1.027-1.257-1.238.297-2 .997-2.7l14.147-14.153c.98-.97 1.557-1.924 1.673-3.418.268-3.474 3.826-4.5 5.883-7.104"/></g><path d="M625.83 40.027L599.625 72.99l42.094 1.187c-12.5-4.566-20.454-21.64-15.89-34.15z" class="F"/><use xlink:href="#P" x="-268" class="D E G"/><g class="B C"><path d="M596.915 253.285h-4.64l3.255-15.404h4.64l-3.255 15.404zm13.985 0h-4.533c0-.23.054-.88.16-1.955h-.043c-1.067 1.483-2.292 2.224-3.674 2.224-1.067 0-1.9-.373-2.497-1.117s-.897-1.784-.897-3.116c0-1.425.317-2.694.95-3.808s1.526-1.975 2.675-2.583 2.433-.913 3.85-.913l.747.032.64.064 1.107-5.113h4.554l-2.62 12.418c-.114.508-.213 1.153-.295 1.934l-.124 1.933zm-3.2-8.293c-.258-.043-.484-.064-.677-.064-.573 0-1.085.164-1.536.494s-.818.83-1.1 1.498-.425 1.323-.425 1.96c0 .43.097.757.3.983a.89.89 0 0 0 .698.338c.494 0 .943-.288 1.348-.865s.732-1.416.983-2.52l.42-1.826zm16.306.312c0 1.26-.578 2.198-1.735 2.814s-2.938.96-5.344 1.03v.086c0 .416.175.74.526.973s.82.35 1.407.35c.523 0 1.152-.1 1.886-.27s1.337-.4 1.8-.634l-.634 2.997c-.56.265-1.237.482-2.036.65a11.51 11.51 0 0 1-2.39.253c-1.54 0-2.75-.408-3.63-1.225s-1.32-1.933-1.32-3.35a7.22 7.22 0 0 1 .908-3.567 6.32 6.32 0 0 1 2.503-2.514c1.063-.588 2.3-.88 3.68-.88s2.465.282 3.228.848 1.144 1.38 1.144 2.44zm-4.222-.022a.7.7 0 0 0-.145-.43c-.097-.13-.267-.194-.5-.194-.48 0-.893.183-1.24.548s-.582.88-.703 1.547c.8 0 1.444-.122 1.906-.365s.693-.613.693-1.107zm15.404.022c0 1.26-.578 2.198-1.735 2.814s-2.938.96-5.344 1.03v.086c0 .416.175.74.526.973s.82.35 1.408.35c.522 0 1.15-.1 1.885-.27s1.337-.4 1.8-.634l-.634 2.997c-.56.265-1.237.482-2.036.65a11.51 11.51 0 0 1-2.39.253c-1.54 0-2.75-.408-3.63-1.225s-1.32-1.933-1.32-3.35a7.22 7.22 0 0 1 .908-3.567 6.32 6.32 0 0 1 2.503-2.514c1.063-.588 2.3-.88 3.68-.88s2.465.282 3.228.848 1.144 1.38 1.144 2.44zm-4.222-.022a.7.7 0 0 0-.145-.43c-.097-.13-.266-.194-.5-.194-.48 0-.893.183-1.24.548s-.582.88-.703 1.547c.8 0 1.445-.122 1.906-.365s.693-.613.693-1.107zm16.66-.558c0 .5-.082 1.124-.247 1.87l-1.407 6.692h-4.577l1.3-6.1c.122-.487.183-.855.183-1.106 0-.48-.244-.72-.73-.72-.386 0-.805.256-1.256.768a3.76 3.76 0 0 0-.881 1.735l-1.117 5.414h-4.62l1.558-7.305.645-3.695h4.5c-.05.86-.122 1.5-.215 1.9h.043a6.74 6.74 0 0 1 2.025-1.579c.762-.387 1.48-.58 2.153-.58 1.762 0 2.643.902 2.643 2.707zm16.133-4.308c-.595-.222-1.057-.333-1.386-.333-.938 0-1.5.483-1.72 1.45l-.15.752h2.578l-.666 3.17h-2.6l-2.47 11.484h-4.533l2.428-11.484h-1.88l.666-3.17h1.87l.27-1.17c.644-2.914 2.57-4.372 5.78-4.372.938 0 1.776.1 2.514.333l-.7 3.34z"/><path d="M669.056 239.202c0 .68-.25 1.232-.746 1.654s-1.152.634-1.96.634c-.716 0-1.3-.188-1.75-.564s-.677-.847-.677-1.412a2.08 2.08 0 0 1 .752-1.67c.502-.425 1.16-.64 1.977-.64.702 0 1.278.185 1.73.553s.677.85.677 1.445zm-3.126 14.083h-4.576l2.33-11h4.576l-2.33 11zm14.813-8.56c0 .5-.082 1.124-.247 1.87l-1.407 6.692h-4.576l1.3-6.1c.122-.487.183-.855.183-1.106 0-.48-.243-.72-.73-.72-.387 0-.806.256-1.257.768a3.77 3.77 0 0 0-.881 1.735L672 253.285h-4.62l1.557-7.305.645-3.695h4.5c-.05.86-.122 1.5-.215 1.9h.043a6.74 6.74 0 0 1 2.025-1.579c.762-.387 1.48-.58 2.154-.58 1.76 0 2.642.902 2.642 2.707zm11.795 8.56h-4.534c0-.23.054-.88.16-1.955h-.043c-1.067 1.483-2.3 2.224-3.673 2.224-1.067 0-1.9-.373-2.498-1.117s-.897-1.784-.897-3.116c0-1.425.317-2.694.95-3.808a6.52 6.52 0 0 1 2.675-2.583c1.15-.6 2.433-.913 3.85-.913l.746.032.64.064L691.02 237h4.555l-2.622 12.418c-.114.508-.213 1.153-.295 1.934l-.123 1.933zm-3.2-8.293c-.258-.043-.483-.064-.677-.064-.573 0-1.085.164-1.536.494s-.818.83-1.1 1.498-.424 1.323-.424 1.96c0 .43.097.757.3.983a.89.89 0 0 0 .698.338c.494 0 .944-.288 1.348-.865s.733-1.416.983-2.52l.42-1.826zm16.305.312c0 1.26-.578 2.198-1.735 2.814s-2.938.96-5.344 1.03v.086c0 .416.176.74.527.973s.82.35 1.407.35c.523 0 1.15-.1 1.885-.27s1.337-.4 1.8-.634l-.634 2.997c-.558.265-1.237.482-2.035.65s-1.596.253-2.4.253c-1.54 0-2.75-.408-3.63-1.225s-1.322-1.933-1.322-3.35a7.22 7.22 0 0 1 .908-3.567 6.32 6.32 0 0 1 2.503-2.514c1.063-.588 2.3-.88 3.68-.88s2.466.282 3.228.848 1.144 1.38 1.144 2.44zm-4.22-.022a.7.7 0 0 0-.145-.429c-.097-.13-.267-.194-.5-.194-.48 0-.893.183-1.24.548s-.582.88-.704 1.547c.8 0 1.445-.122 1.907-.365s.693-.613.693-1.107zm16.66-.558c0 .5-.082 1.124-.247 1.87l-1.407 6.692h-4.576l1.3-6.1c.12-.487.182-.855.182-1.106 0-.48-.243-.72-.73-.72-.387 0-.806.256-1.257.768a3.77 3.77 0 0 0-.881 1.735l-1.117 5.414h-4.62l1.557-7.305.645-3.695h4.5c-.05.86-.122 1.5-.215 1.9h.043a6.74 6.74 0 0 1 2.025-1.579c.762-.387 1.48-.58 2.154-.58 1.76 0 2.642.902 2.642 2.707z"/></g><path d="M656.265 127.58c0-1.23.126-2.476-.024-3.688-.433-3.505.425-6.385 3.423-8.545.77-.554 2.26-1.432 1.053-2.68-1.23-1.27-1.972.294-2.703.974-3 2.8-2.957 2.8-5.96.002-.732-.68-1.474-2.245-2.704-.977-1.214 1.252.3 2.12 1.057 2.674 2.994 2.162 3.708 5.035 3.448 8.548-.25 3.365-.226 6.775.004 10.143.166 2.43-.75 3.13-2.946 2.767-.1-.016-.204-.002-.306-.002-5.302.016-5.437.014-5.38-5.137.033-3.113-2.088-4.786-3.8-6.73-4.427-4.998-5.77-10.733-4.285-17.152 1.73-7.466 8.08-13.047 15.762-13.994 7.52-.927 15.06 3.127 18.585 9.993 3.55 6.916 2.632 14.77-2.872 20.45-2.88 2.97-4.272 6.15-3.712 10.195.26 1.878-.44 2.423-2.356 2.428-6.275.02-6.275.106-6.275-6.192v-3.076zm-1.285 11.68c2.148-.001 4.314-.173 6.434.066 1.2.135 3.333-1.312 3.47 1.47.118 2.434.123 5-2.863 5.648-1.54.33-2.407.94-3.35 2.133-1.952 2.473-5.368 2.313-7.455-.114-.624-.728-.858-1.643-2.16-1.884-3.367-.623-4.647-3.026-3.898-6.298.3-1.258 1.104-.996 1.85-1.006l7.974-.014" class="H B"/><path d="M505.327 168.55l-42.098-1.07 24.403 34.32c-3.89-12.737 4.96-29.362 17.695-33.25z" class="C"/><use xlink:href="#R" x="-268" class="D E J"/><g class="B C"><path d="M488.073 242.22c-.76-.423-1.44-.72-2.04-.892a6.58 6.58 0 0 0-1.816-.258c-.487 0-.872.104-1.155.312s-.424.48-.424.816a1.12 1.12 0 0 0 .344.817c.23.23.723.55 1.482.966 1.218.645 2.068 1.3 2.552 1.993s.725 1.552.725 2.605a4.48 4.48 0 0 1-.833 2.664c-.555.78-1.32 1.36-2.3 1.74s-2.136.57-3.475.57c-.974 0-1.885-.1-2.734-.328s-1.6-.5-2.23-.843l.806-3.803c1.368 1 2.754 1.515 4.157 1.515 1.117 0 1.676-.398 1.676-1.193a1.14 1.14 0 0 0-.414-.897c-.275-.24-.76-.517-1.455-.832-1.16-.544-2-1.155-2.487-1.832s-.747-1.54-.747-2.594c0-.995.273-1.896.817-2.702s1.3-1.4 2.234-1.815 2.04-.607 3.287-.607c1 0 1.875.1 2.66.27a16.8 16.8 0 0 1 2.132.612l-.762 3.717zm.44 16.232c-.96 0-1.805-.147-2.536-.44l.752-3.363c.373.308.863.462 1.472.462.86 0 1.497-.343 1.912-1.03l.548-.902-2.245-10.893h4.802l.44 5.307.065 1.58-.022.42h.043l.392-1.058 2.648-6.247h4.705l-6.38 11.312c-.76 1.34-1.443 2.325-2.05 2.96a6.11 6.11 0 0 1-2.015 1.423c-.735.315-1.577.473-2.53.473zm24.362-13.728c0 .5-.082 1.124-.247 1.87l-1.407 6.692h-4.576l1.3-6.1c.12-.487.182-.855.182-1.106 0-.48-.243-.72-.73-.72-.387 0-.806.256-1.257.768a3.77 3.77 0 0 0-.881 1.735l-1.117 5.414h-4.62l1.557-7.305.645-3.695h4.5c-.05.86-.122 1.5-.215 1.9h.043a6.74 6.74 0 0 1 2.025-1.579c.763-.387 1.48-.58 2.154-.58 1.762 0 2.642.902 2.642 2.707z"/><path d="M521.662 245.454h-2.47l-.634 2.986c-.1.466-.15.835-.15 1.107 0 .437.254.655.763.655.43 0 .92-.1 1.47-.3l-.655 3.17c-.336.13-.814.242-1.434.34s-1.176.145-1.67.145c-2.113 0-3.17-1-3.17-2.997 0-.258.048-.64.145-1.15l.822-3.953h-1.665l.762-3.17h1.57l.526-2.535 4.77-1.096-.762 3.63h2.546l-.763 3.17zm12.546-.73c0 .5-.082 1.124-.247 1.87l-1.407 6.692h-4.576l1.3-6.1c.12-.487.182-.855.182-1.106 0-.48-.25-.72-.752-.72-.386 0-.805.256-1.256.768a3.76 3.76 0 0 0-.881 1.735l-1.14 5.414h-4.576l3.45-16.287h4.576l-1.514 7.176h.043c.58-.66 1.25-1.184 2.008-1.574s1.476-.585 2.15-.585c1.76 0 2.642.902 2.642 2.707zm11.772.58c0 1.26-.578 2.198-1.735 2.814s-2.938.96-5.344 1.03v.086c0 .416.176.74.527.973s.82.35 1.407.35c.523 0 1.15-.1 1.885-.27s1.337-.4 1.8-.634l-.634 2.997c-.558.265-1.237.482-2.035.65s-1.596.253-2.4.253c-1.54 0-2.75-.408-3.63-1.225s-1.322-1.933-1.322-3.35a7.22 7.22 0 0 1 .908-3.567 6.32 6.32 0 0 1 2.503-2.514c1.063-.587 2.3-.88 3.68-.88s2.466.282 3.228.848 1.144 1.38 1.144 2.44zm-4.22-.022a.7.7 0 0 0-.145-.429c-.097-.13-.267-.194-.5-.194-.48 0-.893.183-1.24.548s-.582.88-.704 1.547c.8 0 1.445-.122 1.907-.365s.693-.613.693-1.107zm13.008.258c-.373-.158-.83-.306-1.37-.446a5.94 5.94 0 0 0-1.466-.209c-.66 0-.988.204-.988.612 0 .222.082.385.247.5s.383.213.655.327c.852.344 1.46.654 1.82.93s.628.6.8.977.258.847.258 1.413a3.28 3.28 0 0 1-.677 2.046c-.45.6-1.106 1.05-1.966 1.38s-1.9.494-3.126.494c-.723 0-1.423-.052-2.1-.156s-1.25-.23-1.724-.38l.6-3.16c1.275.58 2.406.87 3.394.87.896 0 1.343-.233 1.343-.7 0-.207-.098-.377-.295-.5a3.1 3.1 0 0 0-.747-.349c-1.074-.35-1.83-.784-2.266-1.3s-.656-1.182-.656-1.998c0-.766.228-1.45.683-2.052s1.08-1.052 1.88-1.353 1.742-.45 2.83-.45c.516 0 1.128.048 1.837.145l1.633.295-.6 3.083zm12.106-.236c0 1.26-.578 2.198-1.735 2.814s-2.938.96-5.344 1.03v.086c0 .416.175.74.526.973s.82.35 1.407.35c.523 0 1.152-.1 1.886-.27s1.337-.4 1.8-.634l-.634 2.997c-.56.265-1.237.482-2.036.65a11.51 11.51 0 0 1-2.39.253c-1.54 0-2.75-.408-3.63-1.225s-1.32-1.933-1.32-3.35c0-1.3.302-2.478.908-3.567a6.32 6.32 0 0 1 2.503-2.514c1.063-.588 2.3-.88 3.68-.88s2.465.282 3.228.848 1.144 1.38 1.144 2.44zm-4.222-.022a.7.7 0 0 0-.145-.43c-.097-.13-.267-.194-.5-.194a1.65 1.65 0 0 0-1.24.548c-.346.365-.582.88-.703 1.547.8 0 1.444-.122 1.906-.365s.693-.613.693-1.107z"/></g><path d="M522.345 98.8l23.063.037c1.3.013 3.3-.845 3.8.958.518 1.872.737 3.958-.976 5.732-5.055 5.234-10.217 10.392-14.902 15.948-2.922 3.464-6.106 4.483-10.545 4.614-5.193.154-8.804-1.356-12.095-5.325-4.3-5.198-9.147-9.963-13.848-14.827-1.25-1.293-1.617-2.644-1.665-4.38-.06-2.197.78-2.818 2.886-2.794l24.292.037m7.36 42.977l.005 11.388c.01 2.276-.896 2.77-2.834 1.592l-10.3-6.157c-1.175-.7-1.7-1.556-1.7-2.978l-.01-15.08c-.04-1.787.56-2.278 2.276-2.22 3.484.117 6.977.104 10.463.005 1.582-.046 2.163.4 2.115 2.064-.1 3.792-.035 7.6-.035 11.387" class="I B"/><path d="M358.01 40.027L331.803 72.99l42.095 1.187c-12.5-4.566-20.454-21.64-15.89-34.15z" class="F"/><path d="M359.123 60.28c33.508-15.59 73.368-1.043 88.958 32.465s1.043 73.368-32.464 88.958-73.37 1.043-88.958-32.465c-4.257-9.15-6.267-18.773-6.258-28.246" class="D E G"/><g class="B C"><path d="M351.286 241.515h-4.95l-.462 2.244h4.642l-.77 3.63h-4.642l-.484 2.266h5.302l-.77 3.63h-9.944l3.256-15.4h9.592l-.77 3.63z"/><use xlink:href="#B" x="-792.331"/><use xlink:href="#C" x="-792.332"/><use xlink:href="#N" x="-646.613" y="-25.3"/><use xlink:href="#G" x="-764.789" y="-25.3"/><path d="M418.216 244.727c0 .506-.088 1.122-.242 1.87l-1.408 6.688H412l1.298-6.094c.1-.484.176-.858.176-1.1 0-.484-.242-.726-.748-.726-.396 0-.814.264-1.254.77a3.64 3.64 0 0 0-.88 1.738l-1.144 5.412h-4.576l3.454-16.28h4.576l-1.518 7.172h.044a6.93 6.93 0 0 1 2.002-1.584c.77-.374 1.474-.572 2.156-.572 1.76 0 2.64.902 2.64 2.706z"/><use xlink:href="#H" x="-751.758" y="-25.3"/><use xlink:href="#E" x="-757.862"/><path d="M355.728 265.715c-.594-.22-1.056-.33-1.386-.33-.946 0-1.518.484-1.716 1.452l-.154.748h2.574l-.66 3.168H351.8l-2.464 11.484h-4.532l2.42-11.484h-1.87l.66-3.168h1.87l.264-1.166c.66-2.926 2.574-4.378 5.786-4.378.946 0 1.782.1 2.508.33l-.704 3.344zm9.514 12.87H360.6l.176-1.804h-.044a6.84 6.84 0 0 1-2.046 1.562c-.704.33-1.43.506-2.134.506-1.782 0-2.684-.902-2.684-2.706 0-.528.088-1.166.242-1.87l1.408-6.688h4.576l-1.276 5.962c-.1.484-.176.902-.176 1.2 0 .154.044.264.154.396.1.1.264.154.484.154.528 0 1-.264 1.43-.792.418-.55.704-1.188.858-1.98l1.034-4.95h4.576l-1.474 6.908c-.132.638-.242 1.364-.33 2.134l-.132 1.958zm1.2-14.058a1.62 1.62 0 0 1-.572 1.276c-.374.33-.858.484-1.496.484-.594 0-1.1-.176-1.496-.506a1.61 1.61 0 0 1-.572-1.254c0-.506.176-.924.572-1.232.374-.33.88-.484 1.496-.484s1.122.154 1.496.484c.374.308.572.726.572 1.232zm-5.4 0c0 .506-.176.924-.55 1.254s-.88.506-1.518.506c-.616 0-1.1-.176-1.496-.506-.374-.352-.572-.77-.572-1.254 0-.506.198-.924.572-1.232.374-.33.88-.484 1.496-.484s1.122.154 1.496.462c.396.33.572.726.572 1.254z"/><use xlink:href="#I" x="-820.522"/><use xlink:href="#B" x="-762.067" y="25.3"/><use xlink:href="#H" x="-769.1"/><use xlink:href="#T" x="-375.392"/><use xlink:href="#U" x="-375.39"/></g><path d="M417.184 112.754c-.2 7.808-3.025 13.365-7.474 18.192-5.767 6.258-13.237 10.315-19.94 15.365-.875.66-1.46.32-2.165-.213-5.316-4.014-11.126-7.353-16.156-11.76-6.14-5.378-10.7-11.666-10.915-20.202-.173-6.92 2.94-12.134 9.16-15.1 6.248-2.98 12.237-1.992 17.432 2.564 1.42 1.244 2.035 1.186 3.414-.02 5.21-4.553 11.178-5.493 17.437-2.537 6.147 2.903 8.98 8.104 9.207 13.71" class="B H"/><path d="M237.506 168.55l-42.098-1.07 24.403 34.32c-3.89-12.737 4.958-29.362 17.695-33.25z" class="C"/><use xlink:href="#J" x="-803.642" class="D E J"/><g class="B C"><path d="M225.494 242.527c0 1.166-.286 2.2-.88 3.102-.572.902-1.386 1.584-2.42 2.024-1.056.462-2.266.682-3.674.682h-2.2l-1.034 4.95h-4.642l3.256-15.4h6.226c1.738 0 3.058.396 3.982 1.188.924.814 1.386 1.958 1.386 3.454zm-4.928.33c0-.528-.176-.946-.506-1.232-.33-.264-.792-.418-1.408-.418h-.814l-.792 3.806h1.298c.682 0 1.2-.198 1.606-.616.418-.396.616-.902.616-1.54z"/><use xlink:href="#I" x="-962.756" y="-25.3"/><use xlink:href="#S" x="-533.662"/><path d="M258.793 246.07c0 1.474-.33 2.816-1 3.982-.66 1.188-1.584 2.068-2.772 2.64-1.2.572-2.618.858-4.224.858-.88 0-1.782-.1-2.706-.33s-1.76-.55-2.508-1l3.234-15.224h4.576l-1.1 5.214-.462 1.76h.1c.946-1.298 2.134-1.958 3.564-1.958 1 0 1.782.352 2.376 1.056s.902 1.716.902 2.992zm-4.554.704c0-.946-.352-1.408-1.056-1.408-.462 0-.902.308-1.32.902-.396.616-.704 1.408-.924 2.42l-.396 1.76c.22.132.55.198.968.198.484 0 .946-.176 1.364-.55s.748-.858 1-1.474.374-1.232.374-1.848z"/><use xlink:href="#D" x="-917.286"/><use xlink:href="#E" x="-917.287"/><use xlink:href="#B" x="-866.811"/><path d="M211.772 278.585h-5.588l-1.276-11h4.554l.154 7.04c0 .44-.022.814-.066 1.144h.066l.352-1.034.418-1.078 2.486-6.072h4.972l-6.072 11z"/><use xlink:href="#E" x="-966.027" y="25.3"/><use xlink:href="#I" x="-959.925"/><use xlink:href="#K" x="-811.473" y="25.3"/><use xlink:href="#G" x="-915.852"/><use xlink:href="#E" x="-927.99" y="25.3"/><use xlink:href="#U" x="-526.685"/><use xlink:href="#E" x="-903.78" y="25.3"/><use xlink:href="#F" x="-935.08" y="25.3"/></g><path d="M256.757 123.34c-.132-1.7-1.005-2.896-2.612-3.414-1.64-.53-3.042.026-4.037 1.403-1.016 1.406-1.057 2.982.113 4.227 1.013 1.08 1.923 2.008 1.675 3.645-.114.757.283 1.46 1.173 1.47s1.304-.684 1.2-1.442c-.222-1.62.528-2.65 1.67-3.645.6-.522.877-1.37.817-2.245m-14.583-14.937c7.44-4.653 14.584-4.5 21.813-.058.608-5.635.16-10.586-4.816-13.844-3.852-2.524-7.908-2.608-11.85-.205-5.24 3.19-5.755 8.25-5.146 14.107m29.374 13.52c.025 9.36-5.017 16.392-12.57 18.962-7.415 2.523-15.648.067-20.424-6.092-4.923-6.35-5.373-14.95-.807-21.506 1.39-1.996 1.897-3.916 1.82-6.236-.08-2.342-.187-4.695.494-7.02 1.87-6.38 7.987-10.55 14.536-9.806 6.412.728 11.518 6.03 11.996 12.478.06.816.085 1.643.033 2.46-.2 3.318.17 6.33 2.392 9.16 1.98 2.523 2.507 5.785 2.53 7.602" class="B I"/><path d="M53.133 67.702L47.3 109.407 84.164 89.05c-13.095 2.42-28.61-8.254-31.03-21.35z" class="F"/><path d="M64.378 84.583c20.947-30.448 62.673-38.16 93.12-17.214s38.16 62.673 17.213 93.12-62.672 38.16-93.12 17.213c-14.592-10.04-23.962-24.85-27.46-40.905" class="D E G"/><g class="B C"><path d="M105.754 241.515h-4.356l-2.486 11.77h-4.664l2.486-11.77h-4.312l.77-3.63h13.332l-.77 3.63z"/><use xlink:href="#E" x="-1078.775"/><use xlink:href="#N" x="-915.837" y="-25.3"/><use xlink:href="#B" x="-1015.161"/><use xlink:href="#L" x="-917.32"/><use xlink:href="#M" x="-917.319"/><use xlink:href="#H" x="-1056.3"/><use xlink:href="#K" x="-927.872" y="25.3"/><use xlink:href="#H" x="-1040.554"/><use xlink:href="#S" x="-631.312" y="25.3"/><use xlink:href="#F" x="-1076.594" y="25.3"/></g><g class="H"><path d="M118.728 142.916l16.914-.017c.878-.005 2.118.46 2.564-.37.56-1.044-.24-2.15-.824-3.112-.886-1.458-2.276-2.352-3.735-3.11l-5.256-2.53c-4.544-2.272-5.487-5.283-3.123-9.736.992-1.872 1.844-3.82 2.798-5.708 1.393-2.755-.284-5.743-.497-8.634-.234-3.178-1.398-6.067-5.31-6.468-.646-.066-1.17-.48-1.416-1.067-.54-1.284-1.515-1.137-2.568-.91-3.003.648-5.777 1.762-7.173 4.715-1.87 3.954-2.14 8.343-1.434 12.446.32 1.858 1.747 4.022 2.866 5.953 2.07 3.575 1.16 7.015-2.43 9.118-2.116 1.24-4.36 2.258-6.53 3.41-1.463.78-2.785 1.764-3.637 3.223-1.034 1.768-1.22 2.915 1.572 2.84 5.736-.154 11.48-.046 17.22-.046M88 137.988c2.02-3.44 5.256-5.206 8.823-6.647 3.478-1.407 4.106-2.88 2.218-6.147-1.968-3.41-2.486-6.98-2.567-10.78-.124-5.834 4.806-10.494 10.588-9.518 1.33.224 1.75-.002 2.362-.934 2.19-3.347 5.537-4.74 9.322-5.276 1.52-.215 2.624.08 3.987 1.358 1.91 1.79 4.912 2.354 6.267 5.013.08.156.63.243.85.134 3.3-1.637 5.47.794 7.87 2.197 2.315 1.355 3.237 3.6 3.327 6.22.138 4.008-.347 7.796-2.39 11.44-2.04 3.638-1.428 4.96 2.498 6.523 3.623 1.443 6.82 3.255 8.442 7.034v2.464c-1.794 1.136-3.786.463-5.685.6-1.54.11-3.386-.503-2.985 2.306.203 1.422-1.17 1.4-2.203 1.4-13.285.005-26.57-.004-39.857.014-1.434.002-2.512-.327-2.242-2.04.285-1.817-.878-1.592-2.027-1.688-2.2-.184-4.494.632-6.597-.593v-3.08z" class="B"/><path d="M851.6 344c0-3.863-3.137-7-7-7h-785c-3.863 0-7 3.137-7 7v14c0 3.863 3.137 7 7 7h785c3.863 0 7-3.137 7-7v-14z"/></g><g fill="#fff" class="B"><path d="M91.77 348.825c0 1.826-.382 3.444-1.144 4.855s-1.834 2.48-3.212 3.207-3 1.1-4.893 1.1h-7.187l3.255-15.404h6.134c2.32 0 4.075.548 5.263 1.643s1.784 2.632 1.784 4.6zm-4.93.354c0-.995-.262-1.74-.784-2.234s-1.325-.74-2.407-.74h-1.192l-1.708 8.142h1.558c1.418 0 2.528-.464 3.33-1.4s1.203-2.186 1.203-3.776zm16.497.817c0 1.26-.578 2.198-1.734 2.814s-2.938.96-5.345 1.03v.086a1.1 1.1 0 0 0 .527.972c.35.233.82.35 1.407.35.523 0 1.15-.1 1.885-.27s1.338-.4 1.8-.634l-.634 2.997c-.558.265-1.237.482-2.035.65a11.6 11.6 0 0 1-2.4.253c-1.54 0-2.75-.4-3.63-1.225s-1.322-1.934-1.322-3.352c0-1.3.303-2.477.908-3.566s1.44-1.926 2.503-2.514 2.3-.88 3.68-.88 2.466.283 3.228.85 1.144 1.38 1.144 2.44zm-4.22-.022c0-.157-.05-.3-.145-.43s-.267-.193-.5-.193c-.48 0-.893.183-1.24.548s-.582.88-.704 1.547c.8 0 1.445-.122 1.907-.365s.693-.613.693-1.107zm13.007.258c-.372-.158-.83-.306-1.37-.446s-1.03-.2-1.466-.2c-.66 0-.988.204-.988.612 0 .222.082.385.247.5s.383.213.655.327c.852.344 1.46.654 1.82.93s.628.6.8.977.258.847.258 1.413a3.28 3.28 0 0 1-.677 2.046c-.45.6-1.106 1.05-1.966 1.38s-1.9.495-3.126.495c-.723 0-1.423-.052-2.1-.156s-1.25-.23-1.724-.382l.6-3.158c1.275.58 2.406.87 3.395.87.895 0 1.342-.232 1.342-.698 0-.208-.098-.378-.295-.5s-.446-.25-.747-.35c-1.074-.35-1.83-.784-2.266-1.3s-.655-1.182-.655-1.998c0-.766.227-1.45.682-2.052s1.08-1.053 1.88-1.353 1.742-.452 2.83-.452a13.98 13.98 0 0 1 1.837.145l1.633.296-.6 3.083zm7.712-6.338c0 .68-.248 1.232-.746 1.654s-1.15.634-1.96.634c-.716 0-1.3-.188-1.75-.564s-.676-.847-.676-1.412a2.08 2.08 0 0 1 .752-1.67c.502-.425 1.16-.64 1.976-.64.702 0 1.278.184 1.73.553s.676.85.676 1.445zm-3.126 14.083h-4.576l2.33-11h4.576l-2.33 11zm4.974 5.167c-1.247 0-2.478-.247-3.696-.74l.752-3.48a6.24 6.24 0 0 0 1.622.779c.58.183 1.132.274 1.655.274 1.024 0 1.8-.243 2.363-.73s.93-1.225 1.138-2.213l.172-.838h-.043c-.43.666-.943 1.174-1.54 1.525a3.76 3.76 0 0 1-1.94.527c-1.046 0-1.867-.373-2.465-1.118s-.897-1.75-.897-3.018c0-1.468.33-2.78.993-3.932a6.4 6.4 0 0 1 2.734-2.599c1.16-.58 2.507-.87 4.04-.87a23.11 23.11 0 0 1 2.75.178 26.63 26.63 0 0 1 2.815.488l-1.87 8.84c-.373 1.762-.9 3.12-1.585 4.077s-1.595 1.67-2.734 2.143-2.56.7-4.264.7zm5.414-13.46c-.172-.043-.42-.064-.742-.064-.544 0-1.045.177-1.504.53s-.82.842-1.1 1.46a4.89 4.89 0 0 0-.403 1.961c0 .43.093.757.28.983s.415.338.687.338c.494 0 .947-.288 1.36-.865s.743-1.416.994-2.52l.42-1.826zm17.562-.268c0 .5-.083 1.124-.248 1.87l-1.407 6.692h-4.576l1.3-6.1c.122-.487.183-.856.183-1.106 0-.48-.244-.72-.73-.72-.387 0-.806.256-1.257.768a3.8 3.8 0 0 0-.88 1.735l-1.117 5.414h-4.62l1.558-7.305.644-3.695h4.5c-.05.86-.122 1.5-.215 1.9h.043c.588-.666 1.262-1.193 2.025-1.58s1.48-.58 2.154-.58c1.762 0 2.643.903 2.643 2.708zm13.298 8.56h-4.662l1.117-5.285-2.588-10.12h5.038l.633 4.844c.072.552.108 1.096.108 1.633h.043l.644-1.547 2.632-4.93h5.2l-7.046 10.054-1.118 5.35zm17.327-6.424c0 1.282-.288 2.455-.865 3.518s-1.38 1.86-2.4 2.385-2.242.8-3.63.8c-1.697 0-3-.427-3.937-1.28s-1.4-2.048-1.4-3.588a7.4 7.4 0 0 1 .494-2.653c.33-.866.788-1.595 1.375-2.186s1.3-1.044 2.164-1.36 1.835-.473 2.938-.473c1.676 0 2.972.42 3.9 1.263s1.375 2.035 1.375 3.582zm-4.555 0c0-.487-.103-.857-.3-1.112s-.487-.38-.838-.38a1.38 1.38 0 0 0-1.03.457c-.292.305-.525.723-.693 1.256a5.46 5.46 0 0 0-.253 1.65c0 .487.106.854.317 1.1s.496.37.854.37c.588 0 1.06-.315 1.418-.945s.537-1.43.537-2.396zm16.145 6.424h-4.64l.172-1.805h-.043c-.645.695-1.325 1.214-2.04 1.558s-1.43.516-2.138.516c-1.8 0-2.686-.903-2.686-2.707 0-.538.08-1.16.237-1.87l1.418-6.692h4.576l-1.278 5.962c-.122.487-.183.892-.183 1.214a.54.54 0 0 0 .156.381c.104.1.266.167.488.167.523 0 .996-.267 1.418-.8s.713-1.2.87-1.97l1.03-4.952h4.576l-1.472 6.907a22.16 22.16 0 0 0-.333 2.138l-.13 1.955zm10.688-7.08h-.02c-.358-.18-.75-.27-1.17-.27-.745 0-1.348.215-1.8.645s-.8 1.167-1.047 2.213l-.946 4.5h-4.576l1.493-7.015.688-3.985h4.5l-.28 2.116h.043c.423-.816.88-1.418 1.37-1.804a2.69 2.69 0 0 1 1.713-.58c.272 0 .595.047.967.14l-.924 4.05zm14.877 7.08h-9.936l3.255-15.404h4.64l-2.48 11.773h5.296l-.774 3.63z"/><use xlink:href="#Q" x="-728.994"/><path d="M230.41 345.108c-.594-.222-1.056-.333-1.386-.333-.938 0-1.51.483-1.72 1.45l-.15.752h2.578l-.666 3.17h-2.59l-2.47 11.483h-4.534l2.428-11.483h-1.88l.666-3.17h1.87l.27-1.17c.644-2.915 2.57-4.372 5.78-4.372.938 0 1.776.11 2.514.333l-.71 3.34z"/><path d="M240.1 349.996c0 1.26-.578 2.198-1.735 2.814s-2.938.96-5.344 1.03v.086a1.1 1.1 0 0 0 .526.972c.35.233.82.35 1.407.35.523 0 1.152-.1 1.886-.27s1.337-.4 1.8-.634l-.634 2.997c-.56.265-1.237.482-2.036.65s-1.595.253-2.4.253c-1.54 0-2.75-.4-3.63-1.225s-1.32-1.934-1.32-3.352c0-1.3.303-2.477.908-3.566s1.44-1.926 2.503-2.514 2.3-.88 3.68-.88 2.465.283 3.228.85 1.144 1.38 1.144 2.44zm-4.222-.022a.7.7 0 0 0-.145-.43c-.097-.128-.267-.193-.5-.193-.48 0-.893.183-1.24.548s-.582.88-.703 1.547c.8 0 1.444-.122 1.906-.365s.693-.613.693-1.107zm8.916 2.816h-3.674l1.6-10.216h4.824l-2.75 10.216zm.15 3.168c0 .695-.25 1.25-.746 1.666s-1.152.623-1.96.623c-.7 0-1.3-.185-1.74-.554s-.677-.846-.677-1.434c0-.687.25-1.244.752-1.67s1.16-.64 1.977-.64c.716 0 1.294.2 1.734.57a1.82 1.82 0 0 1 .66 1.44z"/></g><defs ><path id="B" d="M1162.934 244.727c0 .528-.088 1.166-.242 1.87l-1.408 6.688h-4.576l1.298-6.094c.1-.462.176-.814.176-1.1 0-.484-.242-.726-.726-.726-.242 0-.506.132-.836.352-.308.242-.572.572-.814.946a3.77 3.77 0 0 0-.484 1.21l-1.1 5.412h-4.598l1.298-6.094c.1-.484.176-.858.176-1.1 0-.484-.242-.726-.726-.726-.396 0-.814.264-1.254.77a3.64 3.64 0 0 0-.88 1.738l-1.144 5.412h-4.598l1.562-7.304.638-3.696h4.5c-.044.858-.132 1.496-.22 1.892h.044c.594-.66 1.254-1.188 2.024-1.584.77-.374 1.474-.572 2.156-.572 1.628 0 2.508.814 2.618 2.42.55-.726 1.232-1.32 2.046-1.76s1.606-.66 2.42-.66c1.76 0 2.64.902 2.64 2.706z"/><path id="C" d="M1176.08 246.003c0 1.474-.308 2.794-.946 3.96-.616 1.166-1.474 2.068-2.596 2.662-1.122.616-2.442.924-3.916.924-.088 0-.352 0-.726-.022l-.638-.066-1.078 4.884h-4.598l2.596-12.188.44-2.244.22-1.628h4.4l-.242 1.958h.044c1.012-1.496 2.288-2.222 3.806-2.222.968 0 1.76.374 2.354 1.1.594.748.88 1.694.88 2.882zm-4.554.704c0-.902-.352-1.342-1.034-1.342-.462 0-.902.286-1.298.858-.396.594-.726 1.43-1 2.53l-.418 1.826c.264.044.484.066.682.066.858 0 1.584-.396 2.178-1.144.572-.77.88-1.694.88-2.794z"/><path id="D" d="M1180.328 253.285h-4.576l3.454-16.28h4.576l-3.454 16.28z"/><path id="E" d="M1193.89 245.3c0 1.254-.572 2.2-1.738 2.816s-2.926.968-5.346 1.034v.088c0 .418.176.748.528.968.352.242.814.352 1.408.352.528 0 1.144-.088 1.892-.264.726-.176 1.342-.396 1.804-.638l-.638 2.992c-.55.264-1.232.484-2.024.66-.814.154-1.606.242-2.398.242-1.54 0-2.75-.396-3.63-1.2-.88-.836-1.32-1.936-1.32-3.366 0-1.276.308-2.464.902-3.564a6.54 6.54 0 0 1 2.508-2.508c1.056-.594 2.288-.88 3.674-.88s2.464.286 3.234.836c.77.572 1.144 1.386 1.144 2.442zm-4.224-.022c0-.154-.044-.286-.154-.418-.088-.132-.264-.198-.506-.198-.484 0-.88.176-1.232.55-.352.352-.594.88-.704 1.54.814 0 1.452-.1 1.914-.352.462-.264.682-.616.682-1.122z"/><path id="F" d="M1237.627 244.727c0 .506-.088 1.122-.242 1.87l-1.408 6.688h-4.576l1.298-6.094c.1-.484.176-.858.176-1.1 0-.484-.242-.726-.726-.726-.396 0-.814.264-1.254.77a3.64 3.64 0 0 0-.88 1.738l-1.122 5.412h-4.62l1.562-7.304.638-3.696h4.5c-.044.858-.132 1.496-.22 1.892h.044c.594-.66 1.254-1.188 2.024-1.584.77-.374 1.474-.572 2.156-.572 1.76 0 2.64.902 2.64 2.706z"/><path id="G" d="M1170.456 270.753h-2.464l-.638 2.992-.154 1.1c0 .44.264.66.77.66.418 0 .924-.1 1.474-.308l-.66 3.168c-.33.132-.814.242-1.43.352-.616.088-1.188.132-1.672.132-2.112 0-3.168-1-3.168-2.992 0-.264.044-.638.132-1.144l.836-3.96h-1.672l.77-3.168h1.562l.528-2.53 4.774-1.1-.77 3.63h2.552l-.77 3.168z"/><path id="H" d="M1177.35 264.505c0 .682-.242 1.232-.748 1.65-.484.418-1.144.638-1.958.638-.704 0-1.298-.198-1.738-.572-.462-.374-.682-.836-.682-1.408 0-.682.242-1.254.748-1.672s1.166-.638 1.98-.638c.704 0 1.276.176 1.716.55a1.77 1.77 0 0 1 .682 1.452zm-3.124 14.08h-4.576l2.332-11h4.576l-2.332 11z"/><path id="I" d="M1196.462 271.5h-.022c-.374-.176-.748-.264-1.188-.264-.726 0-1.342.22-1.804.638-.462.44-.814 1.166-1.034 2.222l-.946 4.488h-4.576l1.474-7.018.704-3.982h4.488l-.264 2.112h.044c.418-.814.88-1.408 1.364-1.804.484-.374 1.056-.572 1.716-.572.264 0 .594.044.968.132l-.924 4.048z"/><path id="J" d="M1025.65 181.637c32.625 17.362 73.207 4.97 90.57-27.654s4.97-73.207-27.653-90.57-73.208-4.97-90.57 27.653c-5.084 9.554-7.616 19.79-7.837 29.925"/><path id="K" d="M1056.96 245.54c-.374-.154-.836-.308-1.364-.44-.55-.154-1.034-.22-1.474-.22-.66 0-1 .198-1 .616 0 .22.088.374.242.484a4.59 4.59 0 0 0 .66.33c.858.352 1.474.66 1.826.924.352.286.638.616.792 1 .176.374.264.836.264 1.408a3.23 3.23 0 0 1-.682 2.046c-.44.594-1.1 1.056-1.958 1.386s-1.892.484-3.124.484c-.726 0-1.43-.044-2.112-.154l-1.716-.374.594-3.168c1.276.594 2.398.88 3.388.88.902 0 1.342-.242 1.342-.704 0-.198-.088-.374-.286-.506s-.44-.242-.748-.352c-1.078-.352-1.826-.792-2.266-1.298-.44-.528-.66-1.188-.66-2.002a3.23 3.23 0 0 1 .682-2.046c.462-.616 1.078-1.056 1.892-1.364.792-.286 1.738-.44 2.816-.44.528 0 1.122.044 1.848.132l1.628.308-.594 3.08z"/><path id="L" d="M1010.81 270.18c-.198.924-.55 1.848-1.078 2.772s-1.166 1.738-1.914 2.442l2.244 3.2h-4.62l-.594-.924c-1.43.792-2.992 1.188-4.664 1.188-1.606 0-2.816-.33-3.652-1.034-.814-.682-1.232-1.65-1.232-2.904 0-1.078.374-2.002 1.1-2.75.726-.77 1.892-1.474 3.52-2.112-.638-1.034-.946-2.002-.946-2.904 0-.792.242-1.518.704-2.2a4.69 4.69 0 0 1 1.87-1.518c.77-.33 1.672-.506 2.684-.506 1.32 0 2.354.308 3.124.946.792.616 1.166 1.474 1.166 2.53 0 1.782-1.32 3.124-3.982 4.026l1.584 2.376c.616-.858 1.012-1.716 1.188-2.618h3.498zm-5.918-3.652c0-.616-.352-.946-1.078-.946-.308 0-.594.132-.836.374a1.1 1.1 0 0 0-.352.814 2.34 2.34 0 0 0 .132.814c.1.242.264.506.484.836.572-.264 1-.528 1.254-.836.264-.286.396-.638.396-1.056zm-3.63 5.6a3.23 3.23 0 0 0-1.21.946c-.33.418-.484.814-.484 1.188 0 .484.154.88.484 1.188s.726.462 1.2.462c.682 0 1.342-.22 1.98-.66l-1.98-3.124z"/><path id="M" d="M1025.203 278.585h-5.214l-1.716-15.4h4.752l.528 10.076c0 .396-.022.77-.088 1.122h.1c.044-.198.132-.396.22-.638s1.628-3.762 4.62-10.56h5.082l-8.294 15.4z"/><path id="N" d="M1042.157 278.585h-4.532c0-.22.044-.88.154-1.958h-.044c-1.078 1.496-2.3 2.222-3.674 2.222-1.078 0-1.914-.374-2.508-1.122s-.88-1.804-.88-3.168a7.4 7.4 0 0 1 .572-2.882c.374-.946.88-1.738 1.54-2.354.66-.638 1.474-1.122 2.442-1.474s2.1-.528 3.344-.528c1.716 0 3.542.22 5.434.66l-1.43 6.732c-.1.506-.22 1.166-.286 1.936l-.132 1.936zm-3.2-8.294c-.176-.044-.396-.066-.66-.066-.572 0-1.078.176-1.54.506s-.836.814-1.122 1.474-.418 1.32-.418 1.98c0 .418.088.748.286.968.176.242.418.352.682.352.506 0 .968-.286 1.386-.88.396-.572.726-1.408.968-2.508l.418-1.826z"/><path id="O" d="M1067.368 278.585h-4.532c0-.22.044-.88.154-1.958h-.044c-1.056 1.496-2.288 2.222-3.674 2.222-1.056 0-1.892-.374-2.486-1.122-.594-.726-.902-1.782-.902-3.102 0-1.43.308-2.706.946-3.806.638-1.122 1.518-1.98 2.684-2.596 1.144-.594 2.42-.902 3.85-.902l.748.022.638.066 1.1-5.104h4.554l-2.618 12.408c-.1.506-.22 1.166-.286 1.936l-.132 1.936zm-3.2-8.294c-.264-.044-.484-.066-.682-.066-.572 0-1.078.176-1.54.506-.44.33-.814.814-1.1 1.496-.286.66-.418 1.32-.418 1.958 0 .418.088.748.286.968.198.242.44.352.704.352.484 0 .946-.286 1.342-.858.418-.594.726-1.43 1-2.53l.418-1.826z"/><path id="P" d="M894.945 60.28c33.507-15.59 73.368-1.043 88.958 32.465s1.043 73.368-32.465 88.958-73.368 1.043-88.958-32.465c-4.257-9.15-6.267-18.773-6.257-28.246"/><path id="Q" d="M949.92 343.894c0 .68-.25 1.232-.747 1.654s-1.15.634-1.96.634c-.716 0-1.3-.188-1.75-.564s-.677-.847-.677-1.412c0-.688.25-1.245.752-1.67s1.16-.64 1.977-.64c.702 0 1.278.184 1.73.553s.677.85.677 1.445zm-3.126 14.083h-4.576l2.33-11h4.576l-2.33 11z"/><path id="R" d="M757.83 181.637c32.624 17.362 73.207 4.97 90.57-27.654s4.97-73.207-27.654-90.57-73.207-4.97-90.57 27.653c-5.084 9.554-7.617 19.79-7.837 29.925"/><path id="S" d="M779.337 246.86c0 1.276-.308 2.464-.88 3.52s-1.364 1.848-2.398 2.376-2.244.792-3.63.792c-1.716 0-3.014-.418-3.938-1.276-.946-.858-1.408-2.046-1.408-3.586 0-.902.176-1.782.506-2.662.33-.858.792-1.584 1.364-2.178.594-.594 1.32-1.034 2.178-1.364.858-.308 1.826-.462 2.926-.462 1.672 0 2.97.418 3.894 1.254s1.386 2.046 1.386 3.586zm-4.554 0c0-.484-.1-.858-.33-1.122-.198-.242-.484-.374-.836-.374-.396 0-.726.154-1.034.462-.286.308-.506.726-.682 1.254s-.264 1.078-.264 1.65c0 .484.1.858.33 1.1.198.242.484.374.858.374.572 0 1.056-.308 1.408-.946s.55-1.43.55-2.398z"/><path id="T" d="M792.032 271.127c-.462-.308-1.1-.462-1.892-.462-.836 0-1.54.308-2.112.902s-.858 1.32-.858 2.2c0 1.144.616 1.738 1.826 1.738a4.44 4.44 0 0 0 1.144-.154c.418-.1.814-.264 1.144-.44l-.638 3.124c-.506.264-1.078.484-1.694.616a8.3 8.3 0 0 1-1.76.198c-1.43 0-2.552-.396-3.366-1.2-.814-.792-1.2-1.914-1.2-3.322 0-1.276.308-2.464.924-3.542a6.39 6.39 0 0 1 2.596-2.53c1.1-.616 2.332-.924 3.718-.924 1.166 0 2.156.198 2.926.572l-.748 3.234z"/><path id="U" d="M805.02 270.027c0 .506-.088 1.122-.242 1.87l-1.408 6.688h-4.576l1.298-6.094c.1-.484.176-.858.176-1.1 0-.484-.242-.726-.748-.726-.396 0-.814.264-1.254.77a3.64 3.64 0 0 0-.88 1.738l-1.144 5.412h-4.576l3.454-16.28h4.576l-1.518 7.172h.044a6.93 6.93 0 0 1 2.002-1.584c.77-.374 1.474-.572 2.156-.572 1.76 0 2.64.902 2.64 2.706z"/></defs></svg>