<svg xmlns="http://www.w3.org/2000/svg" xmlns:xlink="http://www.w3.org/1999/xlink" width="100%" height="100%" viewBox="0 0 1221 327" fill-rule="evenodd" stroke-linecap="round" stroke-miterlimit="1.5"><style><![CDATA[.B{fill-rule:nonzero}.C{fill:#1b57a6}.D{fill:none}.E{stroke-width:16.74}.F{fill:#1d57a6}.G{fill:#fbb409}.H{fill:#ffb400}.I{stroke:#ffb400}.J{fill:#ffb301}.K{stroke:#1b57a6}.L{fill:#1c57a6}]]></style><path d="M1115.65 2.027l-26.206 32.964 42.095 1.187c-12.5-4.566-20.455-21.64-15.89-34.15z" class="H"/><path d="M1116.77 22.28c33.508-15.59 73.368-1.043 88.958 32.465s1.043 73.368-32.464 88.958-73.37 1.043-88.96-32.465c-4.256-9.15-6.266-18.773-6.257-28.246" class="D E I"/><g class="B C"><path d="M1095.168 207.093h2.64v15.4h-2.64z"/><use xlink:href="#B"/><use xlink:href="#C"/><path d="M1131.834 206.213h2.508v16.28h-2.508z"/><use xlink:href="#D"/><use xlink:href="#B" x="47.22"/><use xlink:href="#D" x="29.69"/><use xlink:href="#E"/><path d="M1189.483 215.563h5.874v1.826h-5.874z"/><use xlink:href="#F"/><use xlink:href="#G"/><use xlink:href="#D" x="-5.044" y="25.3"/><use xlink:href="#H"/><use xlink:href="#D" x="13.11" y="25.3"/><use xlink:href="#E" x="-16.58" y="25.3"/></g><g class="F B"><path d="M1165.66 82.782c-5.388.01-9.794 4.396-9.824 9.784s4.326 9.835 9.706 9.906c5.502.074 10.03-4.438 9.982-9.943-.05-5.38-4.475-9.755-9.864-9.747m12.34 12.3l-.964 2.243c-2.396 5.495-8.172 8.587-13.764 7.37-5.846-1.272-9.9-6.22-9.9-12.084s4.07-10.824 9.904-12.08c5.606-1.207 11.38 1.887 13.763 7.378l.96 2.245v4.928zm-39.43 7.5c.054-5.387-4.286-9.853-9.665-9.945-5.393-.093-9.892 4.2-10.022 9.585-.135 5.5 4.313 10.1 9.815 10.105 5.377.014 9.818-4.37 9.872-9.745m-22.16-2.564l.95-2.236c2.3-5.26 7.614-8.32 13.075-7.52 5.517.8 9.9 5.306 10.545 10.816.642 5.5-2.55 10.745-7.836 12.908l-1.95.814h-4.928c-4.978-1.593-8.276-4.865-9.855-9.855v-4.928z"/><path d="M1149.67 53.207l1.647 1.296c2.563 2.263 2.718 5.83.372 8.15-2.183 2.158-5.56 2.157-7.733-.001-2.35-2.336-2.198-5.88.37-8.15.523-.463 1.098-.866 1.65-1.296h3.696zm-13.63 28.447c9.3.907 11.82 7.522 13.983 14.463.487 1.562 1.097 3.085 1.644 4.63.578 1.63.528 3.136-1.32 3.837-1.8.677-2.663-.692-3.314-1.977-1.758-3.47-3.5-6.956-5.06-10.52-.726-1.656-1.767-2.6-3.47-3.095-2.746-.816-5.504-1.65-8.142-2.753-4.48-1.875-5.476-5.32-2.5-9.063 3-3.774 6.275-7.313 9.44-10.947 1.7-1.953 3.647-2.28 6.065-1.238l17.868 7.426c.753.314 1.5.672 2.186 1.107.854.54 1.25 1.36.968 2.377-.296 1.06-1.138 1.452-2.128 1.38-1.113-.08-2.246-.213-3.315-.515l-12.076-3.578c-1.808-.578-3.13-.234-4.352 1.214-1.844 2.2-3.803 4.28-6.465 7.25"/></g><path d="M1136.67 63.157c-4.306 4.93-8.59 9.198-11.905 14.26-.685 1.046-1.218.714-1.943.242-2.745-1.785-3.574-5.615-1.6-8.386 3.672-5.18 8.807-6.93 15.458-6.116" class="B J"/><path d="M995.15 130.55l-42.098-1.07 24.403 34.32c-3.89-12.737 4.958-29.362 17.695-33.25z" class="C"/><use xlink:href="#I" class="D E K"/><g class="B C"><path d="M982.832 209.25h-4.444v13.244h-2.552V209.25h-4.4v-2.156h11.396v2.156z"/><use xlink:href="#D" x="-154.913"/><use xlink:href="#J"/><use xlink:href="#F" x="-117.967" y="-25.3"/><use xlink:href="#D" x="-128.146"/><use xlink:href="#E" x="-157.836"/><path d="M1047.867 222.493l-1.408-1.474c-.308.264-.66.506-1.034.726s-.77.396-1.188.55-.858.264-1.298.352a9.5 9.5 0 0 1-1.364.11c-.77 0-1.474-.088-2.1-.286-.638-.22-1.166-.506-1.606-.858a3.8 3.8 0 0 1-1.012-1.342c-.242-.506-.374-1.078-.374-1.716 0-1.76 1.188-3.256 3.52-4.466-1.078-1.342-1.606-2.53-1.606-3.564 0-.528.1-1.034.308-1.474a3.55 3.55 0 0 1 .88-1.166c.396-.33.836-.594 1.364-.77.528-.198 1.1-.286 1.738-.286.594 0 1.122.088 1.606.242.484.176.902.396 1.232.704a3.09 3.09 0 0 1 .814 1.034c.176.418.264.858.264 1.32s-.044.88-.176 1.254c-.1.374-.308.726-.572 1.056s-.594.66-1.034.946c-.418.308-.946.616-1.562.902l1.716 1.826 1.76 1.804c.154-.22.286-.484.418-.77s.242-.572.33-.902c.088-.308.154-.638.198-.968l.088-1h2.178a7.86 7.86 0 0 1-1.87 5.17l1.2 1.254 1.738 1.782h-3.168zm-3.498-12.166c0-.242-.044-.462-.132-.66-.088-.22-.198-.396-.352-.55s-.33-.286-.528-.374a1.58 1.58 0 0 0-.638-.132 2.47 2.47 0 0 0-.836.132c-.242.088-.462.22-.638.396-.176.154-.308.374-.396.594a1.87 1.87 0 0 0-.154.77c0 .66.484 1.496 1.408 2.552 1.518-.77 2.266-1.694 2.266-2.728zm.792 9.284l-3.938-4.18c-.792.396-1.342.836-1.694 1.298s-.528 1.012-.528 1.65c0 .374.066.704.22 1.012.132.308.33.572.572.792a2.72 2.72 0 0 0 .858.484 3.46 3.46 0 0 0 1.078.176c1.342 0 2.486-.418 3.432-1.232zm-66.08 12.782l-5.522 15.4h-2.86l-5.434-15.4h2.794l3.806 11.682c.1.374.198.814.264 1.298h.044c.066-.396.154-.836.308-1.32l3.894-11.66h2.706z"/><use xlink:href="#K"/><path d="M989.243 231.513h2.508v16.28h-2.508z"/><use xlink:href="#G" x="-132.543"/><path d="M1009.242 247.793h-2.486v-1.87h-.044c-.792 1.408-2.046 2.134-3.696 2.134-1.364 0-2.442-.506-3.256-1.474-.814-1-1.2-2.332-1.2-4.026 0-1.826.44-3.278 1.342-4.378s2.1-1.65 3.586-1.65c1.474 0 2.552.594 3.234 1.782h.044v-6.798h2.486v16.28zm-2.442-5.038v-1.43c0-.77-.264-1.452-.77-1.98-.506-.55-1.166-.814-1.958-.814-.924 0-1.65.33-2.178 1.034-.55.704-.814 1.65-.814 2.882 0 1.122.264 2.002.77 2.662.506.638 1.2.968 2.068.968s1.54-.308 2.068-.946c.528-.616.814-1.408.814-2.376z"/><use xlink:href="#G" x="-115.023"/><use xlink:href="#D" x="-120.066" y="25.3"/><use xlink:href="#H" x="-115.022"/><use xlink:href="#D" x="-101.914" y="25.3"/><use xlink:href="#E" x="-131.604" y="25.3"/></g><path d="M1032 72.92h-1.842c-5.453 0-5.38-.002-5.25 5.345.04 1.606.488 2.137 2.1 2.077l8.9.018c2.264.154 2.687-.73 2.644-2.782-.097-4.656.01-4.658-4.708-4.658H1032zm11.43-.616c-1.968 1.027-2.536 2.666-2.5 4.835l.07 18.774c.03 2.065-.55 2.895-2.77 2.926-7.5.105-7.067-.195-11.953-5.85-4.404-5.095-3.792-10.715-3.77-16.463.025-6.974-.943-6 5.986-6.064l11.697-.006c1.118.001 2.27-.155 3.243.615v1.232zm-44.27 10.302c-2.6-1.766-4.53-3.534-3.8-7 .35-1.7.016-2.794-2.305-2.777-2.258.017-2.907.777-2.598 2.83.4 2.655-.06 4.882-2.997 5.862-.345.116-.73.397-.584 1.086h12.295zm-17.333 2.634c1.358-2.5 2.65-5 5.267-6.55 1.792-1.062.923-3.025.816-4.495-.215-2.96.802-4.227 3.784-3.74.1.016.204.002.306.002 5.723-.007 5.787-.007 5.8 5.6.004 1.52.42 2.434 1.78 3.136 1.377.7 2.355 1.926 3.192 3.247 1.038 1.637 1.113 3.054-.165 4.73-2.48 3.25-4.8 6.63-7.045 10.05-.856 1.304-1.836 1.702-3.302 1.58-5.5-.45-8.577-3.786-10.433-8.623V85.24z" class="G B"/><path d="M1016.58 63.203h-8.182c1.016 4.49.578 8.91.474 13.283-.117 4.958 1.58 10.292-3.06 14.75h13.114c-.404-2.12-2.596-3.188-2.577-5.26.07-7.553-.285-15.112.23-22.772m-4.114 44.2c-4.92.001-9.843-.01-14.764.008-1.263.005-2.537.004-3.263-1.234-.813-1.386-.055-2.533.725-3.662l9.45-13.644c1.4-1.934 1.975-3.88 1.898-6.25-.145-4.507-.076-9.022-.027-13.533.025-2.282.057-4.45-1.82-6.24-1.207-1.15-.573-2.176.947-2.205 4.714-.09 9.434-.117 14.146.02 1.554.045 2.03 1.183.713 2.23-1.6 1.273-1.712 2.88-1.693 4.673.063 6.15-1.237 12.7.48 18.335 1.68 5.52 6.413 10.108 9.807 15.105.402.593.832 1.17 1.21 1.78 1.717 2.76.8 4.554-2.43 4.596l-15.38.02" class="B L"/><path d="M847.83 2.027L821.625 34.99l42.094 1.187c-12.5-4.566-20.454-21.64-15.89-34.15z" class="H"/><use xlink:href="#L" class="D E I"/><g class="B C"><path d="M840.56 229.557v5.586h-2.546v-15.405h4.673c1.77 0 3.14.412 4.114 1.236s1.46 1.983 1.46 3.48-.508 2.72-1.525 3.674-2.392 1.43-4.125 1.43h-2.052zm0-7.713v5.63h1.654c1.096 0 1.93-.255 2.503-.763s.86-1.225.86-2.148c0-1.812-1.053-2.718-3.16-2.718h-1.858zm15.67 4.673c-.3-.237-.734-.355-1.3-.355-.737 0-1.353.333-1.847 1s-.74 1.572-.74 2.718v5.264h-2.493v-11h2.493v2.266h.043c.243-.773.617-1.377 1.122-1.8s1.07-.65 1.692-.65c.45 0 .795.068 1.03.204v2.364z"/><use xlink:href="#M"/><path d="M875.255 235.024c-.487.244-1.128.366-1.923.366-2.134 0-3.2-1.024-3.2-3.073v-6.22h-1.837v-1.955h1.837v-2.546l2.492-.7v3.255h2.632v1.955h-2.632v5.5c0 .65.118 1.117.354 1.396s.63.42 1.182.42c.422 0 .788-.122 1.096-.365v1.976zm6.155.376c-1.697 0-3.052-.513-4.065-1.54s-1.52-2.4-1.52-4.088c0-1.847.53-3.3 1.585-4.33s2.48-1.557 4.27-1.557c1.72 0 3.058.505 4.018 1.514s1.44 2.4 1.44 4.2c0 1.754-.517 3.16-1.552 4.216s-2.426 1.584-4.174 1.584zm.12-9.528c-.974 0-1.744.34-2.3 1.02s-.85 1.618-.85 2.814c0 1.153.287 2.06.86 2.723s1.34.994 2.3.994c.98 0 1.734-.326 2.26-.978s.8-1.58.8-2.782-.263-2.145-.8-2.804-1.28-.988-2.26-.988zm13.2 9.152c-.487.244-1.128.366-1.923.366-2.134 0-3.2-1.024-3.2-3.073v-6.22h-1.837v-1.955h1.837v-2.546l2.492-.7v3.255h2.632v1.955H892.1v5.5c0 .65.12 1.117.355 1.396s.63.42 1.182.42c.422 0 .787-.122 1.095-.365v1.976z"/><path d="M905.664 224.143l-4.963 12.76c-1.03 2.278-2.477 3.416-4.34 3.416-.523 0-.96-.046-1.3-.14v-2.074c.394.13.752.194 1.074.194.93 0 1.626-.46 2.084-1.375l.74-1.805-4.372-10.978h2.76l2.62 7.992.194.795h.053l.194-.774 2.75-8.013h2.513zm3.448 9.377h-.043v6.68h-2.492v-16.06h2.492v1.933h.043c.852-1.46 2.098-2.2 3.738-2.2 1.397 0 2.485.5 3.266 1.47s1.17 2.3 1.17 3.954c0 1.833-.44 3.3-1.32 4.404s-2.084 1.654-3.6 1.654c-1.403 0-2.485-.616-3.244-1.847zm-.064-4.34v1.364c0 .802.256 1.482.768 2.04a2.53 2.53 0 0 0 1.95.838c.924 0 1.65-.36 2.176-1.08s.8-1.724.8-3.013c0-1.08-.245-1.928-.736-2.54s-1.154-.92-1.992-.92c-.888 0-1.603.315-2.143.945s-.8 1.418-.8 2.364z"/></g><path d="M886.69 76.534L869.05 90.8c-.472.382-.926.778-.992 1.44l-1.006 10.216c8.142-8.012 13.683-17.11 19.64-25.922z" class="J"/><path d="M886.69 76.534L869.05 90.8c-.472.382-.926.778-.992 1.44l-1.006 10.216c8.142-8.012 13.683-17.11 19.64-25.922m-35.486 10.16V85.66l50.11-27.38c2.075-.48 1.505 1.024 1.55 2.066-.188.463-.433.91-.554 1.4l-7.2 28.625c-1.695 6.532-2.92 13.19-5.15 19.58h-1.033L876.525 97.6c-.982-1-1.52-.882-2.372.13-2.268 2.69-4.632 5.298-6.984 7.916-.487.54-.932 1.427-1.86 1-.893-.4-.65-1.31-.58-2.06.33-3.502.516-7.03 1.085-10.493.34-2.062-.51-2.673-2.21-3.208-4.16-1.31-8.387-2.436-12.397-4.192" class="B F"/><path d="M1221 306c0-3.863-3.137-7-7-7H822c-3.863 0-7 3.137-7 7v14c0 3.863 3.137 7 7 7h392c3.863 0 7-3.137 7-7v-14z" class="G"/><g fill="#fff" class="B"><path d="M852.34 318.977h-3.985l-2.395-3.964-.516-.806c-.165-.236-.33-.438-.5-.606a1.95 1.95 0 0 0-.526-.387 1.33 1.33 0 0 0-.596-.134h-.935v5.897h-3.47v-15.404h5.5c3.738 0 5.607 1.396 5.607 4.2 0 .537-.082 1.033-.247 1.488a4.13 4.13 0 0 1-.698 1.23 4.42 4.42 0 0 1-1.091.945 5.6 5.6 0 0 1-1.423.623v.043c.23.072.45.188.666.35a4.85 4.85 0 0 1 .623.564 7.89 7.89 0 0 1 .575.693l.5.725 2.9 4.555zm-9.453-12.805v4.286h1.504c.745 0 1.343-.214 1.794-.644a2.15 2.15 0 0 0 .688-1.622c0-1.346-.806-2.02-2.417-2.02h-1.57zm19.153 8.272h-7.176c.115 1.597 1.12 2.395 3.02 2.395 1.2 0 2.274-.286 3.2-.86v2.45c-1.017.544-2.338.817-3.964.817-1.776 0-3.154-.493-4.135-1.477s-1.472-2.358-1.472-4.12c0-1.826.53-3.273 1.6-4.34s2.363-1.6 3.9-1.6c1.604 0 2.845.477 3.722 1.43s1.316 2.245 1.316 3.878v1.43zm-3.147-2.084c0-1.576-.638-2.363-1.912-2.363-.545 0-1.016.225-1.413.676s-.64 1.014-.725 1.687h4.05zm4.757 6.617v-15.404h5.457c5.47 0 8.207 2.503 8.207 7.5 0 2.4-.747 4.314-2.24 5.747s-3.482 2.148-5.967 2.148h-5.457zm3.47-12.58v9.765h1.718c1.504 0 2.684-.452 3.54-1.354s1.284-2.13 1.284-3.685c0-1.468-.425-2.622-1.273-3.464s-2.04-1.262-3.572-1.262h-1.697zm21.56 8.047h-7.176c.115 1.597 1.12 2.395 3.02 2.395 1.2 0 2.273-.286 3.2-.86v2.45c-1.017.544-2.338.817-3.964.817-1.776 0-3.155-.493-4.136-1.477s-1.47-2.358-1.47-4.12c0-1.826.53-3.273 1.6-4.34s2.363-1.6 3.9-1.6c1.604 0 2.845.477 3.722 1.43s1.316 2.245 1.316 3.878v1.43zm-3.148-2.084c0-1.576-.637-2.363-1.912-2.363-.544 0-1.015.225-1.412.676s-.64 1.014-.725 1.687h4.05zm3.706 6.327v-2.75c.558.337 1.115.587 1.67.752a5.53 5.53 0 0 0 1.574.247c.602 0 1.076-.082 1.423-.247s.52-.415.52-.752c0-.215-.078-.394-.236-.537a2.2 2.2 0 0 0-.607-.376c-.247-.108-.517-.204-.8-.3l-.85-.3a8.17 8.17 0 0 1-1.154-.532c-.333-.2-.613-.4-.838-.66s-.398-.54-.516-.87-.177-.72-.177-1.17c0-.615.134-1.145.403-1.6a3.27 3.27 0 0 1 1.074-1.09 4.72 4.72 0 0 1 1.536-.623 8.04 8.04 0 0 1 1.799-.199c.487 0 .98.038 1.483.113s.995.185 1.482.328v2.62a5.33 5.33 0 0 0-1.38-.564 5.84 5.84 0 0 0-1.445-.188c-.222 0-.43.02-.628.06s-.37.097-.52.172-.27.172-.355.3-.13.252-.13.403c0 .2.065.372.194.515s.297.267.504.37a4.95 4.95 0 0 0 .693.279l.758.253a9.78 9.78 0 0 1 1.224.515c.365.187.68.405.94.656a2.56 2.56 0 0 1 .602.881c.14.336.2.737.2 1.203 0 .65-.14 1.208-.424 1.67a3.4 3.4 0 0 1-1.128 1.128 5.13 5.13 0 0 1-1.622.634c-.612.132-1.248.2-1.907.2-1.2 0-2.33-.187-3.362-.56zm11.375-12.45c-.573 0-1.042-.17-1.407-.5a1.63 1.63 0 0 1-.548-1.252c0-.508.183-.924.548-1.246s.834-.483 1.407-.483c.58 0 1.05.16 1.413.483a1.59 1.59 0 0 1 .542 1.246c0 .516-.18.938-.542 1.268s-.833.494-1.413.494zm1.676 12.74h-3.394v-11h3.394v11zm12.91-1.257c0 2.04-.6 3.622-1.772 4.743s-2.894 1.68-5.135 1.68c-1.483 0-2.657-.2-3.524-.634v-2.857c1.132.66 2.274.988 3.427.988 1.146 0 2.034-.302 2.664-.908s.945-1.427.945-2.465v-.87h-.043c-.773 1.232-1.915 1.848-3.426 1.848-1.404 0-2.518-.495-3.34-1.483s-1.235-2.313-1.235-3.974c0-1.862.458-3.34 1.375-4.437s2.123-1.644 3.62-1.644c1.34 0 2.34.516 3.007 1.547h.043v-1.278h3.395v9.743zm-3.352-4.028v-.87c0-.695-.205-1.288-.617-1.778s-.947-.736-1.606-.736c-.752 0-1.343.294-1.773.88s-.644 1.414-.644 2.48c0 .917.204 1.642.612 2.176s.967.8 1.676.8c.702 0 1.27-.27 1.703-.8s.65-1.255.65-2.143zm16.06 5.285h-3.384v-6.112c0-1.705-.608-2.557-1.826-2.557a1.81 1.81 0 0 0-1.45.677c-.38.45-.57 1.024-.57 1.72v6.273h-3.395v-11h3.395v1.74h.043c.8-1.34 1.987-2 3.534-2 2.435 0 3.652 1.512 3.652 4.534v6.735zm19.217-15.404l-5.017 9.926v5.478h-3.47v-5.414l-4.888-10h3.964l2.48 5.747c.043.107.16.526.355 1.257h.043c.093-.516.204-.92.333-1.214l2.524-5.8h3.674zm3.93 15.673c-1.833 0-3.274-.514-4.324-1.542s-1.573-2.422-1.573-4.184c0-1.82.544-3.242 1.632-4.27s2.56-1.542 4.416-1.542c1.826 0 3.258.514 4.296 1.542s1.558 2.387 1.558 4.077c0 1.826-.535 3.27-1.606 4.33s-2.537 1.6-4.4 1.6zm.086-8.938c-.802 0-1.425.276-1.87.827s-.666 1.332-.666 2.342c0 2.113.852 3.17 2.557 3.17 1.625 0 2.438-1.085 2.438-3.255 0-2.055-.82-3.083-2.46-3.083zm17.832 8.67H965.6V317.3h-.054c-.838 1.296-1.96 1.945-3.362 1.945-2.55 0-3.824-1.544-3.824-4.63v-6.64h3.383v6.338c0 1.554.616 2.33 1.848 2.33.6 0 1.096-.213 1.46-.64s.548-1.005.548-1.735v-6.295h3.384v11zm9.29-7.937c-.408-.222-.884-.333-1.43-.333-.737 0-1.314.27-1.73.8s-.623 1.276-.623 2.207v5.253h-3.395v-11h3.395v2.04h.043c.537-1.5 1.504-2.234 2.9-2.234.358 0 .638.043.838.13v3.126zm15.672 7.937h-9.174v-15.404h3.47v12.6h5.704v2.814z"/><use xlink:href="#N"/><path d="M1007.62 305.3c-.436-.17-.855-.257-1.256-.257-1.1 0-1.633.6-1.633 1.772v1.17h2.513v2.503h-2.513v8.497h-3.384v-8.497H999.5v-2.503h1.848v-1.364c0-1.253.408-2.263 1.225-3.03s1.926-1.15 3.33-1.15c.687 0 1.26.072 1.718.215v2.642zm10.4 9.154h-7.175c.114 1.597 1.12 2.395 3.018 2.395 1.2 0 2.274-.286 3.2-.86v2.45c-1.017.544-2.34.817-3.964.817-1.776 0-3.155-.493-4.136-1.477s-1.472-2.358-1.472-4.12c0-1.826.53-3.273 1.6-4.34s2.363-1.6 3.9-1.6c1.604 0 2.845.477 3.722 1.43s1.316 2.245 1.316 3.878v1.43zm-3.147-2.084c0-1.576-.637-2.363-1.912-2.363-.544 0-1.015.225-1.413.676s-.64 1.014-.725 1.687h4.05zm8.367-8.787l-.42 10.613h-2.75l-.398-10.613h3.567zm-1.762 15.65c-.573 0-1.046-.174-1.418-.52s-.56-.768-.56-1.262a1.61 1.61 0 0 1 .564-1.268c.376-.33.847-.494 1.413-.494.573 0 1.042.167 1.407.5s.548.753.548 1.262c0 .516-.18.942-.543 1.278s-.832.505-1.412.505z"/></g><path d="M727.327 130.55l-42.098-1.07 24.403 34.32c-3.89-12.737 4.96-29.362 17.695-33.25z" class="C"/><use xlink:href="#O" class="D E K"/><g class="B C"><path d="M694.867 219.738h2.632v15.404h-2.632z"/><use xlink:href="#P"/><use xlink:href="#Q"/><path d="M729.337 235.4c-1.697 0-3.053-.513-4.066-1.54s-1.52-2.4-1.52-4.088c0-1.847.528-3.3 1.585-4.33s2.48-1.557 4.27-1.557c1.718 0 3.058.505 4.017 1.514s1.44 2.4 1.44 4.2c0 1.754-.518 3.16-1.553 4.216s-2.426 1.584-4.173 1.584zm.118-9.528c-.974 0-1.744.34-2.3 1.02s-.85 1.618-.85 2.814c0 1.153.286 2.06.86 2.723s1.34.994 2.3.994c.98 0 1.735-.326 2.26-.978s.8-1.58.8-2.782-.263-2.145-.8-2.804-1.28-.988-2.26-.988zm16.875-1.73l-4.254 11h-2.697l-4.05-11h2.707l2.438 7.7c.186.566.3 1.06.344 1.482h.032a8.01 8.01 0 0 1 .301-1.439l2.557-7.734h2.62zm9.024 11h-2.417v-1.72h-.043c-.76 1.318-1.873 1.976-3.34 1.976-1.082 0-1.928-.293-2.54-.88s-.918-1.365-.918-2.332c0-2.076 1.196-3.287 3.588-3.63l3.265-.462c0-1.57-.744-2.353-2.234-2.353-1.3 0-2.492.45-3.545 1.354v-2.18c1.16-.687 2.5-1.03 4.018-1.03 2.778 0 4.168 1.368 4.168 4.103v7.155zm-2.407-5.404l-2.3.323c-.716.093-1.255.266-1.617.52s-.542.7-.542 1.337a1.46 1.46 0 0 0 .5 1.144c.334.297.78.446 1.338.446.76 0 1.387-.267 1.885-.8s.746-1.204.746-2.014v-.956zm10.506 5.285c-.487.244-1.128.366-1.923.366-2.134 0-3.2-1.024-3.2-3.073v-6.22h-1.837v-1.955h1.837v-2.546l2.492-.7v3.255h2.632v1.955h-2.632v5.5c0 .65.118 1.117.354 1.396s.63.42 1.182.42c.423 0 .788-.122 1.096-.365v1.976z"/><use xlink:href="#R"/><use xlink:href="#M" x="-87.193"/><use xlink:href="#P" x="81.991"/></g><path d="M770.224 84.052c-.074 16.037-13.317 28.765-29.414 28.267-15.722-.488-28.078-14.172-27.197-30.123.86-15.538 14.823-27.66 30.518-26.435 3.923.306 7.64 1.43 11.124 3.293 1.16.62 2.253 1.08.715 2.59-1.303 1.28.116 3.55-1.764 4.98-1.498 1.14-2.327 1.816-4.387.823-12.3-5.926-26.368 2.973-26.396 16.52a18.56 18.56 0 0 0 11.427 17.133c7 2.9 15.19 1.154 20.394-4.323 5.2-5.472 6.565-13.384 3.498-20.275-1.47-3.3-.028-5.67 3.67-6.033.306-.03.724.1.907-.044 3.33-2.816 3.64.494 4.484 2.295 1.672 3.572 2.42 7.384 2.42 11.334" class="B G"/><path d="M741.97 72.9c.61.058 1.246.033 1.83.195.76.212 1.833.374 2.136.914.487.87-.666 1.336-1.19 1.886l-5.195 5.246c-1.676 1.734-1.967 3.68-.194 5.434 1.78 1.762 3.718 1.407 5.44-.26l5.03-4.976c.62-.582 1.14-1.898 2.106-1.34.593.342.786 1.588.927 2.465.903 5.6-2.934 11.054-8.65 12.38-5.53 1.284-11.244-2.15-12.92-7.767-1.652-5.53 1.322-11.474 6.767-13.456 1.253-.456 2.55-.8 3.915-.72" class="B L"/><path d="M763.857 57.393c-.576 3.786.795 5.292 4.66 4.564-2.756 2.344-3.88 6.36-8.303 6.095-1.038-.063-1.54.936-2.175 1.567l-14.18 14.12c-.7.7-1.454 2.257-2.702 1.027-1.257-1.238.297-2 .997-2.7L756.3 67.915c.98-.97 1.557-1.924 1.673-3.418.268-3.474 3.826-4.5 5.883-7.104" class="B G"/><path d="M579.83 2.027L553.625 34.99l42.094 1.187c-12.5-4.566-20.454-21.64-15.89-34.15z" class="H"/><use xlink:href="#L" x="-268" class="D E I"/><g class="B C"><path d="M552.322 219.738h2.632v15.404h-2.632zm15.404 15.405h-2.492v-1.87h-.043c-.802 1.418-2.037 2.127-3.706 2.127-1.354 0-2.437-.492-3.25-1.477s-1.22-2.325-1.22-4.023c0-1.82.45-3.276 1.348-4.372s2.097-1.643 3.594-1.643c1.482 0 2.56.594 3.233 1.783h.043v-6.8h2.492v16.286zm-2.46-5.028v-1.44c0-.78-.254-1.443-.763-1.988s-1.156-.816-1.944-.816c-.93 0-1.663.347-2.197 1.042s-.8 1.658-.8 2.9c0 1.117.256 2 .768 2.648s1.2.972 2.068.972c.852 0 1.543-.313 2.073-.94s.795-1.416.795-2.37zm14.287.205h-7.498c.028 1.017.342 1.8.94 2.353s1.42.827 2.465.827c1.174 0 2.252-.35 3.233-1.053v2c-1.002.63-2.327.945-3.974.945-1.62 0-2.888-.5-3.808-1.498s-1.38-2.405-1.38-4.216c0-1.712.507-3.107 1.52-4.185s2.272-1.616 3.776-1.616 2.668.483 3.5 1.45 1.236 2.3 1.236 4.028v.956zm-2.406-1.76c-.008-.896-.22-1.592-.634-2.1s-1-.746-1.72-.746a2.41 2.41 0 0 0-1.82.784c-.497.524-.804 1.207-.918 2.052h5.092zm13.353 1.76H583c.028 1.017.34 1.8.94 2.353s1.42.827 2.466.827c1.174 0 2.252-.35 3.233-1.053v2c-1.002.63-2.327.945-3.974.945-1.62 0-2.888-.5-3.8-1.498s-1.38-2.405-1.38-4.216c0-1.712.507-3.107 1.52-4.185a4.97 4.97 0 0 1 3.776-1.616c1.504 0 2.668.483 3.5 1.45s1.236 2.3 1.236 4.028v.956zm-2.407-1.76c-.007-.896-.218-1.592-.633-2.1s-1-.746-1.72-.746a2.41 2.41 0 0 0-1.82.784c-.497.524-.804 1.207-.918 2.052h5.1z"/><use xlink:href="#Q" x="-120.234"/><path d="M615.752 220.888a2.26 2.26 0 0 0-1.149-.29c-1.21 0-1.816.684-1.816 2.05v1.494h2.557v1.955h-2.546v9.045h-2.492v-9.045h-1.88v-1.955h1.88v-1.784c0-1.16.38-2.075 1.138-2.744s1.708-1.005 2.847-1.005c.616 0 1.103.068 1.46.204v2.074z"/><use xlink:href="#R" x="-148.486"/><use xlink:href="#Q" x="-90.985"/><path d="M643.476 235.143h-2.492v-1.87h-.043c-.802 1.418-2.038 2.127-3.706 2.127-1.354 0-2.437-.492-3.25-1.477s-1.22-2.325-1.22-4.023c0-1.82.45-3.276 1.348-4.372s2.097-1.643 3.593-1.643c1.483 0 2.56.594 3.234 1.783h.043v-6.81h2.492v16.286zm-2.46-5.028v-1.44c0-.78-.254-1.443-.763-1.988s-1.156-.816-1.944-.816c-.93 0-1.663.347-2.197 1.042s-.8 1.658-.8 2.9c0 1.117.256 2 .768 2.648s1.2.972 2.068.972c.852 0 1.543-.313 2.073-.94s.795-1.416.795-2.37z"/><use xlink:href="#S"/><path d="M666.732 235.143h-2.492v-6.2c0-2.055-.727-3.083-2.18-3.083a2.38 2.38 0 0 0-1.88.854c-.494.57-.74 1.288-.74 2.154v6.274h-2.503v-11h2.503v1.826h.043c.823-1.4 2.012-2.084 3.566-2.084 1.196 0 2.11.388 2.74 1.165s.945 1.9.945 3.368v6.725z"/></g><path d="M600.352 72h16.38v26.493h-16.38z" class="J"/><path d="M610.265 89.58c0-1.23.126-2.476-.024-3.688-.433-3.505.425-6.385 3.423-8.545.77-.554 2.26-1.432 1.053-2.68-1.23-1.27-1.972.294-2.703.974-3 2.8-2.957 2.8-5.96.002-.732-.68-1.474-2.245-2.704-.977-1.214 1.252.3 2.12 1.057 2.674 2.994 2.162 3.708 5.035 3.448 8.548-.25 3.365-.226 6.775.004 10.143.166 2.43-.75 3.13-2.946 2.767-.1-.016-.204-.002-.306-.002-5.302.016-5.437.014-5.38-5.137.033-3.113-2.088-4.786-3.8-6.73-4.427-4.998-5.77-10.733-4.285-17.152 1.73-7.466 8.08-13.047 15.762-13.994 7.52-.927 15.06 3.127 18.585 9.993 3.55 6.916 2.632 14.77-2.872 20.45-2.88 2.97-4.272 6.15-3.712 10.195.26 1.878-.44 2.423-2.356 2.428-6.275.02-6.275.106-6.275-6.192V89.58zm-1.285 11.68c2.148-.001 4.314-.173 6.434.066 1.2.135 3.333-1.312 3.47 1.47.118 2.434.123 5-2.863 5.648-1.54.33-2.407.94-3.35 2.133-1.952 2.473-5.368 2.313-7.455-.114-.624-.728-.858-1.643-2.16-1.884-3.367-.623-4.647-3.026-3.898-6.298.3-1.258 1.104-.996 1.85-1.006l7.974-.014" class="B F"/><path d="M459.327 130.55l-42.098-1.07 24.403 34.32c-3.89-12.737 4.96-29.362 17.695-33.25z" class="C"/><use xlink:href="#O" x="-268" class="D E K"/><g class="B C"><path d="M434.6 234.53v-2.632c.237.215.518.4.844.58s.67.316 1.036.435a8.32 8.32 0 0 0 1.096.274 5.88 5.88 0 0 0 1.01.096c1.074 0 1.874-.18 2.4-.537s.8-.877.8-1.558c0-.365-.087-.682-.263-.95a2.75 2.75 0 0 0-.736-.736 7.67 7.67 0 0 0-1.112-.639l-1.37-.64-1.46-.85c-.45-.286-.843-.603-1.176-.95a3.99 3.99 0 0 1-.785-1.176c-.2-.436-.284-.95-.284-1.536 0-.723.163-1.352.5-1.885a4.12 4.12 0 0 1 1.289-1.322c.533-.347 1.14-.605 1.82-.773a8.66 8.66 0 0 1 2.084-.253c1.612 0 2.786.183 3.524.548v2.525c-.874-.63-1.998-.946-3.373-.946-.38 0-.758.036-1.134.108s-.712.2-1 .354-.54.376-.725.634-.28.57-.28.935c0 .343.072.64.215.9a2.3 2.3 0 0 0 .63.688c.277.208.612.4 1 .607l1.38.64 1.52.88c.476.308.895.648 1.257 1.02s.648.786.86 1.24.317.972.317 1.552c0 .78-.158 1.44-.473 1.977a3.8 3.8 0 0 1-1.273 1.31c-.533.337-1.147.58-1.842.73s-1.43.225-2.202.225a9.2 9.2 0 0 1-.951-.059l-1.155-.172c-.394-.075-.766-.166-1.117-.273s-.634-.23-.85-.366zm20.67-10.387l-4.963 12.76c-1.03 2.278-2.478 3.416-4.34 3.416-.523 0-.96-.046-1.3-.14v-2.074c.394.13.752.194 1.074.194.93 0 1.626-.46 2.084-1.375l.74-1.805-4.372-10.978h2.76l2.62 7.992.193.795h.054l.193-.774 2.75-8.013h2.514zm10.708 11h-2.492v-6.2c0-2.055-.727-3.083-2.18-3.083a2.38 2.38 0 0 0-1.88.854c-.494.57-.742 1.288-.742 2.154v6.274h-2.502v-11h2.502v1.826h.043c.824-1.4 2.013-2.084 3.567-2.084 1.196 0 2.1.388 2.74 1.165s.945 1.9.945 3.368v6.725zm8.1-.12c-.487.244-1.128.366-1.923.366-2.134 0-3.202-1.024-3.202-3.073v-6.22h-1.836v-1.955h1.836v-2.546l2.493-.7v3.255h2.632v1.955h-2.632v5.5c0 .65.118 1.117.354 1.396s.63.42 1.182.42c.422 0 .788-.122 1.096-.365v1.976zm11.182.12h-2.493v-6.016c0-2.177-.726-3.266-2.18-3.266-.73 0-1.347.315-1.848.946s-.752 1.436-.752 2.417v5.92h-2.503v-16.286h2.503v7.112h.043c.83-1.4 2.02-2.084 3.567-2.084 2.442 0 3.663 1.493 3.663 4.48v6.78z"/><use xlink:href="#S" x="-158.443"/><path d="M497.805 234.8v-2.3c.93.7 1.96 1.064 3.083 1.064 1.504 0 2.256-.444 2.256-1.332 0-.25-.064-.464-.193-.64s-.303-.332-.52-.468-.476-.258-.773-.365l-.994-.365a10.91 10.91 0 0 1-1.22-.57 3.65 3.65 0 0 1-.903-.682c-.24-.254-.42-.542-.542-.864s-.183-.7-.183-1.128c0-.53.126-.998.376-1.402a3.33 3.33 0 0 1 1-1.02c.413-.275.902-.483 1.44-.623a6.63 6.63 0 0 1 1.665-.209c1.017 0 1.927.154 2.73.462v2.18c-.773-.53-1.66-.795-2.664-.795a3.5 3.5 0 0 0-.854.097 2.21 2.21 0 0 0-.65.269c-.18.114-.32.252-.42.413a.99.99 0 0 0-.15.532c0 .236.05.437.15.602s.25.3.446.435.433.24.7.343l.95.34 1.272.6c.376.2.697.427.962.682a2.67 2.67 0 0 1 .612.88c.142.332.215.728.215 1.187 0 .558-.13 1.045-.387 1.46s-.6.76-1.03 1.032a4.85 4.85 0 0 1-1.488.607 7.75 7.75 0 0 1-1.778.198c-1.203 0-2.245-.2-3.126-.6zm18.745-4.48h-7.498c.03 1.017.342 1.8.94 2.353s1.42.827 2.465.827c1.175 0 2.253-.35 3.234-1.053v2c-1.003.63-2.328.945-3.975.945-1.618 0-2.888-.5-3.808-1.498s-1.38-2.405-1.38-4.216c0-1.712.506-3.107 1.52-4.185a4.97 4.97 0 0 1 3.776-1.616c1.503 0 2.667.483 3.5 1.45s1.235 2.3 1.235 4.028v.956zm-2.406-1.76c-.007-.896-.22-1.592-.634-2.1s-.988-.746-1.72-.746a2.41 2.41 0 0 0-1.82.784c-.497.524-.804 1.207-.92 2.052h5.092z"/></g><path d="M476.345 60.8l23.063.037c1.31.013 3.29-.845 3.8.958.518 1.872.737 3.958-.976 5.732-5.055 5.234-10.217 10.392-14.902 15.948-2.922 3.464-6.106 4.483-10.545 4.614-5.193.154-8.804-1.356-12.095-5.325-4.3-5.198-9.147-9.963-13.848-14.827-1.25-1.293-1.617-2.644-1.665-4.38-.06-2.197.78-2.818 2.886-2.794l24.292.037" class="B G"/><path d="M483.716 103.777l.005 11.388c.01 2.276-.896 2.77-2.834 1.592l-10.29-6.157c-1.175-.69-1.7-1.556-1.7-2.978l-.01-15.08c-.04-1.787.56-2.278 2.276-2.22 3.484.117 6.977.104 10.463.005 1.582-.046 2.163.41 2.115 2.064-.1 3.792-.035 7.59-.035 11.387" class="B L"/><path d="M312.01 2.027L285.803 34.99l42.095 1.187c-12.5-4.566-20.454-21.64-15.89-34.15z" class="H"/><path d="M313.123 22.28c33.508-15.59 73.368-1.043 88.958 32.465s1.043 73.368-32.464 88.958-73.37 1.043-88.958-32.465c-4.257-9.15-6.267-18.773-6.258-28.246" class="D E I"/><g class="B C"><path d="M307.783 222.493h-8.646v-15.4h8.316v2.156h-5.742v4.378h5.28v2.156h-5.28v4.554h6.072v2.156z"/><use xlink:href="#B" x="-791.048"/><use xlink:href="#C" x="-791.058"/><use xlink:href="#K" x="-637.983" y="-25.3"/><use xlink:href="#F" x="-768.324" y="-25.3"/><use xlink:href="#T"/><use xlink:href="#G" x="-756.26" y="-25.3"/><use xlink:href="#D" x="-761.304"/><path d="M310.35 233.537c-.33-.198-.704-.286-1.144-.286-1.2 0-1.804.682-1.804 2.046v1.496h2.552v1.958h-2.552v9.042h-2.486v-9.042h-1.892v-1.958h1.892v-1.782c0-1.166.374-2.068 1.144-2.75.748-.66 1.694-1 2.838-1 .616 0 1.1.066 1.452.198v2.068zm10.23 14.256h-2.508v-1.738h-.022c-.726 1.32-1.848 2.002-3.388 2.002-2.596 0-3.894-1.562-3.894-4.686v-6.578h2.486v6.314c0 1.98.77 2.97 2.288 2.97.748 0 1.342-.264 1.826-.814s.704-1.254.704-2.134v-6.336h2.508v11zm-2.596-12.914c-.374 0-.682-.132-.946-.374-.264-.22-.374-.528-.374-.902a1.15 1.15 0 0 1 .374-.88 1.32 1.32 0 0 1 .902-.352 1.4 1.4 0 0 1 .968.374c.264.242.396.528.396.858 0 .352-.132.66-.374.902-.264.242-.572.374-.946.374zm-4.488 0c-.352 0-.682-.132-.946-.374s-.396-.55-.396-.902c0-.33.132-.638.374-.88.264-.22.572-.352.946-.352.352 0 .682.132.946.374s.396.528.396.858c0 .352-.132.66-.396.902a1.26 1.26 0 0 1-.924.374z"/><use xlink:href="#H" x="-819.658"/><use xlink:href="#B" x="-764.775" y="25.3"/><use xlink:href="#G" x="-772.245"/><path d="M367.417 247.287c-.88.506-1.936.77-3.124.77-1.65 0-2.97-.506-3.96-1.54-1.012-1.012-1.496-2.332-1.496-3.96 0-1.826.528-3.278 1.606-4.378s2.508-1.65 4.334-1.65c1 0 1.87.176 2.64.528v2.332c-.77-.572-1.584-.858-2.442-.858-1.056 0-1.914.352-2.596 1.056-.66.726-1.012 1.65-1.012 2.794s.33 2.046.946 2.706c.638.66 1.496 1 2.552 1 .902 0 1.76-.33 2.552-.968v2.178z"/><use xlink:href="#T" x="10.676" y="25.3"/></g><path d="M371.184 74.754c-.2 7.808-3.025 13.365-7.474 18.192-5.767 6.258-13.237 10.315-19.94 15.365-.875.66-1.46.32-2.165-.213-5.316-4.014-11.126-7.353-16.156-11.76-6.14-5.378-10.7-11.666-10.915-20.202-.173-6.92 2.94-12.134 9.16-15.1 6.248-2.98 12.237-1.992 17.432 2.564 1.42 1.244 2.035 1.186 3.414-.02 5.21-4.553 11.178-5.493 17.437-2.537 6.147 2.903 8.98 8.104 9.207 13.71" class="B F"/><path d="M320.587 75.997c.4-4.56 2.82-8.024 7.165-10.097 1.627-.776 3.23-1.21 4.798-1.315" stroke="#ffb301" stroke-width="2.5" stroke-linejoin="round" stroke-miterlimit="2" class="D"/><path d="M191.506 130.55l-42.098-1.07 24.403 34.32c-3.89-12.737 4.958-29.362 17.695-33.25z" class="C"/><use xlink:href="#I" x="-803.642" class="D E K"/><g class="B C"><path d="M172.093 216.905v5.588h-2.552v-15.4h4.686c1.76 0 3.146.418 4.114 1.232s1.452 1.98 1.452 3.476-.506 2.728-1.518 3.674-2.398 1.43-4.136 1.43h-2.046zm0-7.7v5.6h1.65c1.1 0 1.936-.242 2.508-.748s.858-1.232.858-2.156c0-1.804-1.056-2.706-3.146-2.706h-1.87z"/><use xlink:href="#H" x="-961.348" y="-25.3"/><path d="M193.463 222.757c-1.694 0-3.036-.528-4.048-1.54-1.012-1.034-1.518-2.398-1.518-4.092 0-1.848.528-3.3 1.584-4.334s2.464-1.562 4.268-1.562c1.716 0 3.058.506 4.004 1.518.968 1.012 1.452 2.42 1.452 4.202 0 1.76-.528 3.168-1.562 4.224s-2.42 1.584-4.18 1.584zm.132-9.526c-.968 0-1.738.33-2.3 1.012s-.858 1.628-.858 2.816c0 1.144.286 2.068.858 2.728s1.342 1 2.3 1 1.738-.33 2.266-1c.506-.638.77-1.562.77-2.772s-.264-2.156-.77-2.794c-.528-.66-1.298-1-2.266-1zm9.932 7.68h-.044v1.584h-2.486v-16.28h2.486v7.216h.044c.858-1.474 2.1-2.2 3.74-2.2 1.386 0 2.464.506 3.256 1.474.792 1 1.188 2.3 1.188 3.96 0 1.848-.44 3.322-1.342 4.422-.88 1.122-2.068 1.672-3.608 1.672-1.43 0-2.508-.616-3.234-1.848zm-.066-4.378v1.364c0 .792.264 1.474.77 2.046.506.55 1.166.836 1.958.836.924 0 1.65-.352 2.156-1.078.528-.726.792-1.738.792-3.014 0-1.078-.242-1.936-.726-2.552-.484-.594-1.166-.902-2.002-.902-.88 0-1.606.308-2.134.946-.55.616-.814 1.408-.814 2.354zm10.05-10.32h2.508v16.28H213.5z"/><use xlink:href="#D" x="-918.323"/><use xlink:href="#B" x="-871.103"/><path d="M172.9 236.793l-4.246 11h-2.706l-4.048-11h2.706l2.442 7.7c.198.55.308 1.056.352 1.474h.022c.066-.528.176-1.012.308-1.43l2.552-7.744h2.618z"/><use xlink:href="#D" x="-963.153" y="25.3"/><use xlink:href="#H" x="-958.109"/><use xlink:href="#J" x="-800.7" y="25.3"/><use xlink:href="#F" x="-918.667"/><path d="M217.3 242.975H209.8c.044 1.012.352 1.804.946 2.354s1.43.814 2.464.814c1.166 0 2.244-.352 3.234-1.056v2.024c-1.012.616-2.332.946-3.982.946-1.606 0-2.882-.506-3.806-1.496-.924-1.012-1.364-2.42-1.364-4.224 0-1.716.506-3.102 1.518-4.18a4.96 4.96 0 0 1 3.762-1.628c1.518 0 2.662.484 3.498 1.452.814.968 1.232 2.3 1.232 4.026v.968zm-2.398-1.76c-.022-.902-.22-1.606-.638-2.1-.418-.506-1-.748-1.716-.748s-1.32.264-1.826.77c-.506.528-.814 1.2-.924 2.068h5.104z"/><use xlink:href="#T" x="-139.526" y="25.3"/><use xlink:href="#D" x="-905.846" y="25.3"/><use xlink:href="#E" x="-935.526" y="25.3"/></g><circle cx="207.085" cy="87.201" r="11.998" class="L"/><path d="M210.757 85.34c-.132-1.7-1.005-2.896-2.612-3.414-1.64-.53-3.042.026-4.037 1.403-1.016 1.406-1.057 2.982.113 4.227 1.013 1.08 1.923 2.008 1.675 3.645-.114.757.283 1.46 1.173 1.47s1.304-.684 1.2-1.442c-.222-1.62.528-2.65 1.67-3.645.6-.522.877-1.37.817-2.245m-14.583-14.937c7.44-4.653 14.584-4.5 21.813-.058.608-5.635.16-10.586-4.816-13.844-3.852-2.524-7.908-2.608-11.85-.205-5.24 3.19-5.755 8.25-5.146 14.107m29.374 13.52c.025 9.36-5.017 16.392-12.57 18.962-7.415 2.523-15.648.067-20.424-6.092-4.923-6.35-5.373-14.95-.807-21.506 1.39-1.996 1.897-3.916 1.82-6.236-.08-2.342-.187-4.695.494-7.02 1.87-6.38 7.987-10.55 14.536-9.806 6.412.728 11.518 6.03 11.996 12.478.06.816.085 1.643.033 2.46-.2 3.318.17 6.33 2.392 9.16 1.98 2.523 2.507 5.785 2.53 7.602" class="B G"/><path d="M7.133 29.702L1.3 71.407 38.164 51.05c-13.095 2.42-28.61-8.254-31.03-21.35z" class="H"/><path d="M18.378 46.583c20.947-30.448 62.673-38.16 93.12-17.214s38.16 62.673 17.213 93.12-62.672 38.16-93.12 17.213C21 129.663 11.63 114.852 8.133 98.797" class="D E I"/><g class="B C"><path d="M19.004 221.908h-4.426v13.235h-2.556v-13.235H7.607v-2.17h11.397v2.17zm8.41 8.412h-7.498c.028 1.017.342 1.8.94 2.353s1.42.827 2.465.827c1.175 0 2.252-.35 3.233-1.053v2c-1.002.63-2.327.945-3.974.945-1.62 0-2.888-.5-3.808-1.498s-1.38-2.405-1.38-4.216c0-1.712.507-3.107 1.52-4.185s2.272-1.616 3.776-1.616 2.668.483 3.5 1.45 1.236 2.3 1.236 4.028v.956zm-2.406-1.76c-.008-.896-.22-1.592-.634-2.1s-.988-.746-1.72-.746a2.41 2.41 0 0 0-1.82.784c-.497.524-.804 1.207-.918 2.052h5.092zm12.49 6.583h-2.417v-1.72h-.042c-.76 1.318-1.873 1.976-3.34 1.976-1.082 0-1.93-.293-2.54-.88s-.918-1.365-.918-2.332c0-2.076 1.196-3.287 3.588-3.63l3.265-.462c0-1.57-.745-2.353-2.234-2.353-1.3 0-2.492.45-3.545 1.354v-2.18c1.16-.687 2.5-1.03 4.018-1.03 2.778 0 4.167 1.368 4.167 4.103v7.155zm-2.406-5.404l-2.3.323c-.716.093-1.255.266-1.617.52s-.543.7-.543 1.337c0 .465.167.847.5 1.144s.78.446 1.337.446c.76 0 1.388-.267 1.886-.8s.746-1.204.746-2.014v-.956zm21.14 5.404h-2.492v-5.995c0-1.153-.163-1.987-.5-2.502s-.875-.774-1.65-.774c-.65 0-1.205.326-1.66.978s-.683 1.432-.683 2.34v5.952h-2.5v-6.2c0-2.048-.723-3.072-2.17-3.072-.674 0-1.227.308-1.66.924s-.65 1.414-.65 2.395v5.952h-2.5v-11h2.492v1.74h.043c.795-1.332 1.95-1.998 3.47-1.998.76 0 1.423.2 1.992.628a3.13 3.13 0 0 1 1.166 1.649c.816-1.518 2.034-2.277 3.652-2.277 2.42 0 3.63 1.493 3.63 4.48v6.78zm18.433.01l-1.408-1.493a6.37 6.37 0 0 1-1.025.736 7.24 7.24 0 0 1-1.193.553 7.82 7.82 0 0 1-1.305.344c-.45.08-.906.118-1.364.118-.774 0-1.472-.1-2.095-.3s-1.155-.485-1.595-.854-.78-.8-1.02-1.326-.36-1.1-.36-1.72c0-1.77 1.175-3.26 3.524-4.47-1.08-1.34-1.622-2.528-1.622-3.566a3.45 3.45 0 0 1 .317-1.483 3.42 3.42 0 0 1 .886-1.165c.38-.325.832-.582 1.36-.768a5.14 5.14 0 0 1 1.724-.28c.594 0 1.133.083 1.617.248a3.72 3.72 0 0 1 1.24.687 3.03 3.03 0 0 1 .795 1.047c.186.405.28.844.28 1.316 0 .466-.06.887-.178 1.263s-.308.728-.57 1.058-.605.644-1.03.945-.947.602-1.563.902l1.713 1.816 1.757 1.815a5.24 5.24 0 0 0 .413-.773 7.08 7.08 0 0 0 .322-.903c.1-.315.16-.64.2-.977l.075-.988h2.18c0 1.97-.623 3.7-1.87 5.167l1.22 1.267 1.735 1.783h-3.17zm-3.492-12.18a1.65 1.65 0 0 0-.134-.666 1.75 1.75 0 0 0-.36-.543c-.15-.154-.326-.276-.526-.365a1.57 1.57 0 0 0-.645-.134c-.3 0-.574.044-.82.134a1.77 1.77 0 0 0-.634.387 1.75 1.75 0 0 0-.408.596 1.94 1.94 0 0 0-.145.763c0 .658.47 1.5 1.407 2.556 1.5-.773 2.266-1.683 2.266-2.728zm.785 9.292l-3.932-4.2c-.788.408-1.355.845-1.703 1.3s-.52 1-.52 1.633c0 .38.07.72.2 1.025a2.18 2.18 0 0 0 .575.78 2.52 2.52 0 0 0 .864.494c.333.115.693.172 1.08.172 1.346 0 2.5-.408 3.427-1.224zm24.534-12.527l-5.532 15.405h-2.858l-5.435-15.405h2.793l3.802 11.688a7.21 7.21 0 0 1 .28 1.3h.043a6.87 6.87 0 0 1 .311-1.322l3.9-11.666h2.707z"/><use xlink:href="#U"/><path d="M101.833 234.8v-2.3c.93.71 1.958 1.064 3.083 1.064 1.504 0 2.256-.444 2.256-1.332 0-.25-.065-.464-.194-.64s-.302-.332-.52-.468-.476-.258-.773-.365l-.994-.365a10.47 10.47 0 0 1-1.219-.57c-.362-.2-.663-.427-.902-.682s-.42-.542-.543-.864-.183-.7-.183-1.128c0-.53.126-.998.376-1.402s.588-.745 1-1.02.902-.483 1.44-.623 1.092-.21 1.665-.21c1.017 0 1.926.154 2.728.462v2.18c-.773-.53-1.66-.795-2.664-.795a3.5 3.5 0 0 0-.854.097 2.21 2.21 0 0 0-.65.269c-.18.114-.318.252-.42.413a.99.99 0 0 0-.15.532c0 .236.05.437.15.602s.25.31.446.435.433.24.71.343l.95.34 1.273.59c.376.2.696.427.96.682s.47.548.612.88.215.728.215 1.187c0 .558-.13 1.045-.386 1.46a3.22 3.22 0 0 1-1.032 1.032c-.43.272-.925.474-1.488.607s-1.154.198-1.777.198c-1.203 0-2.245-.2-3.126-.6z"/><use xlink:href="#U" x="13.748"/><path d="M121.146 235.4c-1.697 0-3.052-.513-4.066-1.54s-1.52-2.4-1.52-4.088c0-1.847.528-3.3 1.585-4.33s2.48-1.557 4.27-1.557c1.718 0 3.058.505 4.017 1.514s1.44 2.4 1.44 4.2c0 1.754-.518 3.16-1.553 4.216s-2.425 1.584-4.173 1.584zm.118-9.528c-.974 0-1.744.34-2.3 1.02s-.85 1.618-.85 2.814c0 1.153.287 2.06.86 2.723s1.34.994 2.3.994c.98 0 1.735-.326 2.262-.978s.8-1.58.8-2.782-.263-2.145-.8-2.804-1.28-.988-2.262-.988zm17.198 9.27h-2.492v-6.2c0-2.055-.727-3.083-2.18-3.083a2.38 2.38 0 0 0-1.88.854c-.494.57-.74 1.288-.74 2.154v6.274h-2.503v-11h2.503v1.826h.043c.824-1.4 2.012-2.084 3.566-2.084 1.196 0 2.1.388 2.74 1.165s.945 1.9.945 3.368v6.725z"/></g><path d="M45.317 93.918c.578-1.127 1.05-2.325 1.753-3.37 4.124-6.135 13.5-5.612 16.793 1.004.434.873.137 2.32-.244 3.345-.72 1.942-1.703 3.794-2.67 5.635-.366.697-.93 1.73-1.508 1.805-4.845.622-9.68.807-14.123-1.82v-6.6zm55 6.6c-4.815 2.8-9.96 2.382-14.468 1.848-1.6-2.977-2.984-5.4-4.158-7.907-.352-.753-.406-1.946-.055-2.677 1.7-3.516 4.632-5.394 8.506-5.518 4.012-.13 7 1.754 9 5.22.447.78.786 1.62 1.175 2.433v6.6zm-34.65-41.8l1.312.916c2.128 1.56 3.065 3.62 2.236 6.184-.814 2.518-2.675 3.907-5.337 3.85-2.536-.054-4.304-1.446-5.067-3.85-.814-2.566.1-4.627 2.242-6.185l1.314-.914h3.3zm17.6 0l1.212.994c2.17 1.693 2.983 4.16 1.986 6.515-.984 2.32-2.824 3.583-5.358 3.436-2.515-.146-4.255-1.536-4.956-3.982-.722-2.52.298-4.807 2.647-6.285l1.17-.678h3.3z" class="F B"/><path d="M72.872 109.4l-4.264-.334c-5.743-.893-6.4-1.81-5.6-7.572.718-5.157 5.25-8.936 10.37-8.65 5.053.284 9.062 4.34 9.335 9.446.288 5.4-.033 5.84-5.35 6.712-1.53.25-3.094.28-4.493.397" class="B J"/><path d="M61.8 78.596c-.03 3.645-3.038 6.58-6.683 6.518-3.612-.062-6.58-3.16-6.472-6.756.106-3.485 3.1-6.4 6.572-6.4 3.614-.01 6.613 3.014 6.583 6.64m35.2.144a6.6 6.6 0 0 1-6.829 6.371c-3.495-.135-6.36-3.137-6.327-6.628.035-3.593 3.134-6.604 6.72-6.528 3.617.077 6.544 3.162 6.437 6.785" class="F B"/><path d="M79.41 85.04a6.59 6.59 0 0 1-6.53 6.674c-3.62.02-6.643-3-6.624-6.6.016-3.484 2.923-6.457 6.414-6.556 3.6-.103 6.685 2.863 6.74 6.482" class="B J"/><g class="F"><path d="M81.53 87.632c.537-6.06-1.847-9.678-7.15-11.248 1.073-4.585 5.236-6.57 10.232-4.75-3.84 4.552-4.137 9.16.066 13.74l-3.148 2.26M71.247 76.388c-5.346 1.706-7.608 5.33-7.108 11.275l-3.035-2.186c4-5.814 3.985-7.73.027-13.896 4.406-1.8 8.295-.05 10.116 4.807" class="B"/><path d="M805.6 306c0-3.863-3.137-7-7-7H7c-3.863 0-7 3.137-7 7v14c0 3.863 3.137 7 7 7h791.6c3.863 0 7-3.137 7-7v-14z"/></g><g fill="#fff" class="B"><path d="M24.347 318.977v-15.404h5.457c5.47 0 8.207 2.503 8.207 7.5 0 2.4-.747 4.314-2.24 5.747s-3.482 2.148-5.967 2.148h-5.457zm3.47-12.58v9.765h1.72c1.504 0 2.684-.452 3.54-1.354s1.283-2.13 1.283-3.685c0-1.468-.424-2.622-1.272-3.464s-2.04-1.262-3.572-1.262h-1.698zm21.56 8.047H42.2c.114 1.597 1.12 2.395 3.018 2.395 1.2 0 2.274-.286 3.2-.86v2.45c-1.017.544-2.338.817-3.964.817-1.776 0-3.155-.493-4.136-1.477s-1.472-2.358-1.472-4.12c0-1.826.53-3.273 1.6-4.34s2.364-1.6 3.9-1.6c1.605 0 2.845.477 3.723 1.43s1.316 2.245 1.316 3.878v1.43zm-3.148-2.084c0-1.576-.637-2.363-1.912-2.363-.544 0-1.015.225-1.413.676s-.64 1.014-.725 1.687h4.05zm3.706 6.327v-2.75c.558.337 1.115.587 1.67.752a5.53 5.53 0 0 0 1.574.247c.6 0 1.076-.082 1.423-.247s.52-.415.52-.752a.7.7 0 0 0-.236-.537 2.2 2.2 0 0 0-.607-.376 6.83 6.83 0 0 0-.811-.29l-.85-.3c-.437-.165-.822-.342-1.155-.532a3.32 3.32 0 0 1-.837-.661c-.226-.25-.398-.54-.516-.87s-.177-.72-.177-1.17c0-.615.134-1.145.402-1.6s.627-.808 1.075-1.1a4.72 4.72 0 0 1 1.536-.623 8.03 8.03 0 0 1 1.799-.199c.487 0 .98.038 1.483.113s.995.185 1.482.328v2.62a5.49 5.49 0 0 0-1.38-.564c-.48-.124-.973-.188-1.445-.188-.222 0-.432.02-.63.06a2.11 2.11 0 0 0-.521.172c-.15.075-.268.172-.354.3a.69.69 0 0 0-.13.403c0 .2.064.372.193.515a1.68 1.68 0 0 0 .505.371 4.95 4.95 0 0 0 .693.279l.757.253c.452.157.86.33 1.225.515s.68.405.94.656.462.544.602.88.2.737.2 1.203c0 .65-.14 1.208-.424 1.67a3.4 3.4 0 0 1-1.128 1.128 5.13 5.13 0 0 1-1.622.634 9.03 9.03 0 0 1-1.907.199c-1.2 0-2.33-.187-3.362-.56zm11.376-12.45c-.573 0-1.042-.17-1.407-.5a1.63 1.63 0 0 1-.548-1.252c0-.508.183-.924.548-1.246s.834-.483 1.407-.483c.58 0 1.05.16 1.413.483s.542.738.542 1.246c0 .516-.18.938-.542 1.268s-.833.494-1.413.494zm1.676 12.74H59.6v-11h3.395v11zm12.9-1.257c0 2.04-.6 3.622-1.773 4.743s-2.893 1.68-5.134 1.68c-1.483 0-2.657-.2-3.524-.634v-2.857c1.132.66 2.274.988 3.427.988 1.146 0 2.034-.302 2.664-.908s.945-1.427.945-2.465v-.87h-.043c-.773 1.232-1.915 1.848-3.427 1.848-1.403 0-2.517-.495-3.34-1.483s-1.236-2.313-1.236-3.974c0-1.862.46-3.34 1.375-4.437s2.124-1.644 3.62-1.644c1.34 0 2.342.516 3.008 1.547h.043v-1.278h3.395v9.743zm-3.352-4.028v-.87c0-.695-.206-1.288-.617-1.778s-.948-.736-1.606-.736c-.752 0-1.343.294-1.773.88s-.644 1.414-.644 2.48c0 .917.204 1.642.612 2.176s.967.8 1.676.8c.7 0 1.27-.27 1.702-.8s.65-1.255.65-2.143zm16.07 5.285H85.22v-6.112c0-1.705-.6-2.557-1.826-2.557a1.81 1.81 0 0 0-1.45.677c-.38.45-.57 1.024-.57 1.72v6.273H77.98v-11h3.395v1.74h.042c.8-1.34 1.988-2 3.535-2 2.435 0 3.652 1.512 3.652 4.534v6.735zm19.216-15.404l-5.017 9.926v5.478h-3.47v-5.414l-4.887-10H98.4l2.48 5.747c.043.107.16.526.355 1.257h.043c.093-.516.204-.92.333-1.214l2.524-5.8h3.674zm3.932 15.673c-1.833 0-3.275-.514-4.324-1.542s-1.574-2.422-1.574-4.184c0-1.82.545-3.242 1.633-4.27s2.56-1.542 4.415-1.542c1.826 0 3.26.514 4.297 1.542s1.558 2.387 1.558 4.077c0 1.826-.536 3.27-1.606 4.33s-2.537 1.6-4.4 1.6zm.086-8.938c-.802 0-1.425.276-1.87.827s-.666 1.332-.666 2.342c0 2.113.852 3.17 2.556 3.17 1.626 0 2.44-1.085 2.44-3.255 0-2.055-.82-3.083-2.46-3.083zm17.832 8.67h-3.383V317.3h-.054c-.838 1.296-1.96 1.945-3.362 1.945-2.55 0-3.825-1.544-3.825-4.63v-6.64h3.384v6.338c0 1.554.616 2.33 1.848 2.33.6 0 1.095-.213 1.46-.64s.548-1.005.548-1.735v-6.295h3.383v11zm9.3-7.937c-.408-.222-.885-.333-1.43-.333-.737 0-1.314.27-1.73.8s-.623 1.276-.623 2.207v5.253h-3.395v-11h3.395v2.04h.043c.537-1.5 1.503-2.234 2.9-2.234.358 0 .637.043.838.13v3.126zm15.673 7.937h-9.174v-15.404h3.47v12.6h5.704v2.814z"/><use xlink:href="#N" x="-839.304"/><path d="M168.317 305.3c-.437-.17-.856-.257-1.257-.257-1.088 0-1.632.6-1.632 1.772v1.17h2.513v2.503h-2.513v8.497h-3.384v-8.497h-1.848v-2.503h1.848v-1.364c0-1.253.408-2.263 1.224-3.03s1.927-1.15 3.33-1.15c.688 0 1.26.072 1.72.215v2.642zm10.398 9.154h-7.176c.115 1.597 1.12 2.395 3.02 2.395 1.2 0 2.274-.286 3.2-.86v2.45c-1.017.544-2.338.817-3.963.817-1.777 0-3.155-.493-4.136-1.477s-1.472-2.358-1.472-4.12c0-1.826.53-3.273 1.6-4.34s2.363-1.6 3.9-1.6c1.604 0 2.845.477 3.722 1.43s1.316 2.245 1.316 3.878v1.43zm-3.147-2.084c0-1.576-.638-2.363-1.912-2.363-.545 0-1.016.225-1.413.676s-.64 1.014-.725 1.687h4.05zm8.367-8.787l-.42 10.613h-2.75l-.397-10.613h3.566zm-1.76 15.65c-.573 0-1.046-.174-1.418-.52a1.66 1.66 0 0 1-.559-1.262 1.61 1.61 0 0 1 .564-1.268c.376-.33.847-.494 1.413-.494.573 0 1.042.167 1.407.5s.548.753.548 1.262c0 .516-.18.942-.543 1.278s-.832.505-1.412.505z"/></g><defs ><path id="B" d="M1117 222.493h-2.486v-5.984c0-1.166-.154-2.002-.484-2.508-.33-.528-.88-.77-1.65-.77-.66 0-1.2.308-1.672.968-.44.66-.682 1.43-.682 2.332v5.962h-2.486v-6.204c0-2.046-.726-3.058-2.178-3.058-.682 0-1.232.308-1.65.924-.44.616-.66 1.408-.66 2.376v5.962h-2.486v-11h2.486v1.738h.044c.792-1.32 1.958-2.002 3.476-2.002.748 0 1.408.22 1.98.638s.968.968 1.166 1.65c.814-1.518 2.046-2.288 3.652-2.288 2.42 0 3.63 1.496 3.63 4.488v6.776z"/><path id="C" d="M1121.85 220.865h-.044v6.688h-2.486v-16.06h2.486v1.936h.044c.858-1.474 2.1-2.2 3.74-2.2 1.386 0 2.486.506 3.256 1.474.792 1 1.188 2.3 1.188 3.96 0 1.826-.44 3.3-1.342 4.4-.88 1.1-2.068 1.65-3.608 1.65-1.386 0-2.486-.616-3.234-1.848zm-.066-4.334v1.364c0 .792.264 1.474.77 2.046.506.55 1.166.836 1.958.836.924 0 1.65-.352 2.156-1.078.528-.726.792-1.738.792-3.014 0-1.078-.242-1.936-.726-2.552-.484-.594-1.166-.902-2.002-.902-.88 0-1.606.308-2.134.946-.55.616-.814 1.408-.814 2.354z"/><path id="D" d="M1146.146 217.675h-7.502c.044 1.012.352 1.804.946 2.354s1.43.814 2.464.814c1.166 0 2.244-.352 3.234-1.056v2.024c-1.012.616-2.332.946-3.982.946-1.606 0-2.882-.506-3.806-1.496-.924-1.012-1.364-2.42-1.364-4.224 0-1.716.506-3.102 1.518-4.18a4.96 4.96 0 0 1 3.762-1.628c1.518 0 2.662.484 3.498 1.452.814.968 1.232 2.3 1.232 4.026v.968zm-2.398-1.76c-.022-.902-.22-1.606-.638-2.1-.418-.506-1-.748-1.716-.748s-1.32.264-1.826.77c-.506.528-.814 1.2-.924 2.068h5.104z"/><path id="E" d="M1187.266 222.493h-2.486v-6.204c0-2.046-.726-3.08-2.178-3.08a2.4 2.4 0 0 0-1.892.858c-.484.572-.748 1.276-.748 2.156v6.27h-2.486v-11h2.486v1.826h.044c.836-1.386 2.024-2.1 3.586-2.1 1.188 0 2.1.396 2.728 1.166.638.792.946 1.914.946 3.366v6.732z"/><path id="F" d="M1125.37 247.683c-.484.242-1.122.352-1.914.352-2.134 0-3.212-1.012-3.212-3.058v-6.226h-1.826v-1.958h1.826v-2.552l2.508-.704v3.256h2.618v1.958h-2.618v5.5c0 .638.1 1.122.352 1.386.242.286.638.418 1.188.418.418 0 .77-.1 1.078-.352v1.98z"/><path id="G" d="M1128.045 234.483c-.418 0-.77-.132-1.056-.396s-.44-.594-.44-1.012c0-.396.154-.748.44-1.012.286-.286.638-.418 1.056-.418a1.51 1.51 0 0 1 1.078.418c.286.264.44.616.44 1.012a1.3 1.3 0 0 1-.44.99 1.51 1.51 0 0 1-1.078.418zm1.232 13.3h-2.486v-11h2.486v11z"/><path id="H" d="M1149.122 239.17c-.308-.242-.748-.352-1.298-.352-.748 0-1.364.33-1.848 1-.506.66-.748 1.584-.748 2.728v5.258h-2.486v-11h2.486v2.266h.044c.242-.77.616-1.386 1.122-1.804.506-.44 1.078-.66 1.694-.66.44 0 .792.066 1.034.198v2.376z"/><path id="I" d="M979.65 143.637c32.625 17.362 73.207 4.97 90.57-27.654s4.97-73.207-27.653-90.57-73.208-4.97-90.57 27.653c-5.084 9.554-7.616 19.79-7.837 29.925"/><path id="J" d="M992.17 222.14v-2.3c.946.726 1.98 1.078 3.102 1.078 1.496 0 2.244-.44 2.244-1.342 0-.242-.066-.462-.198-.638-.1-.176-.286-.33-.506-.462s-.484-.264-.77-.374l-1.012-.352a10.38 10.38 0 0 1-1.21-.572c-.352-.198-.66-.44-.902-.682-.242-.264-.418-.55-.55-.858a3.57 3.57 0 0 1-.176-1.144 2.61 2.61 0 0 1 .374-1.386c.242-.418.594-.748 1.012-1.034.418-.264.902-.484 1.43-.616.55-.154 1.1-.22 1.672-.22 1.012 0 1.936.154 2.728.462v2.178c-.77-.528-1.65-.792-2.662-.792a3.52 3.52 0 0 0-.858.11c-.242.066-.462.154-.638.264s-.33.242-.418.418c-.1.154-.154.33-.154.528 0 .242.044.44.154.594.088.176.242.308.44.44s.44.242.704.352l.946.33 1.276.594c.374.198.704.418.968.682.264.242.462.55.616.88.132.33.198.726.198 1.188 0 .55-.1 1.034-.374 1.452s-.594.77-1.034 1.034a5.09 5.09 0 0 1-1.496.616 7.57 7.57 0 0 1-1.76.198c-1.2 0-2.244-.198-3.146-.616z"/><path id="K" d="M986.95 247.793h-2.42v-1.716h-.044c-.77 1.32-1.87 1.98-3.344 1.98-1.078 0-1.936-.308-2.552-.88-.594-.594-.902-1.364-.902-2.332 0-2.1 1.188-3.3 3.586-3.63l3.256-.462c0-1.584-.748-2.354-2.222-2.354-1.32 0-2.508.44-3.564 1.342v-2.178c1.166-.682 2.508-1.034 4.026-1.034 2.772 0 4.18 1.364 4.18 4.114v7.15zm-2.42-5.412l-2.3.33c-.704.088-1.254.264-1.606.528-.374.242-.55.704-.55 1.342a1.5 1.5 0 0 0 .506 1.144c.33.286.77.44 1.342.44.748 0 1.386-.264 1.87-.814.506-.528.748-1.188.748-2.002v-.968z"/><path id="L" d="M848.945 22.28c33.507-15.59 73.368-1.043 88.958 32.465s1.043 73.368-32.465 88.958-73.368 1.043-88.958-32.465c-4.257-9.15-6.267-18.773-6.257-28.246"/><path id="M" d="M861.935 235.4c-1.697 0-3.053-.513-4.066-1.54s-1.52-2.4-1.52-4.088c0-1.847.528-3.3 1.584-4.33s2.48-1.557 4.27-1.557c1.72 0 3.058.505 4.018 1.514s1.44 2.4 1.44 4.2c0 1.754-.517 3.16-1.552 4.216s-2.426 1.584-4.173 1.584zm.118-9.528c-.974 0-1.744.34-2.3 1.02s-.848 1.618-.848 2.814c0 1.153.286 2.06.86 2.723s1.34.994 2.3.994c.98 0 1.735-.326 2.26-.978s.8-1.58.8-2.782c0-1.2-.263-2.145-.8-2.804s-1.28-.988-2.26-.988z"/><path id="N" d="M996.654 306.237c-.573 0-1.042-.17-1.407-.5s-.548-.758-.548-1.252c0-.508.183-.924.548-1.246s.834-.483 1.407-.483c.58 0 1.05.16 1.413.483s.542.738.542 1.246c0 .516-.18.938-.542 1.268s-.833.494-1.413.494zm1.676 12.74h-3.395v-11h3.395v11z"/><path id="O" d="M711.83 143.637c32.624 17.362 73.207 4.97 90.57-27.654s4.97-73.207-27.654-90.57-73.207-4.97-90.57 27.653c-5.084 9.554-7.617 19.79-7.837 29.925"/><path id="P" d="M710.067 235.143h-2.493v-6.2c0-2.055-.726-3.083-2.18-3.083a2.38 2.38 0 0 0-1.88.854c-.494.57-.74 1.288-.74 2.154v6.274h-2.503v-11h2.503v1.826h.043c.823-1.4 2.012-2.084 3.566-2.084 1.196 0 2.11.388 2.74 1.165s.946 1.9.946 3.368v6.725z"/><path id="Q" d="M722.162 235.143h-2.492v-6.2c0-2.055-.727-3.083-2.18-3.083a2.38 2.38 0 0 0-1.88.854c-.494.57-.74 1.288-.74 2.154v6.274h-2.503v-11h2.503v1.826h.043c.823-1.4 2.012-2.084 3.566-2.084 1.196 0 2.11.388 2.74 1.165s.946 1.9.946 3.368v6.725z"/><path id="R" d="M766.116 221.833c-.408 0-.757-.132-1.047-.397s-.435-.602-.435-1a1.34 1.34 0 0 1 .435-1.021c.3-.272.64-.408 1.047-.408.423 0 .78.136 1.075.408s.44.613.44 1.02c0 .387-.147.718-.44.993a1.51 1.51 0 0 1-1.075.414zm1.236 13.3h-2.493v-11h2.493v11z"/><path id="S" d="M655.303 230.32h-7.498c.028 1.017.342 1.8.94 2.353s1.42.827 2.465.827c1.174 0 2.252-.35 3.233-1.053v2.01c-1.002.63-2.327.945-3.974.945-1.62 0-2.888-.5-3.808-1.498s-1.38-2.405-1.38-4.216c0-1.712.507-3.107 1.52-4.185s2.272-1.616 3.776-1.616 2.668.483 3.49 1.45 1.236 2.3 1.236 4.028v.956zm-2.407-1.76c-.007-.896-.218-1.592-.633-2.1s-.99-.746-1.72-.746c-.716 0-1.323.26-1.82.784s-.804 1.207-.918 2.052h5.09z"/><path id="T" d="M368.236 222.493h-2.486v-6.006c0-2.178-.726-3.278-2.178-3.278-.748 0-1.364.308-1.848.946-.506.638-.77 1.43-.77 2.42v5.918h-2.486v-16.28h2.486v7.106h.044c.836-1.386 2.024-2.1 3.586-2.1 2.442 0 3.652 1.496 3.652 4.488v6.776z"/><path id="U" d="M98.772 221.833c-.41 0-.758-.132-1.048-.397s-.435-.602-.435-1a1.34 1.34 0 0 1 .435-1.021c.3-.272.64-.408 1.048-.408.422 0 .78.136 1.074.408s.44.613.44 1.02c0 .387-.147.718-.44.993a1.51 1.51 0 0 1-1.074.414zm1.235 13.3h-2.492v-11h2.492v11z"/></defs></svg>