<svg clip-rule="evenodd" fill-rule="evenodd" stroke-linejoin="round" stroke-miterlimit="2" viewBox="0 0 511 77" xmlns="http://www.w3.org/2000/svg" xmlns:xlink="http://www.w3.org/1999/xlink"><clipPath id="a"><path clip-rule="evenodd" d="m0 .311h510.337v76.533h-510.337z"/></clipPath><path d="m0 .311h510.337v76.533h-510.337z" fill="none"/><g clip-path="url(#a)" fill-rule="nonzero"><path d="m38.688 39.238c-.325 1.351-1.534 2.304-2.924 2.304h-8.412s-5.069 24.983-6.684 32.94c-.284 1.399-1.513 2.404-2.94 2.404h-13.601c-.899 0-1.751-.404-2.321-1.1s-.797-1.611-.62-2.493c1.505-7.475 4.961-24.597 6.479-31.751h-3.448c-.922 0-1.792-.422-2.363-1.146-.57-.724-.777-1.67-.562-2.566.599-2.487 1.369-5.685 1.881-7.812.325-1.352 1.534-2.304 2.924-2.304h4.474s1.249-6.015 1.905-9.174c.239-1.151 1.126-2.057 2.271-2.32 3.214-.739 9.852-2.263 14.35-3.297.999-.23 2.048.066 2.78.785s1.047 1.761.837 2.765c-.983 4.678-2.362 11.241-2.362 11.241h7.292c.922 0 1.792.422 2.363 1.146.57.724.777 1.67.561 2.566-.598 2.487-1.368 5.684-1.88 7.812z"/><path d="m134.368 72.845c-.071 1.603-1.391 2.867-2.996 2.867-3.653.002-9.894.002-13.674.002-.83 0-1.623-.344-2.19-.95s-.858-1.42-.803-2.248c.118-1.381.285-3.159.502-5.333h-.187c-4.75 6.468-10.094 9.703-16.031 9.703-4.719 0-8.368-1.641-10.946-4.922s-3.867-7.891-3.867-13.828c0-4.25.82-8.438 2.461-12.563s3.906-7.562 6.797-10.312c2.89-2.75 6.437-4.891 10.64-6.422 4.204-1.531 9.055-2.297 14.555-2.297 6.638 0 13.567.753 20.787 2.258.779.164 1.46.631 1.893 1.298.434.667.585 1.479.42 2.257-1.572 7.421-5.615 26.484-5.615 26.484-.5 2.219-.93 5.031-1.29 8.437-.219 2.077-.371 3.933-.456 5.569zm-14.004-33.319c-.75-.187-1.704-.281-2.86-.281-2.5 0-4.75.719-6.75 2.156-2 1.438-3.617 3.594-4.851 6.469-1.235 2.875-1.852 5.75-1.852 8.625 0 1.875.406 3.305 1.219 4.289.812.985 1.812 1.477 3 1.477 2.25 0 4.265-1.274 6.047-3.821 1.781-2.546 3.187-6.195 4.218-10.945z"/><path d="m85.397 40.886c0 5.5-2.523 9.594-7.57 12.281-5.047 2.688-12.821 4.188-23.321 4.5v.375c0 1.813.766 3.227 2.297 4.242 1.531 1.016 3.578 1.524 6.141 1.524 2.281 0 5.023-.391 8.226-1.172 1.032-.252 2.004-.518 2.917-.798 1.014-.319 2.121-.075 2.908.64s1.136 1.794.916 2.835c-.465 2.23-.973 4.633-1.291 6.136-.203.96-.863 1.76-1.767 2.143-2.136.865-4.613 1.598-7.433 2.192-3.484.735-6.961 1.102-10.429 1.102-6.719 0-12-1.781-15.844-5.344-3.844-3.562-5.766-8.437-5.766-14.625 0-5.625 1.321-10.812 3.961-15.562 2.641-4.75 6.282-8.407 10.922-10.969 4.641-2.563 9.992-3.844 16.055-3.844 6.062 0 10.758 1.234 14.086 3.703s4.992 6.016 4.992 10.641zm-18.422-.094c0-.687-.211-1.312-.633-1.875-.422-.562-1.164-.844-2.226-.844-2.094 0-3.899.797-5.414 2.391-1.516 1.594-2.539 3.844-3.071 6.75 3.532 0 6.305-.531 8.321-1.594 2.015-1.062 3.023-2.672 3.023-4.828z"/><path d="m223.893 38.355c0 2.343-.344 5.062-1.032 8.156 0 0-4.174 19.852-5.639 26.82-.292 1.389-1.517 2.383-2.936 2.383-3.45 0-9.79 0-13.826 0-.906 0-1.763-.409-2.332-1.113-.57-.704-.791-1.628-.602-2.513 1.552-7.273 4.898-22.952 4.898-22.952.5-2 .75-3.61.75-4.828 0-2.094-1.063-3.141-3.188-3.141-1.031 0-2.226.523-3.586 1.57-1.359 1.047-2.554 2.422-3.586 4.125-1.031 1.703-1.734 3.446-2.109 5.227 0 0-3.11 15.217-4.338 21.226-.285 1.396-1.514 2.399-2.939 2.399-3.472 0-9.852 0-13.906 0-.905 0-1.762-.409-2.332-1.113s-.791-1.628-.602-2.513c1.552-7.273 4.898-22.952 4.898-22.952.532-2.125.797-3.735.797-4.828 0-2.094-1.062-3.141-3.187-3.141-1.688 0-3.516 1.117-5.485 3.352-1.968 2.234-3.25 4.757-3.843 7.57 0 0-3.207 15.245-4.468 21.242-.292 1.389-1.517 2.383-2.936 2.383-3.469 0-9.861 0-13.921 0-.905 0-1.762-.409-2.332-1.113-.569-.704-.79-1.627-.602-2.513 1.782-8.354 6.024-28.249 6.024-28.249.926-4.389 1.739-8.911 2.441-13.568.219-1.47 1.481-2.557 2.966-2.557h13.825c.848 0 1.656.358 2.225.987.568.628.845 1.468.76 2.311-.192 2.112-.425 3.763-.701 4.952h.187c2.563-2.906 5.508-5.203 8.836-6.891 3.328-1.687 6.461-2.531 9.399-2.531 7.156 0 10.968 3.531 11.437 10.594 2.438-3.219 5.414-5.789 8.93-7.711s7.039-2.883 10.57-2.883c7.656 0 11.485 3.938 11.485 11.813z"/><path d="m264.706 39.693c-.188.822-.714 1.526-1.448 1.941s-1.608.502-2.409.24c-1.497-.489-3.233-.707-5.193-.707-3.625 0-6.695 1.297-9.211 3.891-2.516 2.593-3.773 5.797-3.773 9.609 0 5.063 2.656 7.594 7.968 7.594 1.5 0 3.172-.227 5.016-.68.069-.017.138-.034.207-.052.999-.253 2.059.025 2.806.736.746.712 1.075 1.757.87 2.768-.501 2.477-1.059 5.226-1.389 6.854-.188.932-.808 1.719-1.669 2.122-1.869.848-3.869 1.512-6.005 1.986-2.672.594-5.242.891-7.711.891-6.218 0-11.101-1.758-14.648-5.274-3.547-3.515-5.32-8.351-5.32-14.507 0-5.594 1.351-10.75 4.054-15.469s6.461-8.414 11.274-11.086c4.812-2.672 10.234-4.008 16.265-4.008 3.962 0 7.401.504 10.318 1.513 1.393.525 2.184 1.999 1.852 3.451-.496 2.263-1.271 5.644-1.854 8.187z"/><path d="m279.282 73.335c-.293 1.387-1.517 2.379-2.934 2.379-3.451 0-9.798 0-13.836 0-.905 0-1.761-.408-2.331-1.111s-.792-1.625-.604-2.511c2.676-12.64 11.561-54.601 13.776-65.062.294-1.387 1.518-2.379 2.935-2.379h13.836c.905 0 1.761.409 2.331 1.112.569.702.791 1.625.604 2.51-2.677 12.64-11.561 54.601-13.777 65.062z"/><path d="m333.265 72.847c-.071 1.602-1.391 2.865-2.995 2.865-3.747.002-10.236.002-14.123.002-.842 0-1.645-.353-2.213-.974s-.85-1.451-.776-2.29c.162-1.985.336-3.523.525-4.611h-.188c-2.812 3.031-5.781 5.297-8.906 6.797s-6.234 2.25-9.328 2.25c-7.813 0-11.719-3.938-11.719-11.813 0-2.343.344-5.062 1.031-8.156 0 0 4.209-19.861 5.684-26.825.294-1.386 1.518-2.378 2.935-2.378h13.826c.906 0 1.764.409 2.333 1.114.57.705.791 1.629.601 2.515-1.534 7.153-4.8 22.387-4.8 22.387-.532 2.125-.797 3.89-.797 5.296 0 .625.226 1.18.679 1.664.454.485 1.164.727 2.133.727 2.281 0 4.344-1.164 6.188-3.492 1.843-2.328 3.109-5.195 3.797-8.602 0 0 2.831-13.599 4.002-19.221.29-1.391 1.516-2.388 2.937-2.388h13.823c.905 0 1.762.409 2.332 1.113.569.703.791 1.627.602 2.512-1.707 8.011-5.65 26.516-5.65 26.516-.593 2.812-1.078 5.921-1.453 9.328-.231 2.102-.391 3.99-.48 5.664z"/><path d="m376.997 38.47c-.161.843-.676 1.576-1.413 2.014-.738.439-1.628.54-2.445.279-.861-.272-1.787-.535-2.779-.791-2.359-.61-4.492-.914-6.398-.914-2.875 0-4.313.89-4.313 2.672 0 .968.36 1.679 1.079 2.132.718.453 1.671.93 2.859 1.43 3.719 1.5 6.367 2.852 7.945 4.055s2.742 2.625 3.492 4.265c.75 1.641 1.125 3.696 1.125 6.164 0 3.375-.984 6.352-2.953 8.93-1.968 2.578-4.828 4.586-8.578 6.024-3.75 1.437-8.297 2.156-13.64 2.156-3.157 0-6.211-.227-9.165-.68-1.751-.269-3.346-.573-4.785-.914-1.542-.38-2.519-1.898-2.227-3.459.394-2.127.951-5.107 1.388-7.439.163-.872.703-1.627 1.476-2.062.773-.436 1.698-.507 2.528-.195 4.223 1.618 8.053 2.421 11.488 2.421 3.906 0 5.859-1.016 5.859-3.047 0-.906-.43-1.649-1.289-2.227s-1.945-1.086-3.258-1.523c-4.687-1.531-7.984-3.422-9.89-5.672-1.907-2.25-2.86-5.156-2.86-8.719 0-3.344.992-6.328 2.977-8.953 1.984-2.625 4.718-4.594 8.203-5.906 3.484-1.313 7.601-1.969 12.351-1.969 2.25 0 4.922.211 8.016.633 1.59.217 2.99.435 4.2.656 1.622.316 2.683 1.884 2.372 3.507-.398 2.088-.941 4.923-1.365 7.132z"/><path d="m408.491 14.261c0 2.969-1.086 5.375-3.258 7.219-2.172 1.843-5.023 2.765-8.555 2.765-3.125 0-5.671-.82-7.64-2.461-1.969-1.64-2.953-3.695-2.953-6.164 0-3 1.093-5.43 3.281-7.289 2.187-1.859 5.062-2.789 8.625-2.789 3.062 0 5.578.805 7.547 2.414s2.953 3.711 2.953 6.305zm-13.137 59.075c-.294 1.386-1.517 2.378-2.935 2.378h-13.835c-.905 0-1.761-.408-2.331-1.111s-.791-1.626-.604-2.511c1.985-9.367 7.248-34.201 8.901-42 .293-1.386 1.517-2.378 2.934-2.378h13.836c.905 0 1.761.408 2.331 1.111.569.703.791 1.626.604 2.511-1.985 9.366-7.248 34.201-8.901 42z"/><path d="m454.926 47.683c0 5.593-1.258 10.711-3.773 15.351-2.516 4.641-6.024 8.11-10.524 10.406-4.5 2.297-9.781 3.446-15.843 3.446-7.407 0-13.133-1.86-17.18-5.578-4.047-3.719-6.07-8.938-6.07-15.657 0-3.937.718-7.796 2.156-11.578 1.437-3.781 3.437-6.961 6-9.539 2.562-2.578 5.711-4.554 9.445-5.929 3.735-1.375 8.008-2.063 12.821-2.063 7.312 0 12.968 1.836 16.968 5.508s6 8.883 6 15.633zm-19.875 0c0-2.125-.453-3.743-1.359-4.852s-2.125-1.664-3.656-1.664c-1.719 0-3.219.664-4.5 1.992-1.282 1.328-2.289 3.156-3.024 5.485-.734 2.328-1.101 4.726-1.101 7.195 0 2.125.461 3.726 1.382 4.805.922 1.078 2.165 1.617 3.727 1.617 2.563 0 4.625-1.375 6.188-4.125 1.562-2.75 2.343-6.235 2.343-10.453z"/><path d="m509.737 38.355c0 2.187-.36 4.906-1.079 8.156 0 0-4.174 19.852-5.639 26.82-.292 1.389-1.517 2.383-2.936 2.383-3.45 0-9.789 0-13.826 0-.906 0-1.763-.409-2.332-1.113-.57-.704-.791-1.628-.602-2.513 1.552-7.273 4.898-22.952 4.898-22.952.531-2.125.797-3.735.797-4.828 0-2.094-1.063-3.141-3.188-3.141-1.687 0-3.515 1.117-5.484 3.352-1.969 2.234-3.25 4.757-3.844 7.57 0 0-3.142 15.226-4.381 21.231-.287 1.394-1.515 2.394-2.938 2.394-3.489 0-9.927 0-14.005 0-.905 0-1.762-.409-2.332-1.113s-.791-1.627-.602-2.513c1.782-8.354 6.024-28.249 6.024-28.249.925-4.389 1.739-8.911 2.44-13.568.22-1.47 1.482-2.557 2.967-2.557h13.825c.847 0 1.655.358 2.224.987.569.628.845 1.468.761 2.311-.193 2.112-.426 3.763-.702 4.952h.188c2.562-2.906 5.508-5.203 8.836-6.891 3.328-1.687 6.461-2.531 9.398-2.531 7.688 0 11.532 3.938 11.532 11.813z"/></g></svg>