<svg clip-rule="evenodd" fill-rule="evenodd" stroke-linejoin="round" stroke-miterlimit="2" viewBox="0 0 582 284" xmlns="http://www.w3.org/2000/svg"><g transform="matrix(1.01415 0 0 1.02695 -1601.0454 -3185.115)"><path d="m1578.71 3101.52h573.88v276.547h-573.88z" fill="none"/><g fill="#fff" fill-rule="nonzero" stroke="#1b57a6"><path d="m.547-.03c-.001.017-.015.03-.031.03-.039 0-.104 0-.143 0-.009 0-.017-.004-.023-.01s-.009-.015-.008-.023c.001-.015.003-.033.005-.056h-.002c-.049.068-.105.101-.167.101-.049 0-.087-.017-.114-.051s-.04-.082-.04-.144c0-.044.008-.088.026-.131.017-.043.04-.079.07-.107.03-.029.067-.051.111-.067s.095-.024.152-.024c.069 0 .141.008.216.023.008.002.016.007.02.014.005.007.006.015.004.023-.016.078-.058.276-.058.276-.005.023-.01.053-.013.088-.003.022-.004.041-.005.058zm-.146-.347c-.008-.002-.018-.003-.03-.003-.026 0-.049.008-.07.023s-.038.037-.051.067-.019.06-.019.09c0 .019.004.034.013.044.008.011.019.016.031.016.023 0 .044-.013.063-.04.018-.026.033-.064.044-.114z" stroke-width=".03" transform="matrix(189.321 0 0 186.961 1844.93 3227.38)"/><path d="m.545-.363c0 .057-.026.1-.079.128s-.133.044-.243.047v.004c0 .019.008.034.024.044.016.011.037.016.064.016.024 0 .052-.004.086-.012.01-.003.021-.006.03-.009.011-.003.022 0 .03.007.009.008.012.019.01.03-.005.023-.01.048-.014.064-.002.01-.008.018-.018.022-.022.009-.048.017-.077.023-.037.007-.073.011-.109.011-.07 0-.125-.018-.165-.055-.04-.038-.06-.088-.06-.153 0-.058.014-.112.041-.162.028-.049.066-.087.114-.114s.104-.04.167-.04.112.013.147.038c.035.026.052.063.052.111zm-.192-.001c0-.007-.002-.013-.007-.019-.004-.006-.012-.009-.023-.009-.022 0-.04.008-.056.025-.016.016-.027.04-.032.07.037 0 .066-.005.087-.016.021-.012.031-.028.031-.051z" stroke-width=".03" transform="matrix(189.321 0 0 186.961 1748.7 3227.38)"/><path d="m.924-.389c0 .024-.004.053-.011.085 0 0-.043.207-.059.279-.003.015-.015.025-.03.025h-.144c-.01 0-.019-.004-.025-.012-.005-.007-.008-.017-.006-.026.016-.076.051-.239.051-.239.005-.021.008-.037.008-.05 0-.022-.011-.033-.033-.033-.011 0-.023.006-.038.016-.014.011-.026.026-.037.043-.011.018-.018.036-.022.055 0 0-.032.158-.045.221-.003.015-.016.025-.031.025h-.145c-.009 0-.018-.004-.024-.012-.006-.007-.008-.017-.006-.026.016-.076.051-.239.051-.239.005-.022.008-.039.008-.05 0-.022-.011-.033-.033-.033-.018 0-.037.012-.057.035-.021.023-.034.05-.04.079 0 0-.034.159-.047.221-.003.015-.015.025-.03.025h-.145c-.01 0-.019-.004-.025-.012-.005-.007-.008-.017-.006-.026.019-.087.063-.294.063-.294.01-.046.018-.093.025-.141.003-.016.016-.027.031-.027h.144c.009 0 .017.004.023.01.006.007.009.016.008.024-.002.022-.004.04-.007.052h.002c.027-.03.057-.054.092-.072.035-.017.067-.026.098-.026.074 0 .114.037.119.11.025-.033.056-.06.093-.08s.073-.03.11-.03c.08 0 .12.041.12.123z" stroke-width=".03" transform="matrix(189.321 0 0 186.961 1950.1 3227.38)"/><path d="m.46-.375c-.001.008-.007.016-.015.02-.007.004-.016.005-.025.002-.015-.005-.033-.007-.054-.007-.038 0-.07.014-.096.041s-.039.06-.039.1c0 .052.028.079.083.079.016 0 .033-.002.052-.007.001 0 .002-.001.002-.001.011-.002.022 0 .03.008.007.007.011.018.009.029-.006.026-.011.054-.015.071-.002.01-.008.018-.017.022-.02.009-.041.016-.063.021-.028.006-.054.009-.08.009-.065 0-.116-.018-.153-.055-.037-.036-.055-.087-.055-.151 0-.058.014-.112.042-.161s.067-.088.118-.115c.05-.028.106-.042.169-.042.041 0 .077.005.107.016.015.005.023.02.02.036-.005.023-.013.058-.02.085z" stroke-width=".03" transform="matrix(189.321 0 0 186.961 1577.83 3371.96)"/><path d="m.538-.03c-.001.017-.015.03-.031.03-.039 0-.107 0-.147 0-.009 0-.017-.004-.023-.01-.006-.007-.009-.015-.008-.024.001-.021.003-.037.005-.048h-.002c-.029.032-.06.055-.093.071-.032.015-.065.023-.097.023-.081 0-.122-.041-.122-.123 0-.024.004-.053.011-.085 0 0 .044-.207.059-.279.003-.015.016-.025.031-.025h.144c.009 0 .018.004.024.012.006.007.008.017.006.026-.016.074-.05.233-.05.233-.005.022-.008.041-.008.055 0 .007.002.012.007.018.005.005.012.007.022.007.024 0 .045-.012.065-.036.019-.025.032-.054.039-.09 0 0 .03-.142.042-.2.003-.015.016-.025.03-.025h.144c.01 0 .019.004.025.012.006.007.008.017.006.026-.018.083-.059.276-.059.276-.006.029-.011.062-.015.097-.002.022-.004.042-.005.059z" stroke-width=".03" transform="matrix(189.321 0 0 186.961 1698.37 3371.96)"/><path d="m.443-.388c-.002.009-.007.016-.015.021-.007.005-.017.006-.025.003-.009-.003-.019-.006-.029-.008-.025-.007-.047-.01-.067-.01-.03 0-.045.009-.045.028 0 .01.004.017.011.022.008.005.018.01.03.015.039.016.067.03.083.042.016.013.029.028.036.045.008.017.012.038.012.064 0 .035-.01.066-.031.093-.02.027-.05.048-.089.063s-.086.022-.142.022c-.033 0-.065-.002-.096-.007-.018-.003-.034-.006-.049-.009-.016-.004-.027-.02-.024-.036.004-.023.01-.054.015-.078.002-.009.007-.017.015-.021.008-.005.018-.006.027-.002.044.016.083.025.119.025.041 0 .061-.011.061-.032 0-.009-.004-.017-.013-.023s-.02-.011-.034-.016c-.049-.016-.083-.036-.103-.059-.02-.024-.03-.054-.03-.091 0-.035.01-.066.031-.093.021-.028.049-.048.086-.062.036-.013.079-.02.128-.02.024 0 .051.002.084.006.016.003.031.005.043.007.017.004.028.02.025.037-.004.022-.01.051-.014.074z" stroke-width=".03" transform="matrix(189.321 0 0 186.961 1802.61 3371.96)"/><path d="m.345-.64c0 .031-.011.056-.034.075-.022.019-.052.029-.089.029-.032 0-.059-.009-.079-.026-.021-.017-.031-.038-.031-.064 0-.031.011-.057.034-.076s.053-.029.09-.029c.032 0 .058.008.078.025.021.017.031.039.031.066zm-.137.615c-.003.015-.015.025-.03.025h-.144c-.01 0-.019-.004-.025-.012-.006-.007-.008-.017-.006-.026.021-.097.076-.356.093-.437.003-.015.016-.025.03-.025h.145c.009 0 .018.004.024.012.006.007.008.017.006.026-.021.097-.075.356-.093.437z" stroke-width=".03" transform="matrix(189.321 0 0 186.961 1883.21 3371.96)"/><path d="m.581-.292c0 .058-.014.112-.04.16s-.062.084-.109.108-.102.036-.165.036c-.078 0-.137-.019-.179-.058-.043-.039-.064-.093-.064-.163 0-.041.008-.081.023-.121.015-.039.036-.072.062-.099.027-.027.06-.047.099-.062.039-.014.083-.021.133-.021.076 0 .135.019.177.057s.063.093.063.163zm-.207 0c0-.022-.005-.039-.015-.051-.009-.011-.022-.017-.038-.017-.018 0-.033.007-.047.021-.013.014-.023.033-.031.057s-.012.049-.012.075c0 .022.005.039.015.05.009.011.022.017.039.017.026 0 .048-.014.064-.043s.025-.065.025-.109z" stroke-width=".03" transform="matrix(189.321 0 0 186.961 1930.23 3371.96)"/><path d="m.602-.389c0 .023-.004.051-.011.085 0 0-.044.207-.059.279-.003.015-.016.025-.031.025h-.144c-.009 0-.018-.004-.024-.012-.006-.007-.008-.017-.006-.026.016-.076.051-.239.051-.239.005-.022.008-.039.008-.05 0-.022-.011-.033-.033-.033-.018 0-.037.012-.057.035-.021.023-.034.05-.04.079 0 0-.033.159-.046.221-.003.015-.016.025-.03.025h-.146c-.01 0-.019-.004-.025-.012-.005-.007-.008-.017-.006-.026.019-.087.063-.294.063-.294.01-.046.018-.093.025-.141.003-.016.016-.027.031-.027h.144c.009 0 .017.004.023.01.006.007.009.016.008.024-.002.022-.004.04-.007.052h.002c.027-.03.057-.054.092-.072.035-.017.067-.026.098-.026.08 0 .12.041.12.123z" stroke-width=".03" transform="matrix(189.321 0 0 186.961 2034.26 3371.96)"/><path d="m1696.56 3158.91h-6.89c-1.85 0-3.59-.84-4.73-2.29s-1.55-3.34-1.12-5.13c1.2-4.98 2.74-11.37 3.76-15.63.65-2.7 3.07-4.6 5.85-4.6h8.95s2.49-12.04 3.8-18.35c.48-2.3 2.26-4.12 4.55-4.64 6.42-1.48 19.7-4.53 28.7-6.6 2-.46 4.09.14 5.56 1.57 1.46 1.44 2.09 3.52 1.67 5.53l-4.72 22.49h14.58c1.85 0 3.59.84 4.73 2.29s1.55 3.34 1.12 5.13c-1.2 4.97-2.74 11.37-3.76 15.62-.65 2.71-3.07 4.61-5.85 4.61h-16.82s-37.63 180.21-44.27 212.04c-.58 2.78-3.03 4.77-5.87 4.77-6.91 0-19.6 0-27.67 0-1.8 0-3.52-.81-4.66-2.22-1.13-1.4-1.58-3.25-1.2-5.02 7.96-37.67 44.29-209.57 44.29-209.57z" stroke-width="6" transform="matrix(.986048 0 0 .973756 25.682 84.825)"/></g></g></svg>