<?xml version="1.0" encoding="UTF-8" standalone="no"?><!DOCTYPE svg PUBLIC "-//W3C//DTD SVG 1.1//EN" "http://www.w3.org/Graphics/SVG/1.1/DTD/svg11.dtd"><svg width="100%" height="100%" viewBox="0 0 513 78" version="1.1" xmlns="http://www.w3.org/2000/svg" xmlns:xlink="http://www.w3.org/1999/xlink" xml:space="preserve" xmlns:serif="http://www.serif.com/" style="fill-rule:evenodd;clip-rule:evenodd;stroke-linejoin:round;stroke-miterlimit:2;fill:#1B57A6"><rect id="logo_voll" x="0" y="0.241" width="513" height="77" style="fill:none;"/><g><path d="M38.688,38.667c-0.325,1.352 -1.534,2.304 -2.924,2.304l-8.412,0c0,0 -5.069,24.984 -6.684,32.941c-0.284,1.398 -1.513,2.403 -2.94,2.403c-3.416,0 -9.634,0 -13.601,0c-0.899,0 -1.751,-0.404 -2.321,-1.1c-0.57,-0.696 -0.797,-1.611 -0.62,-2.493c1.505,-7.474 4.961,-24.597 6.479,-31.751l-3.448,0c-0.922,0 -1.792,-0.422 -2.363,-1.146c-0.57,-0.724 -0.777,-1.669 -0.562,-2.565c0.599,-2.488 1.369,-5.685 1.881,-7.813c0.325,-1.351 1.534,-2.304 2.924,-2.304c1.977,0 4.474,0 4.474,0c0,0 1.249,-6.015 1.905,-9.174c0.239,-1.151 1.126,-2.057 2.271,-2.32c3.214,-0.738 9.852,-2.263 14.35,-3.297c0.999,-0.229 2.048,0.067 2.78,0.785c0.732,0.719 1.047,1.761 0.837,2.765c-0.983,4.678 -2.362,11.241 -2.362,11.241l7.292,0c0.922,0 1.792,0.423 2.363,1.147c0.57,0.723 0.777,1.669 0.561,2.565c-0.598,2.487 -1.368,5.685 -1.88,7.812Z" style="fill-rule:nonzero;"/><path d="M134.368,72.274c-0.071,1.603 -1.391,2.867 -2.996,2.867c-3.653,0.002 -9.894,0.002 -13.674,0.002c-0.83,0 -1.623,-0.344 -2.19,-0.95c-0.567,-0.606 -0.858,-1.419 -0.803,-2.248c0.118,-1.38 0.285,-3.158 0.502,-5.333l-0.187,0c-4.75,6.469 -10.094,9.703 -16.031,9.703c-4.719,0 -8.368,-1.641 -10.946,-4.922c-2.578,-3.281 -3.867,-7.89 -3.867,-13.828c0,-4.25 0.82,-8.437 2.461,-12.562c1.641,-4.125 3.906,-7.563 6.797,-10.313c2.89,-2.75 6.437,-4.891 10.64,-6.422c4.204,-1.531 9.055,-2.297 14.555,-2.297c6.638,0 13.567,0.753 20.787,2.258c0.779,0.164 1.46,0.631 1.893,1.298c0.434,0.667 0.585,1.479 0.42,2.257c-1.572,7.421 -5.615,26.484 -5.615,26.484c-0.5,2.219 -0.93,5.031 -1.29,8.438c-0.219,2.077 -0.371,3.933 -0.456,5.568Zm-14.004,-33.318c-0.75,-0.188 -1.704,-0.282 -2.86,-0.282c-2.5,0 -4.75,0.719 -6.75,2.157c-2,1.437 -3.617,3.593 -4.851,6.468c-1.235,2.875 -1.852,5.75 -1.852,8.625c0,1.875 0.406,3.305 1.219,4.289c0.812,0.985 1.812,1.477 3,1.477c2.25,0 4.265,-1.273 6.047,-3.82c1.781,-2.547 3.187,-6.196 4.218,-10.946l1.829,-7.968Z" style="fill-rule:nonzero;"/><path d="M85.397,40.315c0,5.5 -2.523,9.594 -7.57,12.281c-5.047,2.688 -12.821,4.188 -23.321,4.5l0,0.375c0,1.813 0.766,3.227 2.297,4.242c1.531,1.016 3.578,1.524 6.141,1.524c2.281,0 5.023,-0.391 8.226,-1.172c1.032,-0.251 2.004,-0.518 2.917,-0.798c1.014,-0.318 2.121,-0.075 2.908,0.641c0.787,0.715 1.136,1.794 0.916,2.834c-0.465,2.23 -0.973,4.633 -1.291,6.136c-0.203,0.96 -0.863,1.761 -1.767,2.143c-2.136,0.866 -4.613,1.598 -7.433,2.192c-3.484,0.735 -6.961,1.102 -10.429,1.102c-6.719,0 -12,-1.781 -15.844,-5.344c-3.844,-3.562 -5.766,-8.437 -5.766,-14.625c0,-5.625 1.321,-10.812 3.961,-15.562c2.641,-4.75 6.282,-8.406 10.922,-10.969c4.641,-2.562 9.992,-3.844 16.055,-3.844c6.062,0 10.758,1.235 14.086,3.703c3.328,2.469 4.992,6.016 4.992,10.641Zm-18.422,-0.094c0,-0.687 -0.211,-1.312 -0.633,-1.875c-0.422,-0.562 -1.164,-0.843 -2.226,-0.843c-2.094,0 -3.899,0.796 -5.414,2.39c-1.516,1.594 -2.539,3.844 -3.071,6.75c3.532,0 6.305,-0.531 8.321,-1.594c2.015,-1.062 3.023,-2.671 3.023,-4.828Z" style="fill-rule:nonzero;"/><path d="M223.893,37.784c0,2.344 -0.344,5.062 -1.032,8.156c0,0 -4.174,19.852 -5.639,26.82c-0.292,1.389 -1.517,2.383 -2.936,2.383c-3.45,0 -9.79,0 -13.826,0c-0.906,0 -1.763,-0.409 -2.332,-1.113c-0.57,-0.704 -0.791,-1.627 -0.602,-2.513c1.552,-7.273 4.898,-22.952 4.898,-22.952c0.5,-2 0.75,-3.609 0.75,-4.828c0,-2.094 -1.063,-3.141 -3.188,-3.141c-1.031,0 -2.226,0.524 -3.586,1.571c-1.359,1.046 -2.554,2.421 -3.586,4.125c-1.031,1.703 -1.734,3.445 -2.109,5.226c0,0 -3.11,15.217 -4.338,21.226c-0.285,1.396 -1.514,2.399 -2.939,2.399c-3.472,0 -9.852,0 -13.906,0c-0.905,0 -1.762,-0.409 -2.332,-1.113c-0.57,-0.704 -0.791,-1.627 -0.602,-2.513c1.552,-7.273 4.898,-22.952 4.898,-22.952c0.532,-2.125 0.797,-3.734 0.797,-4.828c0,-2.094 -1.062,-3.141 -3.187,-3.141c-1.688,0 -3.516,1.117 -5.485,3.352c-1.968,2.234 -3.25,4.758 -3.843,7.57c0,0 -3.207,15.245 -4.468,21.243c-0.292,1.388 -1.517,2.382 -2.936,2.382c-3.469,0 -9.861,0 -13.921,0c-0.905,0 -1.762,-0.409 -2.332,-1.113c-0.569,-0.703 -0.79,-1.627 -0.602,-2.512c1.782,-8.355 6.024,-28.25 6.024,-28.25c0.926,-4.388 1.739,-8.911 2.441,-13.568c0.219,-1.469 1.481,-2.557 2.966,-2.557c3.562,0 9.962,0 13.825,0c0.848,0 1.656,0.359 2.225,0.987c0.568,0.628 0.845,1.468 0.76,2.311c-0.192,2.112 -0.425,3.763 -0.701,4.952l0.187,0c2.563,-2.906 5.508,-5.203 8.836,-6.89c3.328,-1.688 6.461,-2.532 9.399,-2.532c7.156,0 10.968,3.532 11.437,10.594c2.438,-3.219 5.414,-5.789 8.93,-7.711c3.516,-1.922 7.039,-2.883 10.57,-2.883c7.656,0 11.485,3.938 11.485,11.813Z" style="fill-rule:nonzero;"/><path d="M264.706,39.122c-0.188,0.822 -0.714,1.527 -1.448,1.941c-0.734,0.415 -1.608,0.502 -2.409,0.24c-1.497,-0.488 -3.233,-0.707 -5.193,-0.707c-3.625,0 -6.695,1.297 -9.211,3.891c-2.516,2.594 -3.773,5.797 -3.773,9.609c0,5.063 2.656,7.594 7.968,7.594c1.5,0 3.172,-0.227 5.016,-0.68c0.069,-0.017 0.138,-0.034 0.207,-0.051c0.999,-0.254 2.059,0.024 2.806,0.736c0.746,0.711 1.075,1.756 0.87,2.767c-0.501,2.477 -1.059,5.226 -1.389,6.854c-0.188,0.932 -0.808,1.719 -1.669,2.122c-1.869,0.848 -3.869,1.512 -6.005,1.986c-2.672,0.594 -5.242,0.891 -7.711,0.891c-6.218,0 -11.101,-1.758 -14.648,-5.273c-3.547,-3.516 -5.32,-8.352 -5.32,-14.508c0,-5.594 1.351,-10.75 4.054,-15.469c2.703,-4.719 6.461,-8.414 11.274,-11.086c4.812,-2.672 10.234,-4.008 16.265,-4.008c3.962,0 7.401,0.505 10.318,1.513c1.393,0.525 2.184,2 1.852,3.452c-0.496,2.262 -1.271,5.643 -1.854,8.186Z" style="fill-rule:nonzero;"/><path d="M279.282,72.765c-0.293,1.386 -1.517,2.378 -2.934,2.378c-3.451,0 -9.798,0 -13.836,0c-0.905,0 -1.761,-0.408 -2.331,-1.111c-0.57,-0.703 -0.792,-1.625 -0.604,-2.51c2.676,-12.641 11.561,-54.601 13.776,-65.063c0.294,-1.386 1.518,-2.378 2.935,-2.378c3.451,0 9.798,0 13.836,0c0.905,0 1.761,0.408 2.331,1.111c0.569,0.703 0.791,1.625 0.604,2.51c-2.677,12.641 -11.561,54.601 -13.777,65.063Z" style="fill-rule:nonzero;"/><path d="M333.265,72.276c-0.071,1.603 -1.391,2.865 -2.995,2.865c-3.747,0.002 -10.236,0.002 -14.123,0.002c-0.842,0 -1.645,-0.353 -2.213,-0.974c-0.568,-0.62 -0.85,-1.451 -0.776,-2.289c0.162,-1.986 0.336,-3.523 0.525,-4.612l-0.188,0c-2.812,3.031 -5.781,5.297 -8.906,6.797c-3.125,1.5 -6.234,2.25 -9.328,2.25c-7.813,0 -11.719,-3.937 -11.719,-11.812c0,-2.344 0.344,-5.063 1.031,-8.157c0,0 4.209,-19.861 5.684,-26.825c0.294,-1.386 1.518,-2.378 2.935,-2.378c3.448,0 9.788,0 13.826,0c0.906,0 1.764,0.41 2.333,1.114c0.57,0.705 0.791,1.629 0.601,2.515c-1.534,7.153 -4.8,22.387 -4.8,22.387c-0.532,2.125 -0.797,3.89 -0.797,5.297c0,0.625 0.226,1.179 0.679,1.664c0.454,0.484 1.164,0.726 2.133,0.726c2.281,0 4.344,-1.164 6.188,-3.492c1.843,-2.328 3.109,-5.195 3.797,-8.601c0,0 2.831,-13.599 4.002,-19.221c0.29,-1.392 1.516,-2.389 2.937,-2.389c3.452,0 9.788,0 13.823,0c0.905,0 1.762,0.409 2.332,1.113c0.569,0.704 0.791,1.627 0.602,2.512c-1.707,8.011 -5.65,26.516 -5.65,26.516c-0.593,2.812 -1.078,5.922 -1.453,9.328c-0.231,2.102 -0.391,3.99 -0.48,5.664Z" style="fill-rule:nonzero;"/><path d="M376.997,37.9c-0.161,0.842 -0.676,1.575 -1.413,2.014c-0.738,0.438 -1.628,0.54 -2.445,0.279c-0.861,-0.273 -1.787,-0.536 -2.779,-0.792c-2.359,-0.609 -4.492,-0.914 -6.398,-0.914c-2.875,0 -4.313,0.891 -4.313,2.672c0,0.969 0.36,1.679 1.079,2.133c0.718,0.453 1.671,0.929 2.859,1.429c3.719,1.5 6.367,2.852 7.945,4.055c1.578,1.203 2.742,2.625 3.492,4.266c0.75,1.64 1.125,3.695 1.125,6.164c0,3.375 -0.984,6.351 -2.953,8.929c-1.968,2.578 -4.828,4.586 -8.578,6.024c-3.75,1.437 -8.297,2.156 -13.64,2.156c-3.157,0 -6.211,-0.227 -9.165,-0.68c-1.751,-0.268 -3.346,-0.573 -4.785,-0.913c-1.542,-0.381 -2.519,-1.899 -2.227,-3.46c0.394,-2.127 0.951,-5.107 1.388,-7.439c0.163,-0.872 0.703,-1.627 1.476,-2.062c0.773,-0.435 1.698,-0.506 2.528,-0.194c4.223,1.617 8.053,2.42 11.488,2.42c3.906,0 5.859,-1.016 5.859,-3.047c0,-0.906 -0.43,-1.648 -1.289,-2.227c-0.859,-0.578 -1.945,-1.085 -3.258,-1.523c-4.687,-1.531 -7.984,-3.422 -9.89,-5.672c-1.907,-2.25 -2.86,-5.156 -2.86,-8.719c0,-3.343 0.992,-6.328 2.977,-8.953c1.984,-2.625 4.718,-4.593 8.203,-5.906c3.484,-1.312 7.601,-1.969 12.351,-1.969c2.25,0 4.922,0.211 8.016,0.633c1.59,0.217 2.99,0.436 4.2,0.657c1.622,0.315 2.683,1.883 2.372,3.506c-0.398,2.089 -0.941,4.923 -1.365,7.133Z" style="fill-rule:nonzero;"/><path d="M408.491,13.69c0,2.969 -1.086,5.375 -3.258,7.219c-2.172,1.844 -5.023,2.765 -8.555,2.765c-3.125,0 -5.671,-0.82 -7.64,-2.461c-1.969,-1.64 -2.953,-3.695 -2.953,-6.164c0,-3 1.093,-5.429 3.281,-7.289c2.187,-1.859 5.062,-2.789 8.625,-2.789c3.062,0 5.578,0.805 7.547,2.414c1.969,1.61 2.953,3.711 2.953,6.305Zm-13.137,59.075c-0.294,1.386 -1.517,2.378 -2.935,2.378l-13.835,0c-0.905,0 -1.761,-0.408 -2.331,-1.111c-0.57,-0.703 -0.791,-1.626 -0.604,-2.511c1.985,-9.366 7.248,-34.201 8.901,-42c0.293,-1.386 1.517,-2.378 2.934,-2.378l13.836,0c0.905,0 1.761,0.409 2.331,1.112c0.569,0.702 0.791,1.625 0.604,2.51c-1.985,9.367 -7.248,34.201 -8.901,42Z" style="fill-rule:nonzero;"/><path d="M454.926,47.112c0,5.594 -1.258,10.711 -3.773,15.351c-2.516,4.641 -6.024,8.11 -10.524,10.407c-4.5,2.297 -9.781,3.445 -15.843,3.445c-7.407,0 -13.133,-1.859 -17.18,-5.578c-4.047,-3.719 -6.07,-8.938 -6.07,-15.656c0,-3.938 0.718,-7.797 2.156,-11.578c1.437,-3.782 3.437,-6.961 6,-9.54c2.562,-2.578 5.711,-4.554 9.445,-5.929c3.735,-1.375 8.008,-2.063 12.821,-2.063c7.312,0 12.968,1.836 16.968,5.508c4,3.672 6,8.883 6,15.633Zm-19.875,0c0,-2.125 -0.453,-3.742 -1.359,-4.852c-0.906,-1.109 -2.125,-1.664 -3.656,-1.664c-1.719,0 -3.219,0.664 -4.5,1.992c-1.282,1.329 -2.289,3.157 -3.024,5.485c-0.734,2.328 -1.101,4.726 -1.101,7.195c0,2.125 0.461,3.727 1.382,4.805c0.922,1.078 2.165,1.617 3.727,1.617c2.563,0 4.625,-1.375 6.188,-4.125c1.562,-2.75 2.343,-6.234 2.343,-10.453Z" style="fill-rule:nonzero;"/><path d="M509.737,37.784c0,2.187 -0.36,4.906 -1.079,8.156c0,0 -4.174,19.852 -5.639,26.82c-0.292,1.389 -1.517,2.383 -2.936,2.383c-3.45,0 -9.789,0 -13.826,0c-0.906,0 -1.763,-0.409 -2.332,-1.113c-0.57,-0.704 -0.791,-1.627 -0.602,-2.513c1.552,-7.273 4.898,-22.952 4.898,-22.952c0.531,-2.125 0.797,-3.734 0.797,-4.828c0,-2.094 -1.063,-3.141 -3.188,-3.141c-1.687,0 -3.515,1.117 -5.484,3.352c-1.969,2.234 -3.25,4.758 -3.844,7.57c0,0 -3.142,15.226 -4.381,21.231c-0.287,1.394 -1.515,2.394 -2.938,2.394c-3.489,0 -9.927,0 -14.005,0c-0.905,0 -1.762,-0.409 -2.332,-1.113c-0.57,-0.703 -0.791,-1.627 -0.602,-2.512c1.782,-8.355 6.024,-28.25 6.024,-28.25c0.925,-4.388 1.739,-8.911 2.44,-13.568c0.22,-1.469 1.482,-2.557 2.967,-2.557c3.561,0 9.961,0 13.825,0c0.847,0 1.655,0.359 2.224,0.987c0.569,0.628 0.845,1.468 0.761,2.311c-0.193,2.112 -0.426,3.763 -0.702,4.952l0.188,0c2.562,-2.906 5.508,-5.203 8.836,-6.89c3.328,-1.688 6.461,-2.532 9.398,-2.532c7.688,0 11.532,3.938 11.532,11.813Z" style="fill-rule:nonzero;"/></g></svg>
