<svg clip-rule="evenodd" fill-rule="evenodd" stroke-linejoin="round" stroke-miterlimit="2" viewBox="0 0 288 139" xmlns="http://www.w3.org/2000/svg" xmlns:xlink="http://www.w3.org/1999/xlink"><clipPath id="a"><path clip-rule="evenodd" d="m0 0h287.44v138.273h-287.44z"/></clipPath><path d="m0 0h287.44v138.273h-287.44z" fill="none"/><g clip-path="url(#a)" fill-rule="nonzero"><path d="m185.984 60.259c-.07 1.603-1.39 2.867-2.995 2.867-3.653.002-9.894.002-13.674.002-.83 0-1.623-.344-2.19-.95-.568-.606-.858-1.42-.804-2.248.118-1.381.285-3.159.503-5.334h-.188c-4.75 6.469-10.093 9.704-16.031 9.704-4.719 0-8.367-1.641-10.945-4.922-2.578-3.282-3.867-7.891-3.867-13.828 0-4.25.82-8.438 2.461-12.563 1.64-4.125 3.906-7.562 6.797-10.312 2.89-2.75 6.437-4.891 10.64-6.422 4.203-1.532 9.055-2.297 14.555-2.297 6.638 0 13.567.752 20.787 2.257.778.165 1.459.632 1.893 1.299.434.666.585 1.478.42 2.256-1.572 7.422-5.616 26.485-5.616 26.485-.5 2.218-.929 5.031-1.289 8.437-.219 2.077-.371 3.933-.457 5.569zm-14.004-33.319c-.75-.187-1.703-.281-2.859-.281-2.5 0-4.75.719-6.75 2.156-2 1.438-3.617 3.594-4.852 6.469-1.234 2.875-1.851 5.75-1.851 8.625 0 1.875.406 3.305 1.218 4.289.813.984 1.813 1.477 3 1.477 2.25 0 4.266-1.274 6.047-3.821 1.782-2.547 3.188-6.195 4.219-10.945z"/><path d="m137.014 28.3c0 5.5-2.524 9.593-7.571 12.281-5.047 2.687-12.82 4.187-23.32 4.5v.375c0 1.812.766 3.226 2.297 4.242s3.578 1.523 6.141 1.523c2.281 0 5.023-.39 8.226-1.171 1.031-.252 2.003-.518 2.916-.799 1.015-.318 2.122-.074 2.909.641s1.136 1.794.916 2.834c-.465 2.231-.973 4.634-1.291 6.136-.203.961-.863 1.761-1.767 2.143-2.136.866-4.613 1.599-7.433 2.193-3.484.734-6.961 1.102-10.43 1.102-6.718 0-12-1.782-15.843-5.344-3.844-3.563-5.766-8.438-5.766-14.625 0-5.625 1.32-10.813 3.961-15.563s6.281-8.406 10.922-10.968c4.64-2.563 9.992-3.844 16.055-3.844 6.062 0 10.757 1.234 14.085 3.703 3.329 2.469 4.993 6.016 4.993 10.641zm-18.422-.094c0-.688-.211-1.313-.633-1.875-.422-.563-1.164-.844-2.227-.844-2.093 0-3.898.797-5.414 2.391-1.515 1.593-2.539 3.843-3.07 6.75 3.531 0 6.305-.532 8.32-1.594 2.016-1.063 3.024-2.672 3.024-4.828z"/><path d="m275.509 25.768c0 2.344-.343 5.063-1.031 8.157 0 0-4.174 19.852-5.64 26.82-.292 1.389-1.516 2.383-2.935 2.383-3.45 0-9.79 0-13.827 0-.905 0-1.762-.409-2.332-1.113-.569-.704-.791-1.628-.602-2.513 1.553-7.274 4.899-22.952 4.899-22.952.5-2 .75-3.61.75-4.829 0-2.093-1.063-3.14-3.188-3.14-1.031 0-2.227.523-3.586 1.57s-2.555 2.422-3.586 4.125-1.734 3.445-2.109 5.227c0 0-3.11 15.216-4.338 21.225-.285 1.397-1.514 2.4-2.939 2.4-3.472 0-9.852 0-13.906 0-.906 0-1.763-.409-2.332-1.113-.57-.704-.791-1.628-.602-2.513 1.552-7.274 4.898-22.952 4.898-22.952.531-2.125.797-3.735.797-4.829 0-2.093-1.063-3.14-3.188-3.14-1.687 0-3.515 1.117-5.484 3.351-1.969 2.235-3.25 4.758-3.844 7.571 0 0-3.206 15.245-4.467 21.242-.292 1.389-1.517 2.383-2.936 2.383-3.469 0-9.861 0-13.921 0-.905 0-1.762-.409-2.332-1.113-.569-.704-.791-1.627-.602-2.513 1.782-8.355 6.024-28.249 6.024-28.249.925-4.389 1.739-8.912 2.44-13.569.22-1.469 1.482-2.556 2.967-2.556h13.825c.847 0 1.655.358 2.224.986.569.629.845 1.468.761 2.312-.193 2.112-.425 3.763-.701 4.952h.187c2.563-2.907 5.508-5.203 8.836-6.891 3.328-1.687 6.461-2.531 9.398-2.531 7.157 0 10.969 3.531 11.438 10.594 2.437-3.219 5.414-5.79 8.93-7.711 3.515-1.922 7.039-2.883 10.57-2.883 7.656 0 11.484 3.937 11.484 11.812z"/><path d="m42.263 101.341c-.188.822-.714 1.526-1.448 1.941s-1.608.502-2.409.24c-1.497-.488-3.233-.707-5.193-.707-3.625 0-6.695 1.297-9.211 3.891-2.515 2.594-3.773 5.797-3.773 9.609 0 5.063 2.656 7.594 7.968 7.594 1.5 0 3.172-.227 5.016-.68.069-.017.138-.034.207-.052 1-.253 2.059.025 2.806.736.747.712 1.075 1.757.87 2.768-.501 2.477-1.059 5.226-1.389 6.854-.188.932-.808 1.719-1.669 2.122-1.869.848-3.869 1.512-6.005 1.986-2.671.594-5.242.891-7.711.891-6.218 0-11.101-1.758-14.648-5.274-3.547-3.515-5.32-8.351-5.32-14.507 0-5.594 1.351-10.75 4.054-15.469 2.704-4.719 6.461-8.414 11.274-11.086 4.812-2.672 10.234-4.008 16.265-4.008 3.962 0 7.401.504 10.318 1.513 1.393.525 2.184 2 1.852 3.451-.496 2.263-1.271 5.644-1.854 8.187z"/><path d="m110.822 134.495c-.071 1.602-1.391 2.865-2.995 2.865-3.747.002-10.235.002-14.123.002-.842 0-1.644-.353-2.213-.974-.568-.621-.85-1.451-.776-2.289.162-1.986.337-3.523.525-4.612h-.188c-2.812 3.031-5.781 5.297-8.906 6.797s-6.234 2.25-9.328 2.25c-7.812 0-11.719-3.938-11.719-11.813 0-2.343.344-5.062 1.032-8.156 0 0 4.208-19.861 5.683-26.825.294-1.386 1.518-2.378 2.935-2.378h13.826c.906 0 1.764.409 2.334 1.114.569.705.79 1.629.6 2.515-1.534 7.153-4.8 22.387-4.8 22.387-.532 2.125-.797 3.89-.797 5.297 0 .625.226 1.179.68 1.664.453.484 1.164.726 2.132.726 2.282 0 4.344-1.164 6.188-3.492s3.109-5.195 3.797-8.602c0 0 2.832-13.598 4.002-19.221.29-1.391 1.516-2.388 2.937-2.388h13.823c.905 0 1.762.409 2.332 1.113.569.703.791 1.627.602 2.512-1.707 8.011-5.649 26.516-5.649 26.516-.594 2.812-1.079 5.922-1.454 9.328-.231 2.102-.391 3.99-.48 5.664z"/><path d="m154.554 100.119c-.161.842-.676 1.575-1.413 2.014-.738.438-1.628.539-2.445.279-.861-.273-1.787-.536-2.779-.792-2.359-.61-4.492-.914-6.398-.914-2.875 0-4.313.89-4.313 2.672 0 .968.36 1.679 1.079 2.132.718.454 1.671.93 2.859 1.43 3.719 1.5 6.367 2.852 7.945 4.055s2.742 2.625 3.492 4.265c.75 1.641 1.125 3.696 1.125 6.165 0 3.375-.984 6.351-2.953 8.929-1.968 2.578-4.828 4.586-8.578 6.024-3.75 1.437-8.297 2.156-13.64 2.156-3.157 0-6.211-.227-9.164-.68-1.752-.269-3.347-.573-4.786-.913-1.542-.381-2.519-1.899-2.227-3.46.394-2.127.951-5.107 1.388-7.439.163-.872.703-1.627 1.476-2.062s1.698-.507 2.528-.194c4.223 1.617 8.053 2.42 11.488 2.42 3.906 0 5.859-1.016 5.859-3.047 0-.906-.43-1.649-1.289-2.227s-1.945-1.086-3.258-1.523c-4.687-1.531-7.984-3.422-9.89-5.672-1.907-2.25-2.86-5.156-2.86-8.719 0-3.343.992-6.328 2.977-8.953 1.984-2.625 4.719-4.594 8.203-5.906 3.484-1.313 7.601-1.969 12.351-1.969 2.25 0 4.922.211 8.016.633 1.59.217 2.99.436 4.2.657 1.622.315 2.683 1.883 2.372 3.506-.398 2.088-.941 4.923-1.365 7.133z"/><path d="m186.048 75.909c0 2.969-1.086 5.375-3.258 7.219-2.172 1.843-5.023 2.765-8.554 2.765-3.125 0-5.672-.82-7.641-2.461-1.969-1.64-2.953-3.695-2.953-6.164 0-3 1.094-5.429 3.281-7.289 2.188-1.859 5.063-2.789 8.625-2.789 3.063 0 5.578.805 7.547 2.414 1.969 1.61 2.953 3.711 2.953 6.305zm-13.137 59.075c-.293 1.386-1.517 2.378-2.934 2.378h-13.836c-.905 0-1.761-.408-2.331-1.111-.569-.703-.791-1.626-.604-2.511 1.985-9.367 7.248-34.201 8.901-42 .293-1.386 1.517-2.378 2.934-2.378h13.836c.905 0 1.761.408 2.331 1.111.569.703.791 1.626.604 2.511-1.985 9.367-7.248 34.201-8.901 42z"/><path d="m232.483 109.331c0 5.594-1.257 10.711-3.773 15.351-2.516 4.641-6.024 8.11-10.524 10.407-4.5 2.296-9.781 3.445-15.843 3.445-7.407 0-13.133-1.859-17.18-5.578s-6.07-8.938-6.07-15.656c0-3.938.718-7.797 2.156-11.579 1.437-3.781 3.437-6.961 6-9.539 2.562-2.578 5.711-4.554 9.445-5.929 3.735-1.375 8.008-2.063 12.821-2.063 7.312 0 12.968 1.836 16.968 5.508s6 8.883 6 15.633zm-19.875 0c0-2.125-.453-3.742-1.359-4.852-.906-1.109-2.125-1.664-3.656-1.664-1.719 0-3.219.664-4.5 1.992-1.282 1.328-2.289 3.157-3.024 5.485-.734 2.328-1.101 4.726-1.101 7.195 0 2.125.461 3.727 1.383 4.805.921 1.078 2.164 1.617 3.726 1.617 2.563 0 4.625-1.375 6.188-4.125 1.562-2.75 2.343-6.234 2.343-10.453z"/><path d="m287.294 100.003c0 2.187-.36 4.906-1.078 8.156 0 0-4.175 19.852-5.64 26.82-.292 1.389-1.517 2.383-2.936 2.383-3.45 0-9.789 0-13.826 0-.906 0-1.763-.409-2.332-1.113-.57-.704-.791-1.628-.602-2.513 1.552-7.273 4.898-22.952 4.898-22.952.531-2.125.797-3.734.797-4.828 0-2.094-1.063-3.141-3.188-3.141-1.687 0-3.515 1.117-5.484 3.352-1.969 2.234-3.25 4.758-3.844 7.57 0 0-3.142 15.226-4.381 21.231-.287 1.394-1.515 2.394-2.938 2.394-3.489 0-9.927 0-14.005 0-.905 0-1.762-.409-2.332-1.113-.569-.704-.791-1.627-.602-2.513 1.782-8.354 6.024-28.249 6.024-28.249.925-4.389 1.739-8.911 2.44-13.568.22-1.469 1.482-2.557 2.967-2.557h13.825c.847 0 1.655.358 2.224.987.569.628.845 1.468.761 2.311-.193 2.112-.425 3.763-.701 4.952h.187c2.563-2.906 5.508-5.203 8.836-6.891 3.328-1.687 6.461-2.531 9.398-2.531 7.688 0 11.532 3.938 11.532 11.813z"/><path d="m59.281 28.956h-3.447c-.922 0-1.793-.423-2.363-1.147s-.777-1.669-.562-2.565c.599-2.487 1.368-5.685 1.88-7.812.326-1.352 1.535-2.304 2.925-2.304h4.474s1.249-6.015 1.905-9.175c.238-1.15 1.126-2.057 2.271-2.32 3.214-.738 9.851-2.263 14.349-3.296 1-.23 2.048.066 2.78.785.733.718 1.048 1.761.837 2.765l-2.361 11.241h7.292c.921 0 1.792.422 2.362 1.146.571.724.778 1.669.562 2.565-.599 2.488-1.368 5.685-1.88 7.813-.326 1.351-1.535 2.304-2.925 2.304h-8.411s-18.812 90.105-22.135 106.019c-.29 1.391-1.516 2.387-2.936 2.387-3.453 0-9.795 0-13.83 0-.905 0-1.761-.408-2.331-1.111-.569-.702-.792-1.624-.605-2.509 3.982-18.838 22.149-104.786 22.149-104.786z"/></g></svg>