<?xml version="1.0" encoding="UTF-8" standalone="no"?>
<!DOCTYPE svg PUBLIC "-//W3C//DTD SVG 1.1//EN" "http://www.w3.org/Graphics/SVG/1.1/DTD/svg11.dtd">
<svg width="100%" height="100%" viewBox="0 0 1600 845" version="1.1" xmlns="http://www.w3.org/2000/svg" xmlns:xlink="http://www.w3.org/1999/xlink" xml:space="preserve" xmlns:serif="http://www.serif.com/" style="fill-rule:evenodd;clip-rule:evenodd;stroke-linecap:round;stroke-linejoin:round;stroke-miterlimit:1.5;">
    <g transform="matrix(1,0,0,1,0,-1392)">
        <g id="meilensteineNEU" transform="matrix(1,0,0,0.705823,-3300,1392.12)">
            <rect x="3300" y="0" width="1600" height="1200" style="fill:none;"/>
            <clipPath id="_clip1">
                <rect x="3300" y="0" width="1600" height="1200"/>
            </clipPath>
            <g clip-path="url(#_clip1)">
                <g transform="matrix(1,0,0,-1.41679,3313.31,1700.76)">
                    <path d="M-195.32,78.4C19.371,725.894 1392.49,869.909 1763.62,108.803C1845.06,-114.989 1958.49,-1164.87 1435.79,-724.884C1159.34,-492.178 433.41,-697.626 104.808,-683.439C-357.793,-663.467 -217.729,10.815 -195.32,78.4Z" style="fill:#fff;stroke:#1b57a6;stroke-width:8px;"/>
                </g>
                <g transform="matrix(-1,1.73506e-16,-1.22465e-16,-1.41679,4093.14,1230.29)">
                    <path d="M582.34,218.779L582.34,178.449L592.772,173.542" style="fill:none;stroke:#1b57a6;stroke-width:8px;"/>
                </g>
                <g transform="matrix(-1,1.73506e-16,-1.22465e-16,-1.41679,4661.89,1038.74)">
                    <path d="M582.34,218.779L582.34,178.449L592.772,173.542" style="fill:none;stroke:#1b57a6;stroke-width:8px;"/>
                </g>
                <g transform="matrix(-1,1.73506e-16,-1.22465e-16,-1.41679,5232.1,1180.53)">
                    <path d="M582.34,218.779L582.34,178.449L592.772,173.542" style="fill:none;stroke:#1b57a6;stroke-width:8px;"/>
                </g>
                <g transform="matrix(-1,1.73506e-16,-1.22465e-16,-1.41679,4346.78,1098.77)">
                    <path d="M582.34,218.779L582.34,178.449L592.772,173.542" style="fill:none;stroke:#1b57a6;stroke-width:8px;"/>
                </g>
                <g transform="matrix(-1,1.73506e-16,-1.22465e-16,-1.41679,4975.31,1069.6)">
                    <path d="M582.34,218.779L582.34,178.449L592.772,173.542" style="fill:none;stroke:#1b57a6;stroke-width:8px;"/>
                </g>
                <g id="_-div-Icons-made-by--a-href--https:--www.freepik.com--title--Freepik--Freepik--a--from--a-href--https:--www.flaticon.com---title--Flaticon--www.flaticon.com--a---div-" serif:id="&lt;div&gt;Icons made by &lt;a href=&quot;https://www.freepik.com&quot; title=&quot;Freepik&quot;&gt;Freepik&lt;/a&gt; from &lt;a href=&quot;https://www.flaticon.com/&quot; title=&quot;Flaticon&quot;&gt;www.flaticon.com&lt;/a&gt;&lt;/div&gt;" transform="matrix(0.027781,0,0,-0.0393597,3426.86,964.578)">
                    <g>
                        <path d="M2999,5105C2813,5060 2680,4888 2680,4696C2680,4503 2796,4346 2978,4290C3275,4198 3568,4451 3520,4757C3492,4935 3355,5077 3181,5110C3112,5123 3068,5122 2999,5105Z" style="fill:#1b57a6;fill-rule:nonzero;"/>
                        <path d="M1665,4513C1654,4511 1440,4441 1191,4358L736,4207L684,4156C644,4117 628,4092 616,4051C596,3983 596,3967 616,3900C636,3833 715,3750 776,3732C863,3706 896,3714 1315,3853L1715,3987L1863,3937C1964,3904 2008,3885 2003,3877C1999,3870 1857,3678 1686,3450C1516,3222 1367,3015 1356,2990C1339,2953 1335,2926 1335,2840C1335,2741 1337,2731 1369,2665C1398,2604 1431,2566 1628,2368C1777,2218 1849,2139 1839,2136C1831,2133 1706,2101 1561,2065C1416,2029 1281,1991 1261,1980C1211,1955 1157,1893 1135,1836C1101,1749 1130,1630 1202,1563C1240,1527 1316,1499 1374,1499C1422,1499 2243,1698 2418,1752C2566,1797 2642,1939 2595,2081C2579,2128 2557,2155 2414,2301C2324,2392 2250,2469 2250,2473C2250,2477 2369,2480 2515,2480L2779,2480L3270,2235C3735,2003 3765,1990 3817,1990C3895,1990 3944,2007 3995,2052C4106,2150 4116,2303 4019,2414C3981,2457 3931,2484 3453,2723L2929,2985L2624,2988C2457,2990 2320,2994 2320,2997C2320,3000 2413,3127 2526,3277L2731,3551L2758,3534C2773,3524 2902,3439 3045,3344C3188,3249 3323,3167 3345,3161C3371,3154 3547,3150 3842,3150C4278,3150 4302,3151 4354,3170C4452,3207 4513,3296 4514,3405C4515,3509 4457,3599 4360,3644C4317,3664 4296,3665 3901,3668L3487,3671L3229,3848C3086,3945 2903,4067 2822,4118L2675,4210L2209,4365C1776,4509 1718,4525 1665,4513Z" style="fill:#1b57a6;fill-rule:nonzero;"/>
                    </g>
                </g>
                <g transform="matrix(1,0,0,1.41679,3322.17,-23.2668)">
                    <text x="99.873px" y="422.225px" style="font-family:'MarkerFelt-Thin', 'Marker Felt';font-size:26px;fill:#212529;">2017</text>
                    <text x="99.873px" y="455.225px" style="font-family:'MarkerFelt-Thin', 'Marker Felt';font-size:26px;fill:#212529;">»E<tspan x="123.039px 129.487px 142.227px 148.727px 160.765px 171.555px 184.581px 190.665px 201.403px 212.063px 225.427px 237.283px 246.903px 253.403px 267.053px 273.501px 279.377px 290.297px 309.017px 329.037px 340.997px " y="455.225px 455.225px 455.225px 455.225px 455.225px 455.225px 455.225px 455.225px 455.225px 455.225px 455.225px 455.225px 455.225px 455.225px 455.225px 455.225px 455.225px 455.225px 455.225px 455.225px 455.225px ">in ethisches Dilemma«</tspan></text>
                    <text x="99.873px" y="481.225px" style="font-family:'MarkerFelt-Thin', 'Marker Felt';font-size:26px;fill:#212529;">w<tspan x="119.919px 126.471px 136.351px " y="481.225px 481.225px 481.225px ">ird</tspan> A<tspan x="170.671px 181.331px 192.485px 198.803px 212.401px 223.919px 230.133px 240.663px 252.103px 263.569px 269.289px 279.169px 285.669px 298.227px 310.161px " y="481.225px 481.225px 481.225px 481.225px 481.225px 481.225px 481.225px 481.225px 481.225px 481.225px 481.225px 481.225px 481.225px 481.225px 481.225px ">rtikelserie auf</tspan></text>
                    <text x="99.873px" y="507.225px" style="font-family:'MarkerFelt-Thin', 'Marker Felt';font-size:26px;fill:#212529;">e<tspan x="111.911px 122.701px 135.727px 141.629px 153.043px 165.003px 175.247px 185.881px 198.595px 209.749px 215.781px 227.559px 241.833px 255.015px 261.099px 267.183px 277.921px 283.589px 295.263px 305.689px " y="507.225px 507.225px 507.225px 507.225px 507.225px 507.225px 507.225px 507.225px 507.225px 507.225px 507.225px 507.225px 507.225px 507.225px 507.225px 507.225px 507.225px 507.225px 507.225px 507.225px ">thica-rationalis.org</tspan></text>
                </g>
                <g transform="matrix(1,0,0,1.41679,3571.85,-324.884)">
                    <text x="99.873px" y="422.225px" style="font-family:'MarkerFelt-Thin', 'Marker Felt';font-size:26px;fill:#212529;">2018</text>
                    <text x="99.873px" y="455.225px" style="font-family:'MarkerFelt-Thin', 'Marker Felt';font-size:26px;fill:#212529;">E<tspan x="111.599px 118.047px 131.489px 141.369px 147.869px 159.855px 171.009px 182.501px 193.681px 205.225px 219.473px 229.379px 240.923px 254.443px 266.221px 277.687px 289.309px 300.489px 312.631px 322.511px 329.011px 340.789px 347.055px 359.509px " y="455.225px 455.225px 455.225px 455.225px 455.225px 455.225px 455.225px 455.225px 455.225px 455.225px 455.225px 455.225px 455.225px 455.225px 455.225px 455.225px 455.225px 455.225px 455.225px 455.225px 455.225px 455.225px 455.225px 455.225px ">ine Studentengruppe gibt</tspan></text>
                    <text x="99.873px" y="481.225px" style="font-family:'MarkerFelt-Thin', 'Marker Felt';font-size:26px;fill:#212529;">s<tspan x="110.559px 116.461px 127.121px 139.341px " y="481.225px 481.225px 481.225px 481.225px ">ich </tspan>de<tspan x="168.565px 181.305px 187.805px 204.783px 216.743px 235.463px 247.007px 259.747px 266.247px 276.153px 288.217px 300.177px 318.897px 329.791px 335.849px 347.185px 357.871px 363.903px 375.681px " y="481.225px 481.225px 481.225px 481.225px 481.225px 481.225px 481.225px 481.225px 481.225px 481.225px 481.225px 481.225px 481.225px 481.225px 481.225px 481.225px 481.225px 481.225px 481.225px ">n Namen teamclusion</tspan></text>
                    <text x="99.873px" y="507.225px" style="font-family:'MarkerFelt-Thin', 'Marker Felt';font-size:26px;fill:#212529;">u<tspan x="111.547px 125.249px 136.429px 142.929px 154.369px 165.783px 172.179px 184.737px 196.125px 208.579px 217.939px 224.439px 244.147px 250.699px 260.579px 267.079px 273.189px 286.527px 299.267px " y="507.225px 507.225px 507.225px 507.225px 507.225px 507.225px 507.225px 507.225px 507.225px 507.225px 507.225px 507.225px 507.225px 507.225px 507.225px 507.225px 507.225px 507.225px 507.225px ">nd erlaubt mir ihn </tspan>für d<tspan x="354.101px 359.821px 371.677px 382.207px " y="507.225px 507.225px 507.225px 507.225px ">iese</tspan></text>
                    <text x="99.873px" y="533.225px" style="font-family:'MarkerFelt-Thin', 'Marker Felt';font-size:26px;fill:#212529;">W<tspan x="122.233px 133.517px 145.815px 156.345px 167.915px 174.831px 184.737px 194.617px 201.117px 214.663px 225.323px 231.823px 243.809px 255.249px 267.781px 286.501px 298.045px 311.747px 322.927px 334.471px " y="533.225px 533.225px 533.225px 533.225px 533.225px 533.225px 533.225px 533.225px 533.225px 533.225px 533.225px 533.225px 533.225px 533.225px 533.225px 533.225px 533.225px 533.225px 533.225px 533.225px ">ebseite zu verwenden</tspan></text>
                </g>
                <g transform="matrix(1,0,0,1.41679,4217.97,-324.884)">
                    <text x="99.873px" y="422.225px" style="font-family:'MarkerFelt-Thin', 'Marker Felt';font-size:26px;fill:#212529;">2020</text>
                    <text x="99.873px" y="455.225px" style="font-family:'MarkerFelt-Thin', 'Marker Felt';font-size:26px;fill:#212529;">Ne<tspan x="126.939px 138.171px 148.051px " y="455.225px 455.225px 455.225px ">ue </tspan>Fa<tspan x="178.653px 185.153px 191.367px 202.651px 213.805px 225.297px 237.127px 242.847px 254.391px " y="455.225px 455.225px 455.225px 455.225px 455.225px 455.225px 455.225px 455.225px 455.225px ">llstudien</tspan></text>
                    <text x="99.873px" y="481.225px" style="font-family:'MarkerFelt-Thin', 'Marker Felt';font-size:26px;fill:#212529;">z<tspan x="113.419px 125.275px 135.155px 141.655px 153.693px 164.327px 177.353px 191.367px 202.521px 208.605px 219.343px 230.003px 243.367px 254.911px 267.651px " y="481.225px 481.225px 481.225px 481.225px 481.225px 481.225px 481.225px 481.225px 481.225px 481.225px 481.225px 481.225px 481.225px 481.225px 481.225px ">ur praktischen </tspan>Et<tspan x="296.121px 309.147px 315.465px " y="481.225px 481.225px 481.225px ">hik</tspan></text>
                    <text x="99.873px" y="507.225px" style="font-family:'MarkerFelt-Thin', 'Marker Felt';font-size:26px;fill:#212529;">i<tspan x="106.321px 119.061px 125.561px 140.173px 151.509px 162.689px 174.649px " y="507.225px 507.225px 507.225px 507.225px 507.225px 507.225px 507.225px ">n Zusam</tspan>me<tspan x="223.633px 237.907px 250.933px 262.087px 274.229px 285.799px " y="507.225px 507.225px 507.225px 507.225px 507.225px 507.225px ">narbei</tspan>t</text>
                    <text x="99.873px" y="533.225px" style="font-family:'MarkerFelt-Thin', 'Marker Felt';font-size:26px;fill:#212529;">m<tspan x="119.581px 126.497px 135.857px " y="533.225px 533.225px 533.225px ">it </tspan>Ti<tspan x="161.285px 175.559px 187.519px 194.019px 210.997px 224.179px 230.497px 243.029px 256.003px 270.251px 280.703px 292.663px 304.701px 310.759px " y="533.225px 533.225px 533.225px 533.225px 533.225px 533.225px 533.225px 533.225px 533.225px 533.225px 533.225px 533.225px 533.225px 533.225px ">na Nalbantoglu</tspan></text>
                </g>
                <g transform="matrix(1,0,0,1.41679,4451.83,-23.2668)">
                    <text x="99.873px" y="422.225px" style="font-family:'MarkerFelt-Thin', 'Marker Felt';font-size:26px;fill:#212529;">2021</text>
                    <text x="99.873px" y="455.225px" style="font-family:'MarkerFelt-Thin', 'Marker Felt';font-size:26px;fill:#212529;">G<tspan x="113.887px 123.767px 134.531px 148.233px 160.063px 171.737px 185.257px 196.177px 202.677px 215.209px 226.987px 239.727px 246.227px 256.133px 268.197px 280.157px 298.877px 309.771px 315.829px 327.165px 337.851px 343.883px 355.661px 369.779px 375.525px 386.705px " y="455.225px 455.225px 455.225px 455.225px 455.225px 455.225px 455.225px 455.225px 455.225px 455.225px 455.225px 455.225px 455.225px 455.225px 455.225px 455.225px 455.225px 455.225px 455.225px 455.225px 455.225px 455.225px 455.225px 455.225px 455.225px 455.225px ">ründung von teamclusion.de</tspan></text>
                    <text x="99.873px" y="481.225px" style="font-family:'MarkerFelt-Thin', 'Marker Felt';font-size:26px;fill:#212529;">a<tspan x="113.055px 119.269px 128.889px 135.389px 148.805px 158.685px 169.943px 183.489px 194.227px 204.887px 218.251px 229.821px 236.087px 248.229px 258.109px " y="481.225px 481.225px 481.225px 481.225px 481.225px 481.225px 481.225px 481.225px 481.225px 481.225px 481.225px 481.225px 481.225px 481.225px 481.225px ">ls Drehscheibe </tspan>für Ide<tspan x="329.791px 341.335px " y="481.225px 481.225px ">en</tspan></text>
                    <text x="99.873px" y="507.225px" style="font-family:'MarkerFelt-Thin', 'Marker Felt';font-size:26px;fill:#212529;">z<tspan x="113.419px 125.275px 135.155px 141.655px 153.693px 164.327px 177.353px 191.367px 202.521px 208.605px 219.343px 230.003px 243.367px 254.911px 267.651px " y="507.225px 507.225px 507.225px 507.225px 507.225px 507.225px 507.225px 507.225px 507.225px 507.225px 507.225px 507.225px 507.225px 507.225px 507.225px ">ur praktischen </tspan>Et<tspan x="296.121px 309.147px 315.465px " y="507.225px 507.225px 507.225px ">hik</tspan></text>
                </g>
                <g transform="matrix(1,0,0,1.41679,3884.68,-23.2668)">
                    <text x="99.873px" y="422.225px" style="font-family:'MarkerFelt-Thin', 'Marker Felt';font-size:26px;fill:#212529;">2019</text>
                    <text x="99.873px" y="455.225px" style="font-family:'MarkerFelt-Thin', 'Marker Felt';font-size:26px;fill:#212529;">Ers<tspan x="132.217px 142.123px 153.563px 163.443px 169.943px 192.745px 204.419px 215.755px 229.925px 240.299px 253.975px 265.493px " y="455.225px 455.225px 455.225px 455.225px 455.225px 455.225px 455.225px 455.225px 455.225px 455.225px 455.225px 455.225px ">ter Workshop</tspan></text>
                    <text x="99.873px" y="481.225px" style="font-family:'MarkerFelt-Thin', 'Marker Felt';font-size:26px;fill:#212529;">D<tspan x="112.015px 123.871px 134.557px 140.433px 152.185px 164.925px 171.425px 184.503px 196.463px 208.319px 218.199px 224.699px 236.581px 243.029px 253.195px 264.557px " y="481.225px 481.225px 481.225px 481.225px 481.225px 481.225px 481.225px 481.225px 481.225px 481.225px 481.225px 481.225px 481.225px 481.225px 481.225px 481.225px ">esign Your Life!</tspan></text>
                    <text x="99.873px" y="507.225px" style="font-family:'MarkerFelt-Thin', 'Marker Felt';font-size:26px;fill:#212529;">m<tspan x="119.581px 126.497px 135.857px 142.357px 156.033px 162.169px 181.487px 193.265px 206.707px 216.587px " y="507.225px 507.225px 507.225px 507.225px 507.225px 507.225px 507.225px 507.225px 507.225px 507.225px ">it Simone </tspan>Näg<tspan x="262.191px 273.709px 279.585px " y="507.225px 507.225px 507.225px ">ele</tspan></text>
                </g>
            </g>
        </g>
    </g>
</svg>
