<?xml version="1.0" encoding="UTF-8" standalone="no"?>
<!DOCTYPE svg PUBLIC "-//W3C//DTD SVG 1.1//EN" "http://www.w3.org/Graphics/SVG/1.1/DTD/svg11.dtd">
<svg width="100%" height="100%" viewBox="0 0 1600 418" version="1.1" xmlns="http://www.w3.org/2000/svg" xmlns:xlink="http://www.w3.org/1999/xlink" xml:space="preserve" xmlns:serif="http://www.serif.com/" style="fill-rule:evenodd;clip-rule:evenodd;stroke-linecap:round;stroke-linejoin:round;stroke-miterlimit:1.5;">
    <g transform="matrix(1,0,0,1,-3300,-782)">
        <g id="meilensteine" transform="matrix(1,0,0,0.633307,0,440.031)">
            <rect x="3300" y="0" width="1600" height="1200" style="fill:none;"/>
            <clipPath id="_clip1">
                <rect x="3300" y="0" width="1600" height="1200"/>
            </clipPath>
            <g clip-path="url(#_clip1)">
                <g transform="matrix(0.992009,-1.54518e-18,9.78572e-19,-1.57901,3320.21,1748.21)">
                    <path d="M-195.32,78.4C19.371,725.894 1392.49,869.909 1763.62,108.803C1845.06,-114.989 1958.49,-1164.87 1435.79,-724.884C1159.34,-492.178 433.41,-697.626 104.808,-683.439C-357.793,-663.467 -217.729,10.815 -195.32,78.4Z" style="fill:white;stroke:rgb(27,87,166);stroke-width:8.03px;"/>
                </g>
                <g id="_5er" serif:id="5er">
                    <g transform="matrix(-1,1.93373e-16,-1.22465e-16,-1.57901,4094.51,1230.19)">
                        <path d="M582.34,218.779L582.34,178.449L600.273,178.235" style="fill:none;stroke:rgb(27,87,166);stroke-width:8px;"/>
                    </g>
                    <g id="_-div-Icons-made-by--a-href--https:--www.freepik.com--title--Freepik--Freepik--a--from--a-href--https:--www.flaticon.com---title--Flaticon--www.flaticon.com--a---div-" serif:id="&lt;div&gt;Icons made by &lt;a href=&quot;https://www.freepik.com&quot; title=&quot;Freepik&quot;&gt;Freepik&lt;/a&gt; from &lt;a href=&quot;https://www.flaticon.com/&quot; title=&quot;Flaticon&quot;&gt;www.flaticon.com&lt;/a&gt;&lt;/div&gt;" transform="matrix(0.027781,0,0,-0.0438666,3427.24,951.231)">
                        <g>
                            <path d="M2999,5105C2813,5060 2680,4888 2680,4696C2680,4503 2796,4346 2978,4290C3275,4198 3568,4451 3520,4757C3492,4935 3355,5077 3181,5110C3112,5123 3068,5122 2999,5105Z" style="fill:rgb(27,87,166);fill-rule:nonzero;"/>
                            <path d="M1665,4513C1654,4511 1440,4441 1191,4358L736,4207L684,4156C644,4117 628,4092 616,4051C596,3983 596,3967 616,3900C636,3833 715,3750 776,3732C863,3706 896,3714 1315,3853L1715,3987L1863,3937C1964,3904 2008,3885 2003,3877C1999,3870 1857,3678 1686,3450C1516,3222 1367,3015 1356,2990C1339,2953 1335,2926 1335,2840C1335,2741 1337,2731 1369,2665C1398,2604 1431,2566 1628,2368C1777,2218 1849,2139 1839,2136C1831,2133 1706,2101 1561,2065C1416,2029 1281,1991 1261,1980C1211,1955 1157,1893 1135,1836C1101,1749 1130,1630 1202,1563C1240,1527 1316,1499 1374,1499C1422,1499 2243,1698 2418,1752C2566,1797 2642,1939 2595,2081C2579,2128 2557,2155 2414,2301C2324,2392 2250,2469 2250,2473C2250,2477 2369,2480 2515,2480L2779,2480L3270,2235C3735,2003 3765,1990 3817,1990C3895,1990 3944,2007 3995,2052C4106,2150 4116,2303 4019,2414C3981,2457 3931,2484 3453,2723L2929,2985L2624,2988C2457,2990 2320,2994 2320,2997C2320,3000 2413,3127 2526,3277L2731,3551L2758,3534C2773,3524 2902,3439 3045,3344C3188,3249 3323,3167 3345,3161C3371,3154 3547,3150 3842,3150C4278,3150 4302,3151 4354,3170C4452,3207 4513,3296 4514,3405C4515,3509 4457,3599 4360,3644C4317,3664 4296,3665 3901,3668L3487,3671L3229,3848C3086,3945 2903,4067 2822,4118L2675,4210L2209,4365C1776,4509 1718,4525 1665,4513Z" style="fill:rgb(27,87,166);fill-rule:nonzero;"/>
                        </g>
                    </g>
                    <g transform="matrix(-1,1.93373e-16,-1.22465e-16,-1.57901,4664.7,1018.7)">
                        <path d="M582.34,218.779L582.34,178.449L600.273,178.235" style="fill:none;stroke:rgb(27,87,166);stroke-width:8px;"/>
                    </g>
                    <g transform="matrix(-1,1.93373e-16,-1.22465e-16,-1.57901,4949.79,1049.83)">
                        <path d="M582.34,218.779L582.34,178.449L600.273,178.235" style="fill:none;stroke:rgb(27,87,166);stroke-width:8px;"/>
                    </g>
                    <g transform="matrix(-1,1.93373e-16,-1.22465e-16,-1.57901,4379.61,1077.8)">
                        <path d="M582.34,218.779L582.34,178.449L600.273,178.235" style="fill:none;stroke:rgb(27,87,166);stroke-width:8px;"/>
                    </g>
                    <g transform="matrix(-1,1.93373e-16,-1.22465e-16,-1.57901,5234.88,1181.49)">
                        <path d="M582.34,218.779L582.34,178.449L600.273,178.235" style="fill:none;stroke:rgb(27,87,166);stroke-width:8px;"/>
                    </g>
                    <g transform="matrix(1,0,0,1.57901,-80.4715,-1149.95)">
                        <g transform="matrix(70,0,0,70,3554.73,1443.17)">
                            <path d="M0.416,-0.078L0.416,-0.501L0.3,-0.501L0.3,-0.534C0.38,-0.538 0.417,-0.572 0.428,-0.642L0.466,-0.642L0.466,-0.078L0.416,-0.078ZM0.849,-0.363C0.849,-0.593 0.663,-0.779 0.432,-0.779C0.202,-0.779 0.016,-0.593 0.016,-0.363C0.016,-0.133 0.202,0.053 0.432,0.053C0.663,0.053 0.849,-0.133 0.849,-0.363Z" style="fill:rgb(27,87,166);fill-rule:nonzero;"/>
                        </g>
                    </g>
                    <g transform="matrix(1,0,0,1.57901,4.78531,-1331.8)">
                        <g transform="matrix(70,0,0,70,3756.58,1455.8)">
                            <path d="M0.251,-0.101C0.264,-0.227 0.338,-0.281 0.451,-0.36C0.518,-0.406 0.556,-0.448 0.556,-0.516C0.556,-0.588 0.51,-0.631 0.435,-0.631C0.351,-0.631 0.313,-0.558 0.313,-0.475L0.264,-0.475C0.262,-0.589 0.323,-0.672 0.438,-0.672C0.536,-0.672 0.605,-0.616 0.605,-0.515C0.605,-0.423 0.543,-0.369 0.473,-0.32C0.389,-0.261 0.321,-0.205 0.312,-0.148L0.608,-0.148L0.608,-0.101L0.251,-0.101ZM0.849,-0.363C0.849,-0.593 0.663,-0.779 0.432,-0.779C0.202,-0.779 0.016,-0.593 0.016,-0.363C0.016,-0.133 0.202,0.053 0.432,0.053C0.663,0.053 0.849,-0.133 0.849,-0.363Z" style="fill:rgb(27,87,166);fill-rule:nonzero;"/>
                        </g>
                    </g>
                    <g transform="matrix(1,0,0,1.57901,97.0078,-1402.23)">
                        <g transform="matrix(70,0,0,70,3948.86,1467.15)">
                            <path d="M0.623,-0.244C0.623,-0.132 0.535,-0.077 0.436,-0.077C0.328,-0.077 0.248,-0.142 0.251,-0.266L0.3,-0.266C0.299,-0.173 0.357,-0.119 0.435,-0.119C0.514,-0.119 0.573,-0.165 0.573,-0.244C0.573,-0.32 0.517,-0.362 0.445,-0.362L0.402,-0.362L0.402,-0.407L0.445,-0.407C0.498,-0.407 0.554,-0.446 0.554,-0.511C0.554,-0.572 0.514,-0.615 0.437,-0.615C0.36,-0.615 0.315,-0.554 0.312,-0.474L0.264,-0.474C0.262,-0.58 0.331,-0.657 0.436,-0.657C0.539,-0.657 0.603,-0.602 0.603,-0.511C0.603,-0.448 0.562,-0.403 0.511,-0.387C0.582,-0.373 0.623,-0.325 0.623,-0.244ZM0.849,-0.363C0.849,-0.593 0.663,-0.779 0.432,-0.779C0.202,-0.779 0.016,-0.593 0.016,-0.363C0.016,-0.133 0.202,0.053 0.432,0.053C0.663,0.053 0.849,-0.133 0.849,-0.363Z" style="fill:rgb(27,87,166);fill-rule:nonzero;"/>
                        </g>
                    </g>
                    <g transform="matrix(1,0,0,1.57901,161.402,-1373.82)">
                        <g transform="matrix(70,0,0,70,4170.73,1470.51)">
                            <path d="M0.471,-0.574L0.271,-0.275L0.471,-0.275L0.471,-0.574ZM0.519,-0.229L0.519,-0.092L0.471,-0.092L0.471,-0.229L0.219,-0.229L0.219,-0.275L0.471,-0.656L0.519,-0.656L0.519,-0.275L0.596,-0.275L0.596,-0.229L0.519,-0.229ZM0.849,-0.363C0.849,-0.593 0.663,-0.779 0.432,-0.779C0.202,-0.779 0.016,-0.593 0.016,-0.363C0.016,-0.133 0.202,0.053 0.432,0.053C0.663,0.053 0.849,-0.133 0.849,-0.363Z" style="fill:rgb(27,87,166);fill-rule:nonzero;"/>
                        </g>
                    </g>
                    <g transform="matrix(1,0,0,1.57901,214.547,-1201.93)">
                        <g transform="matrix(70,0,0,70,4402.85,1451.23)">
                            <path d="M0.618,-0.262C0.618,-0.152 0.537,-0.072 0.431,-0.072C0.329,-0.072 0.255,-0.137 0.252,-0.244L0.301,-0.244C0.304,-0.163 0.36,-0.114 0.432,-0.114C0.517,-0.114 0.569,-0.184 0.569,-0.268C0.569,-0.354 0.514,-0.417 0.431,-0.417C0.381,-0.417 0.337,-0.396 0.312,-0.349L0.268,-0.349L0.319,-0.644L0.592,-0.644L0.592,-0.598L0.356,-0.598L0.322,-0.406C0.346,-0.437 0.392,-0.458 0.437,-0.458C0.55,-0.458 0.618,-0.382 0.618,-0.262ZM0.849,-0.363C0.849,-0.593 0.663,-0.779 0.432,-0.779C0.202,-0.779 0.016,-0.593 0.016,-0.363C0.016,-0.133 0.202,0.053 0.432,0.053C0.663,0.053 0.849,-0.133 0.849,-0.363Z" style="fill:rgb(27,87,166);fill-rule:nonzero;"/>
                        </g>
                    </g>
                </g>
            </g>
        </g>
    </g>
</svg>
